{"glyphs":{"0":{"ha":501,"x_min":-10,"x_max":511,"o":"m 321 593 q 242 512 278 557 q 179 420 206 467 q 138 328 153 374 q 122 246 122 283 q 135 185 122 207 q 172 164 149 164 q 290 260 224 164 q 331 327 313 292 q 364 397 350 363 q 385 465 378 432 q 393 524 393 497 q 376 574 393 554 q 333 593 360 593 l 321 593 l 321 593 m 415 699 q 511 539 511 664 q 476 369 511 460 q 381 194 442 278 q 264 75 322 115 q 147 35 206 35 q 34 83 78 35 q -10 208 -10 132 q 6 319 -10 261 q 53 435 22 378 q 125 548 83 493 q 219 651 167 603 q 308 719 264 692 q 375 746 351 746 q 401 735 392 746 q 415 699 410 725 z "},"1":{"ha":351,"x_min":32,"x_max":429,"o":"m 263 565 q 233 548 244 554 q 197 529 221 542 q 141 503 160 510 q 107 497 122 497 q 65 551 65 497 q 74 583 65 571 q 103 601 82 594 q 171 628 135 613 q 235 660 207 644 l 326 711 q 365 724 347 724 q 410 692 392 724 q 424 664 418 678 q 429 639 429 650 q 418 599 429 618 q 353 492 397 558 q 299 403 328 453 q 242 301 269 353 q 191 201 214 250 q 154 118 168 153 q 126 58 136 72 q 96 43 115 43 q 51 63 69 43 q 32 110 32 82 q 49 185 32 140 q 107 308 65 229 q 174 428 136 365 q 250 547 213 492 l 263 565 l 263 565 z "},"2":{"ha":454,"x_min":-111,"x_max":500,"o":"m 139 186 q 179 190 163 189 q 215 192 196 192 q 299 174 269 192 q 328 122 328 157 q 313 80 328 99 q 279 61 297 61 q 264 64 269 61 q 223 76 236 74 q 192 79 210 79 q 99 68 151 79 q -28 32 47 57 q -54 26 -43 26 q -94 51 -78 26 q -111 90 -111 72 q -65 161 -111 117 q 31 247 -25 200 q 151 343 86 293 q 208 387 179 364 q 251 421 236 410 q 333 497 310 468 q 357 551 357 526 q 319 589 357 589 q 278 579 299 589 q 224 543 257 569 q 178 511 192 519 q 153 503 164 503 q 124 517 136 503 q 111 549 111 531 q 134 603 111 575 q 193 656 157 632 q 272 694 229 679 q 357 708 315 708 q 460 671 419 708 q 500 575 500 633 q 483 498 500 538 q 435 425 467 458 q 404 394 419 410 q 368 362 389 379 q 318 322 347 344 q 249 271 289 300 q 213 244 228 256 q 185 224 197 233 q 163 206 174 214 q 139 186 153 197 z "},"3":{"ha":443,"x_min":-65,"x_max":463,"o":"m 339 439 q 392 332 392 404 q 366 219 392 275 q 299 119 340 164 q 205 48 257 75 q 99 21 153 21 q 35 32 65 21 q -17 63 6 43 q -52 109 -39 83 q -65 164 -65 135 q -42 232 -65 204 q 13 260 -19 260 q 48 247 33 260 q 63 214 63 233 l 63 200 q 61 189 61 194 q 61 182 61 185 q 74 147 61 161 q 106 133 86 133 q 163 160 129 133 q 222 226 196 186 q 258 326 258 283 q 211 378 258 378 q 201 378 208 378 q 189 376 196 378 q 181 376 185 376 q 175 375 178 375 q 146 388 157 375 q 135 421 135 401 q 149 459 135 444 q 199 486 164 474 q 296 529 268 510 q 324 572 324 549 q 312 596 324 586 q 285 606 300 606 q 235 592 260 606 l 181 564 q 154 557 167 557 q 123 569 135 557 q 111 601 111 582 q 130 647 111 624 q 180 687 149 669 q 251 715 211 704 q 331 726 290 726 q 426 692 389 726 q 463 604 463 658 q 339 439 463 508 z "},"4":{"ha":533,"x_min":10,"x_max":579,"o":"m 168 381 q 203 389 188 386 q 239 394 218 392 l 282 400 q 290 401 282 401 q 313 445 299 419 q 342 497 326 471 q 373 549 357 524 q 401 592 389 574 q 268 489 328 543 q 168 381 208 435 m 450 410 q 513 361 513 410 q 496 318 513 335 q 453 301 479 301 q 442 301 449 301 q 429 303 436 301 l 413 303 q 394 303 403 303 q 372 301 386 303 q 357 273 363 283 q 340 236 351 263 q 328 209 335 225 q 316 178 322 193 q 304 149 310 163 q 296 129 299 136 l 275 75 q 222 26 258 26 q 178 47 196 26 q 161 94 161 67 q 168 140 161 115 q 194 211 175 165 q 213 255 206 239 q 232 292 221 271 q 198 285 211 288 q 171 279 185 283 q 140 269 157 275 q 96 254 124 264 q 69 249 81 249 q 28 276 47 249 q 10 336 10 304 q 37 397 10 361 q 132 497 64 433 q 253 603 190 554 q 399 704 317 651 q 464 742 440 732 q 506 753 488 753 q 556 731 533 753 q 579 682 579 710 q 574 659 579 671 q 553 622 568 647 q 543 606 550 617 q 525 578 536 594 q 512 553 518 565 q 499 531 506 542 q 484 507 488 513 q 479 500 481 501 l 433 417 q 433 415 433 417 q 429 410 432 413 l 450 410 z "},"5":{"ha":465,"x_min":-46,"x_max":567,"o":"m 326 603 q 304 584 314 593 q 279 558 294 575 q 250 526 261 539 q 225 496 239 513 q 259 508 244 504 q 293 511 274 511 q 394 474 356 511 q 432 375 432 436 q 399 241 432 310 q 306 117 365 172 q 117 35 219 35 q 0 76 46 35 q -46 183 -46 117 q -38 231 -46 208 q -18 272 -31 254 q 11 299 -6 289 q 46 310 28 310 q 76 299 63 310 q 89 275 89 289 q 82 244 89 265 q 76 224 78 233 q 75 206 75 214 q 90 167 75 182 q 126 151 104 151 q 242 226 181 151 q 285 296 269 263 q 300 353 300 329 q 246 406 300 406 q 217 402 231 406 q 172 388 203 399 q 143 378 153 381 q 126 375 133 375 q 86 402 104 375 q 68 461 68 429 q 106 538 68 489 q 208 646 144 588 q 205 662 206 657 q 204 674 204 667 q 214 695 204 688 q 250 708 224 703 q 286 713 264 711 q 333 717 308 715 q 383 721 357 719 q 432 722 408 722 q 536 707 506 722 q 567 656 567 692 q 553 617 567 633 q 521 601 540 601 q 489 606 511 601 q 436 610 468 610 q 372 608 399 610 q 326 603 346 607 z "},"6":{"ha":513,"x_min":-10,"x_max":517,"o":"m 165 358 q 130 297 143 331 q 117 236 117 264 q 136 180 117 201 q 188 158 156 158 q 240 174 214 158 q 290 218 267 190 q 326 276 314 246 q 339 331 339 306 q 319 376 339 358 q 271 393 300 393 q 222 385 246 393 q 165 358 197 378 m 268 481 q 307 490 292 488 q 340 493 322 493 q 440 458 403 493 q 478 361 478 422 q 451 242 478 300 q 383 138 425 183 q 285 65 340 93 q 174 38 231 38 q 40 88 90 38 q -10 218 -10 138 q 45 401 -10 310 q 206 582 100 493 q 281 638 243 613 q 352 683 318 664 q 415 712 386 701 q 464 722 444 722 q 502 708 488 722 q 517 675 517 694 q 490 629 517 650 q 476 619 485 625 q 436 596 467 614 q 347 540 388 568 q 268 481 306 513 z "},"7":{"ha":476,"x_min":10,"x_max":565,"o":"m 365 589 q 271 572 322 578 q 185 565 219 565 q 121 583 144 565 q 97 629 97 600 q 114 672 97 654 q 154 689 131 689 l 164 689 l 201 685 q 213 684 208 685 q 225 683 218 683 q 338 692 274 683 q 464 715 401 700 q 510 722 494 722 q 549 705 533 722 q 565 664 565 688 q 559 637 565 649 q 535 607 553 625 q 484 553 514 586 q 422 483 454 521 q 358 407 390 446 q 300 335 326 368 q 215 217 251 272 q 140 90 179 161 q 106 38 119 50 q 68 25 92 25 q 27 42 44 25 q 10 85 10 58 q 43 183 10 122 q 151 339 76 243 q 234 443 193 393 q 311 533 275 493 q 335 560 325 549 q 365 589 346 571 z "},"8":{"ha":506,"x_min":-28,"x_max":543,"o":"m 324 519 q 408 600 408 557 q 397 628 408 617 q 365 639 385 639 q 315 620 338 639 q 293 578 293 601 q 324 519 293 554 m 265 369 q 194 326 217 342 q 156 296 171 311 q 119 218 119 258 q 137 176 119 192 q 182 161 154 161 q 233 173 207 161 q 278 203 258 185 q 311 247 299 222 q 324 294 324 271 q 316 333 324 314 q 288 382 308 353 l 265 369 m 393 440 q 443 365 429 396 q 457 301 457 335 q 432 205 457 251 q 365 123 407 158 q 269 67 324 88 q 157 46 215 46 q 84 58 118 46 q 25 92 50 71 q -14 143 0 114 q -28 206 -28 172 q -15 273 -28 240 q 28 337 -1 306 q 103 399 57 368 q 215 465 150 431 l 207 475 q 172 529 182 507 q 163 575 163 551 q 179 642 163 610 q 225 697 196 674 q 293 733 254 719 q 376 747 332 747 q 497 708 450 747 q 543 608 543 669 q 496 507 543 553 q 486 499 490 503 q 472 490 482 496 q 447 473 463 483 q 401 444 431 463 q 397 442 399 443 q 393 440 396 442 z "},"9":{"ha":503,"x_min":47,"x_max":521,"o":"m 360 442 q 386 509 379 486 q 393 556 393 532 q 376 608 393 589 q 331 628 360 628 q 280 612 306 628 q 233 571 254 596 q 199 515 213 546 q 186 456 186 485 q 203 408 186 426 q 247 390 219 390 q 301 400 274 390 q 354 428 328 410 l 360 442 m 296 315 q 245 288 268 296 q 193 281 222 281 q 88 320 128 281 q 47 422 47 360 q 76 539 47 481 q 151 644 106 597 q 255 720 197 690 q 369 750 313 750 q 478 703 436 750 q 521 585 521 657 q 481 412 521 508 q 371 221 442 315 q 292 126 333 169 q 217 57 251 82 q 175 30 192 38 q 143 22 158 22 q 111 35 125 22 q 97 65 97 49 q 106 94 97 82 q 142 133 114 107 q 183 173 157 146 q 232 226 208 200 q 267 270 253 251 q 296 315 281 289 z "}," ":{"ha":278,"x_min":0,"x_max":0,"o":""},"\"":{"ha":467,"x_min":88,"x_max":510,"o":"m 456 736 q 494 721 479 736 q 510 682 510 706 q 489 616 510 661 q 431 510 468 571 q 380 442 400 460 q 333 424 360 424 q 295 438 310 424 q 281 471 281 451 q 288 501 281 482 q 306 540 294 519 l 360 639 q 411 715 390 694 q 456 736 432 736 m 263 736 q 301 721 286 736 q 315 682 315 706 q 295 617 315 661 q 238 510 275 572 q 186 442 206 460 q 140 424 167 424 q 102 438 117 424 q 88 471 88 451 q 94 501 88 482 q 113 540 100 519 l 167 639 q 217 716 197 696 q 263 736 238 736 z "},"#":{"ha":556,"x_min":46,"x_max":510,"o":"m 500 10 l 500 917 l 56 917 l 56 10 l 500 10 m 46 926 l 510 926 l 510 0 l 46 0 l 46 926 z "},"$":{"ha":583,"x_min":-37,"x_max":647,"o":"m 178 106 l 185 106 q 232 115 210 106 q 272 142 254 125 q 301 180 290 158 q 311 225 311 201 q 281 299 311 258 l 178 106 m 417 638 q 308 586 350 622 q 267 506 267 550 q 294 440 267 468 l 310 469 q 297 501 297 486 q 354 547 297 543 l 361 547 l 417 638 l 417 638 m 433 553 q 510 579 478 560 q 542 621 543 599 q 506 647 539 647 q 500 647 504 647 q 494 646 497 647 l 433 553 m 336 399 l 344 390 q 413 301 393 342 q 433 217 433 261 q 409 127 433 169 q 340 54 385 85 q 258 15 300 26 q 157 3 215 3 q 144 3 154 3 q 126 4 135 3 l 107 -35 q 85 -69 93 -61 q 65 -78 76 -78 q 46 -69 54 -78 q 38 -49 38 -61 q 49 -12 38 -37 l 65 18 q -10 75 17 38 q -37 160 -37 113 q -26 215 -37 188 q 6 263 -14 242 q 49 297 25 283 q 100 310 74 310 q 132 301 119 310 q 144 276 144 292 q 133 250 144 258 l 111 228 q 83 169 83 203 q 115 121 83 133 l 239 347 q 175 431 194 396 q 156 501 156 465 q 182 592 156 549 q 254 669 208 636 q 360 721 300 701 q 486 740 419 740 l 507 772 q 540 814 526 801 q 568 826 553 826 q 587 819 579 826 q 594 803 594 813 q 585 778 594 792 l 572 760 l 553 731 q 647 628 647 703 q 627 558 647 590 q 572 500 607 525 q 492 460 538 475 q 394 446 446 446 q 381 446 388 446 q 365 447 375 446 l 336 399 z "},"%":{"ha":718,"x_min":32,"x_max":726,"o":"m 425 107 q 418 126 418 119 q 423 138 419 133 q 444 153 426 142 q 469 176 458 163 q 479 197 479 190 q 469 207 479 207 q 443 195 460 207 q 407 164 426 183 q 375 125 386 143 q 364 97 364 107 q 368 85 364 90 q 379 81 372 81 q 425 107 397 81 m 308 588 q 301 603 301 596 q 308 615 301 613 l 339 635 q 356 651 349 642 q 363 667 363 660 q 353 674 363 674 q 285 638 325 674 q 233 565 233 594 q 249 551 233 551 q 274 560 260 551 q 308 588 288 568 m 556 151 q 558 144 557 147 q 558 138 558 142 q 540 93 558 117 q 449 8 503 42 q 349 -25 396 -25 q 284 1 310 -25 q 258 63 258 26 q 340 221 258 139 q 428 288 383 265 q 514 310 472 310 q 570 290 547 310 q 593 240 593 269 q 556 151 593 200 m 468 688 q 528 719 493 699 q 599 763 563 739 q 649 794 633 786 q 679 801 664 801 q 713 788 699 801 q 726 756 726 774 q 711 708 726 738 q 667 639 696 678 q 599 555 639 600 q 510 460 560 510 l 411 363 q 335 283 372 325 q 266 199 299 240 q 208 118 233 157 q 167 49 182 79 q 126 -12 143 4 q 85 -29 108 -29 q 48 -14 64 -29 q 32 22 32 1 q 40 60 32 40 q 69 115 49 81 q 131 205 93 156 q 210 299 169 254 q 239 332 224 315 q 273 367 254 349 q 315 410 292 386 q 368 464 338 433 l 458 554 q 494 590 482 578 q 518 618 506 603 q 463 594 494 607 q 410 574 432 581 q 312 478 365 514 q 213 443 258 443 q 152 469 176 443 q 128 531 128 494 q 204 683 128 604 q 297 753 249 728 q 390 779 346 779 q 448 758 426 779 q 469 704 469 738 q 469 697 469 701 q 468 688 469 693 z "},"&":{"ha":888,"x_min":65,"x_max":869,"o":"m 436 601 q 517 653 488 622 q 547 713 547 683 q 535 740 547 728 q 508 751 524 751 q 456 717 476 751 q 435 629 435 682 q 435 617 435 622 q 436 601 435 611 m 376 178 q 363 235 368 208 q 352 288 357 263 q 344 340 347 314 q 338 396 340 365 l 335 417 q 285 388 303 400 q 250 361 268 376 q 210 306 225 338 q 194 242 194 274 q 222 164 194 194 q 292 133 249 133 q 339 140 315 133 q 382 160 363 146 l 376 178 m 665 368 q 610 235 644 297 q 532 128 575 174 q 613 96 567 96 q 635 97 622 96 q 664 101 649 99 q 694 106 681 106 q 726 93 714 106 q 738 63 738 81 q 725 31 738 46 q 692 5 713 17 q 646 -14 672 -7 q 590 -21 619 -21 q 436 50 490 -21 q 279 -1 356 -1 q 194 16 233 -1 q 127 64 156 33 q 82 136 99 94 q 65 226 65 178 q 127 402 65 326 q 325 546 189 478 q 324 572 324 561 q 324 596 324 583 q 354 761 324 699 q 428 849 382 817 q 525 882 475 882 q 630 840 588 882 q 672 735 672 797 q 653 650 672 692 q 599 572 635 608 q 543 529 578 550 q 451 481 508 508 l 444 478 l 446 464 q 464 332 456 381 q 483 247 472 283 q 543 363 522 290 q 488 415 488 371 q 526 468 488 453 q 597 476 544 476 q 621 477 610 476 q 647 479 632 478 q 685 483 663 481 q 744 488 708 485 q 774 490 760 489 q 800 490 789 490 q 851 476 832 490 q 869 436 869 461 q 850 388 869 408 q 807 367 831 367 q 796 368 800 367 l 775 372 q 759 374 768 374 q 739 375 750 375 q 708 374 724 375 q 674 369 693 372 l 665 368 l 665 368 z "},"'":{"ha":272,"x_min":88,"x_max":315,"o":"m 263 736 q 301 721 286 736 q 315 682 315 706 q 295 616 315 661 q 238 510 275 571 q 187 442 207 460 q 140 424 167 424 q 102 438 117 424 q 88 471 88 451 q 94 501 88 482 q 113 540 100 519 l 167 639 q 217 716 197 696 q 263 736 238 736 z "},"(":{"ha":571,"x_min":111,"x_max":758,"o":"m 758 1033 q 729 983 758 1014 q 535 754 624 879 q 383 494 447 629 q 316 333 343 413 q 265 153 289 254 q 238 19 250 86 q 221 -93 225 -47 q 213 -151 215 -136 q 206 -178 210 -167 q 163 -210 190 -210 q 111 -93 111 -210 q 124 62 111 -22 q 158 233 136 146 q 210 404 179 319 q 278 563 240 489 q 338 669 304 615 q 407 776 371 724 q 483 876 443 828 q 561 967 522 925 q 655 1053 618 1026 q 718 1079 692 1079 q 746 1065 733 1079 q 758 1033 758 1051 z "},")":{"ha":571,"x_min":-156,"x_max":483,"o":"m 483 957 q 479 876 483 921 q 467 781 475 831 q 449 681 460 732 q 425 582 438 629 q 311 291 383 433 q 143 24 239 149 q 97 -34 121 -6 q 48 -89 72 -62 q 1 -137 24 -115 q -40 -174 -22 -158 q -83 -203 -67 -194 q -115 -211 -100 -211 q -143 -199 -131 -211 q -156 -169 -156 -186 q -142 -130 -156 -150 q -87 -72 -128 -110 q -72 -56 -79 -64 q -55 -37 -64 -47 q -34 -12 -46 -26 q -7 21 -22 1 q 83 143 43 85 q 156 258 124 201 q 216 375 189 315 q 268 501 243 435 q 331 715 306 603 q 371 946 357 828 q 376 989 374 972 q 380 1017 378 1006 q 384 1034 382 1028 q 389 1047 386 1040 q 429 1081 403 1081 q 454 1072 442 1081 q 472 1050 467 1064 q 481 1016 479 1038 q 483 957 483 994 z "},"*":{"ha":401,"x_min":231,"x_max":568,"o":"m 382 851 q 409 919 397 903 q 440 936 421 936 q 465 926 454 936 q 475 904 475 917 q 453 846 475 886 q 524 881 504 881 q 547 871 536 881 q 557 849 557 861 q 507 803 557 819 l 483 794 q 507 796 499 796 q 524 796 517 796 q 568 765 568 796 q 555 736 568 747 q 521 725 542 725 q 504 726 514 725 q 479 732 494 728 q 505 703 499 714 q 511 682 511 693 q 499 658 511 668 q 472 647 488 647 q 444 658 457 647 q 411 697 431 669 l 404 667 q 358 611 392 611 q 335 620 344 611 q 326 643 326 629 q 328 657 326 649 q 336 685 329 665 q 340 700 338 689 q 276 650 300 650 q 253 661 263 650 q 243 689 243 672 q 303 746 243 715 l 288 746 q 243 753 256 747 q 231 776 231 760 q 242 803 231 793 q 274 813 254 813 q 288 812 278 813 q 308 810 297 811 q 315 809 311 810 q 324 808 318 808 l 314 818 q 290 844 296 836 q 285 864 285 853 q 296 890 285 879 q 322 900 307 900 q 348 891 338 900 q 382 851 358 882 z "},"+":{"ha":556,"x_min":46,"x_max":510,"o":"m 500 10 l 500 917 l 56 917 l 56 10 l 500 10 m 46 926 l 510 926 l 510 0 l 46 0 l 46 926 z "},",":{"ha":388,"x_min":-107,"x_max":142,"o":"m -107 -69 q -99 -37 -107 -51 q -67 -3 -90 -24 q -27 42 -47 17 q 4 88 -7 68 l 29 136 q 85 172 47 172 q 126 156 110 172 q 142 114 142 140 q 134 76 142 97 q 114 30 126 54 q 84 -18 101 6 q 46 -62 67 -42 q -56 -119 -11 -119 q -92 -105 -76 -119 q -107 -69 -107 -90 z "},"-":{"ha":633,"x_min":111,"x_max":485,"o":"m 485 243 q 469 203 485 219 q 431 188 454 188 q 413 189 424 188 q 388 193 401 190 q 286 197 351 197 q 240 197 260 197 q 204 194 219 196 q 160 190 176 190 q 125 203 139 190 q 111 236 111 217 q 158 295 111 276 q 307 314 206 314 q 485 243 485 314 z "},".":{"ha":388,"x_min":-10,"x_max":138,"o":"m -10 60 q -1 101 -10 81 q 20 138 7 122 q 50 163 33 153 q 85 172 67 172 q 123 156 108 172 q 138 114 138 139 q 129 72 138 93 q 108 35 121 51 q 78 8 94 18 q 43 -1 61 -1 q 5 15 19 -1 q -10 60 -10 32 z "},"/":{"ha":554,"x_min":-75,"x_max":711,"o":"m 671 936 q 699 924 686 936 q 711 896 711 911 q 706 874 711 883 q 681 843 700 864 q 672 833 679 842 q 654 813 665 825 q 644 801 650 808 q 625 779 639 794 q 615 768 619 774 q 604 757 610 763 q 560 708 585 736 q 506 645 535 679 q 445 574 476 611 q 385 500 414 536 q 349 456 365 476 q 315 413 333 436 q 276 360 297 389 q 225 288 256 331 q 154 188 183 229 q 103 113 125 146 q 65 52 81 79 q 33 -1 49 25 q -4 -56 10 -42 q -36 -69 -18 -69 q -63 -56 -51 -69 q -75 -28 -75 -43 q -68 1 -75 -14 q -42 49 -61 17 l -8 104 q 33 170 10 135 q 85 248 56 206 q 153 342 115 290 q 242 457 192 393 q 270 495 257 478 q 297 530 283 513 q 328 567 311 547 q 367 614 344 588 q 406 663 385 638 q 446 710 426 688 q 481 752 465 733 q 504 781 496 771 q 541 822 526 806 q 567 850 556 839 l 607 893 q 645 928 633 919 q 671 936 657 936 z "},":":{"ha":406,"x_min":-4,"x_max":264,"o":"m -4 58 q 4 99 -4 79 q 26 136 13 119 q 58 163 40 153 q 92 172 75 172 q 129 155 114 172 q 144 114 144 138 q 136 72 144 93 q 115 35 128 51 q 86 9 103 19 q 53 -1 69 -1 q 11 15 26 -1 q -4 58 -4 31 m 115 325 q 124 366 115 346 q 146 403 132 386 q 177 429 160 419 q 211 439 194 439 q 249 422 233 439 q 264 382 264 406 q 256 340 264 361 q 235 303 247 319 q 206 276 222 286 q 172 265 189 265 q 131 281 146 265 q 115 325 115 297 z "},";":{"ha":406,"x_min":-93,"x_max":239,"o":"m 92 325 q 100 366 92 346 q 122 403 108 386 q 152 429 135 419 q 188 439 169 439 q 224 422 208 439 q 239 381 239 404 q 231 339 239 360 q 210 302 222 318 q 181 276 197 286 q 147 265 164 265 q 106 281 121 265 q 92 325 92 297 m -93 -49 q -85 -19 -93 -31 q -53 17 -78 -7 q -35 35 -44 24 q -15 60 -25 47 q 5 86 -4 74 q 18 108 14 99 l 44 157 q 68 183 53 174 q 100 193 83 193 q 140 176 124 193 q 156 135 156 160 q 128 49 156 99 q 58 -43 101 0 q -43 -99 0 -99 q -78 -84 -62 -99 q -93 -49 -93 -69 z "},"<":{"ha":708,"x_min":-74,"x_max":842,"o":"m 142 207 q 47 113 47 160 q 75 85 47 85 q 103 93 89 85 q 128 114 117 101 q 147 142 139 126 q 154 172 154 157 q 142 207 154 186 m 586 513 q 549 459 565 483 q 517 410 532 435 q 490 360 503 386 q 464 304 478 335 q 442 245 449 268 q 435 207 435 222 q 464 171 435 171 q 524 201 489 171 q 618 306 560 232 q 644 329 633 322 q 665 336 654 336 q 690 326 681 336 q 700 303 700 317 q 633 183 700 265 q 521 78 578 115 q 415 40 464 40 q 341 71 368 40 q 314 154 314 101 q 325 236 314 192 q 358 324 336 281 l 347 315 q 319 299 331 306 q 299 288 307 293 l 243 258 q 242 258 243 258 q 238 254 240 257 q 258 182 258 218 q 242 106 258 142 q 197 42 225 69 q 131 -1 168 15 q 51 -18 93 -18 q -37 15 -1 -18 q -74 97 -74 49 q -38 192 -74 150 q 79 276 -3 233 q 43 336 54 310 q 32 388 32 363 q 47 447 32 418 q 85 497 61 475 q 141 531 110 518 q 207 543 172 543 q 285 521 254 543 q 315 464 315 499 q 301 430 315 444 q 269 415 288 415 q 263 416 267 415 q 251 418 258 417 q 224 426 233 424 q 206 428 214 428 q 167 415 182 428 q 153 382 153 401 q 182 328 153 356 q 328 408 257 363 q 447 497 399 453 q 417 494 426 494 q 400 493 408 493 q 352 508 371 493 q 333 546 333 522 q 351 590 333 569 q 389 611 369 611 q 415 607 394 611 q 436 606 422 606 q 475 608 456 606 q 522 618 494 611 l 528 626 q 602 728 569 686 q 660 797 635 771 q 706 835 686 824 q 742 847 725 847 q 776 834 761 847 q 790 803 790 821 q 750 729 790 778 l 708 681 q 704 674 707 679 q 696 663 701 669 q 747 674 732 671 q 779 676 763 676 q 824 662 807 676 q 842 624 842 647 q 820 578 842 593 q 751 556 799 563 q 668 543 703 550 q 597 525 633 536 l 586 513 z "},"=":{"ha":556,"x_min":46,"x_max":510,"o":"m 500 10 l 500 917 l 56 917 l 56 10 l 500 10 m 46 926 l 510 926 l 510 0 l 46 0 l 46 926 z "},">":{"ha":726,"x_min":-53,"x_max":790,"o":"m 547 564 q 538 565 542 564 q 531 565 533 565 q 520 565 526 565 q 503 564 514 564 l 494 564 q 485 548 489 556 q 471 524 481 540 q 451 487 457 497 q 439 460 446 476 q 471 489 458 476 q 500 518 483 501 q 527 545 519 538 q 547 564 535 553 m 632 667 q 658 722 656 696 q 655 733 660 728 q 644 739 650 739 q 622 729 636 739 q 597 704 608 719 l 572 675 q 567 667 572 675 l 632 667 m 378 553 q 232 522 314 544 l 222 507 q 188 450 203 475 q 163 403 174 425 q 141 362 151 382 q 121 319 131 342 q 90 244 101 276 q 79 196 79 211 q 103 171 79 171 q 146 192 117 171 q 232 271 175 214 q 244 301 238 286 q 260 332 251 315 q 278 370 268 349 q 304 421 289 392 q 328 466 318 447 q 346 500 338 485 q 362 528 354 515 q 378 553 369 540 m 658 564 q 622 526 639 542 q 578 483 606 510 q 492 408 546 454 q 379 311 439 361 l 374 306 q 367 290 369 296 q 358 268 364 283 l 354 257 q 526 383 432 325 q 599 426 575 415 q 642 436 622 436 q 674 424 661 436 q 688 396 688 413 q 678 365 688 379 q 640 319 669 350 q 624 300 633 313 q 603 274 614 288 q 581 247 592 261 q 563 224 571 233 q 534 177 546 200 q 522 143 522 154 q 527 131 522 136 q 539 125 532 125 q 570 137 550 125 q 608 167 590 149 q 644 207 625 183 q 692 271 663 231 q 732 300 713 300 q 757 288 746 300 q 768 261 768 276 q 737 185 768 233 q 657 88 706 136 q 567 22 615 46 q 475 -3 518 -3 q 415 22 439 -3 q 392 85 392 47 q 454 232 392 157 q 361 163 404 207 q 288 60 318 118 l 260 8 q 208 -31 240 -31 q 172 -14 186 -31 q 157 28 157 3 q 161 62 157 42 q 174 104 165 82 l 163 94 q 88 39 117 54 q 32 24 60 24 q -29 52 -6 24 q -53 125 -53 81 q 71 467 -53 244 l 82 488 q 69 483 74 483 l 56 479 l 32 469 q 6 465 19 465 q -26 478 -14 465 q -37 508 -37 490 q 1 563 -37 540 q 26 574 15 569 q 51 585 36 579 q 88 597 65 590 q 150 613 111 603 l 161 615 l 165 622 l 219 706 q 349 822 299 822 q 380 808 367 822 q 393 776 393 794 q 385 744 393 761 q 357 703 376 728 q 328 666 336 676 q 310 642 319 656 q 336 647 324 644 q 363 651 349 649 q 396 655 378 653 q 442 660 414 657 l 446 660 l 451 668 l 517 751 q 700 868 614 868 q 753 847 733 868 q 774 792 774 826 q 729 660 774 729 q 790 610 790 651 q 774 573 790 588 q 731 558 757 558 l 715 558 l 683 563 q 671 564 676 564 q 658 564 665 564 z "},"?":{"ha":668,"x_min":38,"x_max":753,"o":"m 186 108 q 178 68 186 88 q 158 33 171 49 q 130 8 146 17 q 97 -1 114 -1 q 54 15 71 -1 q 38 58 38 32 q 46 99 38 79 q 68 136 54 119 q 99 163 82 153 q 135 172 117 172 q 172 154 157 172 q 186 108 186 136 m 753 722 q 740 660 753 692 q 704 604 728 628 q 674 576 690 589 q 638 549 658 563 q 591 519 618 535 q 528 486 564 504 q 440 439 476 460 q 377 400 403 418 q 333 365 351 382 q 299 326 314 347 q 255 280 271 290 q 217 269 239 269 q 178 285 193 269 q 164 326 164 301 q 225 436 164 375 q 258 465 240 451 q 297 492 275 478 q 349 523 319 507 q 419 560 378 539 q 476 588 449 575 q 526 615 503 601 q 604 669 581 643 q 628 722 628 694 q 610 763 628 747 q 565 778 593 778 q 432 728 507 778 q 388 698 404 708 q 360 683 371 688 q 343 676 350 678 q 326 675 336 675 q 290 689 304 675 q 275 724 275 703 q 300 783 275 753 q 365 838 325 814 q 454 876 404 861 q 554 892 504 892 q 633 879 597 892 q 696 844 669 867 q 738 790 722 821 q 753 722 753 758 z "},"@":{"ha":556,"x_min":46,"x_max":510,"o":"m 500 10 l 500 917 l 56 917 l 56 10 l 500 10 m 46 926 l 510 926 l 510 0 l 46 0 l 46 926 z "},"A":{"ha":679,"x_min":-115,"x_max":674,"o":"m 500 707 q 438 641 469 676 q 375 568 406 606 q 317 494 344 531 q 268 426 289 458 q 410 465 335 449 l 417 467 l 419 475 l 453 578 l 493 688 q 496 695 494 690 q 500 707 497 700 m 525 364 q 508 296 515 335 q 494 216 500 257 q 484 135 488 175 q 481 64 481 96 q 481 49 481 56 q 482 35 481 42 q 483 14 483 24 q 483 1 483 6 q 467 -39 483 -24 q 425 -54 451 -54 q 367 -24 389 -54 q 346 57 346 6 q 349 119 346 85 q 357 190 351 153 q 370 266 363 228 q 386 339 378 304 q 344 329 367 335 q 282 313 322 324 q 215 293 243 301 q 169 278 186 285 q 133 224 154 257 q 92 155 113 192 q 53 83 71 118 q 24 22 35 47 q -12 -37 4 -22 q -53 -53 -28 -53 q -97 -35 -79 -53 q -115 10 -115 -17 q -103 59 -115 31 q -57 147 -92 88 q -33 189 -42 175 q -17 214 -24 203 q -24 213 -21 214 q -29 213 -26 213 q -67 226 -53 213 q -81 263 -81 239 q -74 291 -81 279 q -51 315 -68 303 q -5 338 -35 326 q 72 367 25 350 l 85 371 q 156 477 114 418 q 249 597 199 536 q 352 718 299 658 q 456 826 406 778 q 543 902 508 879 q 601 925 578 925 q 653 906 632 925 q 674 858 674 886 q 670 831 674 846 q 658 792 667 815 l 625 700 l 593 606 q 569 532 576 554 q 558 492 563 510 q 572 493 567 493 q 583 493 578 493 q 632 478 614 493 q 650 439 650 464 q 633 393 650 411 q 589 372 617 375 l 560 369 l 532 365 q 529 365 531 365 q 525 364 528 364 z "},"B":{"ha":625,"x_min":-65,"x_max":674,"o":"m 386 738 q 410 704 410 724 q 394 669 410 692 q 368 633 386 658 q 335 583 350 607 q 322 561 326 569 q 308 538 317 553 q 408 578 361 556 q 488 625 454 601 q 542 672 522 649 q 561 715 561 696 q 544 751 561 738 q 497 764 526 764 q 456 760 475 764 q 399 742 438 756 l 386 738 l 386 738 m 243 415 q 235 399 236 400 l 190 310 q 168 263 182 293 q 140 201 154 233 q 113 138 126 169 q 92 85 100 106 l 89 76 q 134 61 115 65 q 176 57 153 57 q 347 133 279 57 q 398 216 379 169 q 417 308 417 263 q 393 374 417 349 q 333 400 369 400 q 308 397 319 400 l 286 389 q 271 385 279 385 q 243 415 247 385 m 424 464 q 510 397 479 444 q 540 282 540 349 q 512 153 540 214 q 435 45 483 92 q 324 -28 388 -1 q 190 -56 261 -56 q 54 -28 119 -56 q 37 -70 46 -60 q 10 -81 28 -81 q -43 -57 -21 -81 q -65 -1 -65 -33 q -42 103 -65 35 q 24 261 -18 171 q 74 363 47 311 q 128 463 100 414 q 140 483 135 475 q 150 501 144 492 q 164 524 156 511 q 188 561 172 538 q 219 612 204 588 q 251 663 235 636 l 271 693 l 258 686 q 215 664 228 669 q 189 658 201 658 q 156 673 169 658 q 142 710 142 688 q 158 749 142 731 q 210 789 174 768 q 357 853 279 829 q 497 876 435 876 q 625 833 576 876 q 674 718 674 789 q 656 640 674 678 q 606 570 639 603 q 527 510 574 538 q 424 464 481 482 z "},"C":{"ha":600,"x_min":-32,"x_max":679,"o":"m 525 310 q 496 229 525 282 q 425 124 467 176 q 288 0 361 44 q 149 -44 215 -44 q 75 -30 108 -44 q 18 12 42 -15 q -19 76 -6 39 q -32 160 -32 114 q 30 395 -32 264 q 207 664 92 526 q 558 913 414 913 q 647 878 614 913 q 679 786 679 844 q 652 661 679 728 q 578 536 625 594 q 524 483 549 500 q 476 467 500 467 q 433 484 450 467 q 415 528 415 501 q 425 565 415 550 q 465 603 435 579 q 545 686 514 639 q 576 769 576 733 q 567 792 576 783 q 547 801 558 801 q 507 786 532 801 q 451 744 482 771 q 384 681 419 718 q 314 600 349 643 q 229 483 268 543 q 163 365 190 422 q 121 255 136 307 q 106 163 106 203 q 127 96 106 122 q 183 69 149 69 q 304 132 239 69 q 370 203 338 164 q 421 269 403 242 l 442 303 q 492 344 465 344 q 515 335 506 344 q 525 310 525 325 z "},"D":{"ha":635,"x_min":-69,"x_max":686,"o":"m 317 700 q 325 678 325 693 q 324 667 325 672 q 318 651 322 661 q 305 624 314 642 q 281 578 296 607 q 263 543 274 564 q 239 497 251 522 q 213 444 226 472 q 186 389 199 415 q 131 268 153 322 q 90 154 110 214 q 81 121 83 131 q 78 103 78 111 q 104 74 78 74 q 149 89 121 74 q 212 131 178 104 q 283 195 246 158 q 357 275 321 232 q 440 383 403 328 q 505 491 478 439 q 547 590 532 543 q 561 671 561 636 q 536 738 561 711 q 472 764 511 764 q 317 700 406 764 m 179 646 q 143 703 143 660 q 164 754 143 729 q 229 807 185 779 q 350 863 288 843 q 472 882 413 882 q 558 867 519 882 q 626 824 597 851 q 670 759 654 797 q 686 675 686 721 q 665 550 686 618 q 604 410 643 482 q 512 267 565 338 q 394 133 458 196 q 210 -8 303 44 q 51 -61 118 -61 q -35 -32 -1 -61 q -69 44 -69 -3 q -63 94 -69 68 q -40 168 -57 119 q -20 224 -29 200 q -3 270 -11 249 q 15 313 6 292 q 36 361 24 335 q 105 508 68 435 q 174 636 142 582 l 179 646 l 179 646 z "},"E":{"ha":578,"x_min":-93,"x_max":740,"o":"m 257 726 q 235 775 235 749 q 308 835 235 815 q 484 870 390 857 q 653 883 578 883 q 740 822 740 883 q 722 777 740 796 q 676 758 703 758 q 667 759 674 758 q 654 761 661 760 q 643 761 650 761 q 628 763 636 761 l 586 763 q 531 760 561 763 q 469 752 500 757 q 409 740 438 747 q 360 726 381 733 q 372 703 372 718 q 366 679 372 692 q 333 632 360 667 q 293 570 313 601 q 260 513 274 539 q 422 536 343 536 q 483 521 461 536 q 506 478 506 506 q 433 418 506 418 l 415 418 q 294 411 344 418 q 194 389 243 404 q 160 326 178 361 q 125 253 142 290 q 94 179 108 215 q 71 117 79 143 q 218 169 156 153 q 340 185 281 185 q 406 168 382 185 q 429 121 429 151 q 354 63 429 64 q 187 40 264 60 q 22 -25 110 19 q 2 -35 10 -32 q -14 -37 -6 -37 q -69 -18 -46 -37 q -93 29 -93 1 q -64 143 -93 64 q 14 318 -35 222 q 89 458 44 381 q 189 626 133 535 q 226 684 210 660 q 257 726 243 708 z "},"F":{"ha":579,"x_min":-93,"x_max":750,"o":"m 242 704 q 218 744 218 724 q 243 790 218 772 q 326 824 268 808 q 405 842 361 833 q 492 858 449 851 q 577 868 536 864 q 647 872 618 872 q 723 857 696 872 q 750 814 750 842 q 731 769 750 790 q 692 749 713 749 q 681 749 688 749 q 668 751 675 750 q 649 756 657 754 q 631 757 642 757 q 536 747 594 757 q 408 721 478 738 l 397 718 q 333 631 371 688 q 258 508 294 574 q 339 523 292 517 q 419 529 386 529 q 497 478 497 529 q 483 432 497 451 q 449 413 468 413 q 439 413 444 413 q 426 414 433 413 q 401 415 419 415 q 296 405 356 415 q 188 379 236 394 l 181 367 q 99 197 136 281 q 43 50 63 113 q 27 4 33 21 q 15 -22 21 -12 q 3 -33 10 -31 q -12 -35 -3 -35 q -69 -12 -44 -35 q -93 42 -93 11 q -83 99 -93 65 q -50 185 -74 132 q 13 323 -19 258 q 86 458 44 388 q 124 523 104 489 q 164 588 144 557 q 202 647 183 619 q 235 694 221 675 l 242 704 l 242 704 z "},"G":{"ha":617,"x_min":-14,"x_max":714,"o":"m 307 124 q 272 94 285 104 q 247 78 260 85 q 193 56 224 64 q 139 47 163 47 q 29 96 72 47 q -14 219 -14 144 q 6 329 -14 268 q 63 457 26 390 q 150 591 100 524 q 261 721 200 658 q 310 767 283 743 q 363 811 336 790 q 414 850 389 832 q 460 879 439 868 q 582 914 522 914 q 677 876 640 914 q 714 778 714 839 q 679 642 714 713 q 582 513 644 572 q 517 462 549 481 q 461 443 485 443 q 423 458 439 443 q 407 494 407 474 q 416 524 407 511 q 451 561 425 538 q 567 686 526 629 q 607 782 607 743 q 581 813 607 813 q 528 792 561 813 q 456 736 496 771 q 372 654 415 701 q 288 556 328 607 q 170 371 213 457 q 128 231 128 285 q 143 183 128 201 q 185 165 158 165 q 215 169 200 165 q 249 186 229 174 q 295 220 268 199 q 363 276 322 242 q 408 314 390 300 q 437 335 425 328 q 458 346 449 343 q 476 349 467 349 q 517 333 500 349 q 535 296 535 318 q 531 272 535 282 q 513 238 528 261 l 486 193 l 453 142 q 352 -40 394 50 q 288 -203 310 -129 q 276 -240 281 -226 q 269 -262 272 -253 q 262 -276 265 -271 q 253 -287 258 -282 q 201 -312 232 -312 q 157 -293 174 -312 q 140 -243 140 -274 q 172 -122 140 -200 q 257 42 204 -44 l 296 104 q 300 111 297 106 q 307 124 303 117 z "},"H":{"ha":671,"x_min":-51,"x_max":814,"o":"m 567 414 q 478 217 517 315 q 421 36 440 119 q 413 3 415 13 q 406 -12 410 -6 q 350 -51 386 -51 q 303 -31 322 -51 q 285 21 285 -11 q 288 53 285 36 q 297 92 290 69 q 315 147 303 115 q 346 226 326 179 q 385 323 367 283 q 428 403 404 363 q 376 389 406 397 q 315 370 346 381 q 254 349 283 360 q 204 329 225 339 l 199 317 q 130 166 158 238 q 82 19 101 94 l 72 -21 q 22 -67 58 -67 q -30 -43 -8 -67 q -51 13 -51 -19 q -47 50 -51 31 q -33 100 -43 69 q -10 167 -24 132 q 15 228 3 201 l 32 265 q 36 274 33 265 l 25 274 q -15 288 0 274 q -31 325 -31 301 q -22 357 -31 342 q 3 382 -12 372 q 31 395 14 389 q 89 413 49 401 l 104 417 q 138 478 119 447 q 183 558 156 510 q 249 669 222 624 q 293 748 275 714 q 323 808 311 782 q 344 860 335 833 q 380 926 361 908 q 429 944 399 944 q 469 927 453 944 q 485 882 485 910 q 461 799 485 854 q 394 674 438 744 l 332 572 q 311 538 324 558 q 282 488 299 517 l 275 474 l 288 479 q 493 536 408 522 q 523 590 507 563 q 568 667 539 618 l 650 803 q 685 860 671 838 q 713 894 700 882 q 735 912 725 907 q 758 917 746 917 q 797 897 781 917 q 814 850 814 878 q 789 785 814 824 l 746 721 q 707 660 731 699 q 664 593 683 622 q 652 573 657 581 q 640 551 647 565 q 704 499 704 547 q 697 468 704 483 q 679 443 690 453 q 653 431 668 433 q 608 428 639 428 l 574 428 l 567 414 z "},"I":{"ha":297,"x_min":-74,"x_max":474,"o":"m 474 818 q 438 751 474 799 q 393 692 418 728 q 325 592 368 656 q 201 389 253 482 q 115 215 149 296 q 96 166 106 192 q 77 116 86 140 q 62 71 68 92 q 51 36 56 50 q 30 -12 43 1 q -7 -26 17 -26 q -54 -5 -35 -26 q -74 47 -74 17 q -62 116 -74 75 q -25 219 -50 157 q 41 362 4 290 q 135 528 78 433 q 240 692 188 615 q 332 817 292 768 q 378 863 360 850 q 418 875 397 875 q 457 858 440 875 q 474 818 474 842 z "},"J":{"ha":715,"x_min":-51,"x_max":896,"o":"m 714 774 q 679 685 699 732 q 631 574 660 638 q 593 492 611 529 q 558 422 575 456 q 521 353 540 388 q 478 281 501 319 q 360 114 414 176 q 250 17 307 51 q 181 -15 218 -3 q 111 -26 143 -26 q -8 24 36 -26 q -51 158 -51 74 q -18 317 -51 238 q 81 472 15 397 q 146 531 114 510 q 201 553 178 553 q 230 542 218 553 q 242 517 242 532 q 237 497 242 506 q 219 474 232 489 q 124 329 157 401 q 90 192 90 257 q 108 129 90 153 q 153 106 125 106 q 243 160 197 106 q 348 306 293 218 q 457 506 403 394 q 519 640 492 578 q 565 757 546 701 q 548 754 554 756 q 526 750 542 753 q 513 746 519 747 q 488 738 507 744 q 456 729 454 729 l 401 710 q 385 706 393 707 q 372 704 378 704 q 340 720 353 704 q 326 757 326 736 q 347 804 326 785 q 417 839 368 824 q 754 893 585 893 q 865 880 835 893 q 896 831 896 867 q 876 787 896 803 q 824 771 856 771 q 803 771 815 771 q 779 772 792 771 q 753 774 764 774 q 733 774 743 774 l 714 774 l 714 774 z "},"K":{"ha":658,"x_min":-97,"x_max":811,"o":"m 388 499 q 374 439 379 463 q 366 397 369 415 q 360 364 363 379 q 354 329 357 349 q 341 235 346 276 q 336 167 336 193 q 368 113 336 113 q 412 138 388 113 q 481 229 436 164 q 510 268 500 258 q 533 278 521 278 q 555 267 546 278 q 564 243 564 257 q 539 169 564 218 q 476 74 514 121 q 400 4 440 29 q 324 -21 360 -21 q 238 19 268 -21 q 207 129 207 58 q 212 203 207 160 q 225 296 217 247 q 244 394 233 344 q 267 485 254 443 q 253 465 260 475 q 240 444 247 456 q 224 415 233 432 q 200 375 214 399 q 159 306 175 333 q 132 257 143 278 q 112 218 121 236 q 92 176 103 200 q 58 94 71 129 q 36 21 44 58 q 10 -40 25 -24 q -32 -57 -4 -57 q -78 -35 -60 -57 q -97 18 -97 -14 q -84 92 -97 50 q -43 193 -71 135 q -10 258 -28 224 q 29 328 8 292 q 49 361 40 347 q 78 407 57 375 q 103 449 90 428 q 129 489 117 469 l 139 506 q 272 739 232 653 q 288 769 279 750 q 307 815 296 789 q 314 834 311 826 q 319 847 317 842 q 349 900 335 886 q 388 914 363 914 q 429 898 413 914 q 446 858 446 882 q 442 827 446 846 q 430 786 438 808 q 412 741 422 764 q 390 697 401 718 l 346 617 q 342 610 343 613 q 338 601 340 607 q 378 631 358 618 q 429 667 397 644 q 492 708 464 690 q 544 741 519 726 q 593 767 569 756 q 643 792 617 779 q 747 822 710 822 q 793 805 775 822 q 811 761 811 788 q 795 718 811 733 q 738 689 779 703 q 635 651 694 676 q 524 597 576 625 q 452 556 483 576 q 390 513 421 536 l 388 499 z "},"L":{"ha":468,"x_min":-87,"x_max":519,"o":"m 69 108 q 108 124 90 118 q 158 142 126 131 q 227 160 200 154 q 278 165 254 165 q 341 151 318 165 q 364 110 364 136 q 335 47 364 72 q 318 35 328 40 q 303 29 308 29 l 243 32 q 221 29 239 32 q 188 22 203 26 q 147 12 167 18 q 104 -4 128 6 l 26 -37 q -11 -46 7 -46 q -65 -21 -42 -46 q -87 38 -87 4 q -11 249 -87 92 q 58 378 18 308 q 142 517 97 447 q 234 650 188 586 q 324 764 281 714 q 369 815 350 794 q 405 849 389 836 q 434 866 421 861 q 460 871 447 871 q 502 855 485 871 q 519 815 519 839 q 515 792 519 803 q 497 767 511 782 l 471 735 q 411 663 438 694 q 362 601 385 631 q 316 538 339 571 q 264 463 293 504 q 218 392 239 425 q 179 328 197 360 q 144 264 161 297 q 108 193 126 231 q 85 145 93 161 q 69 108 78 129 z "},"M":{"ha":788,"x_min":-125,"x_max":940,"o":"m 393 392 l 444 468 q 535 597 493 540 q 624 713 576 654 q 719 830 681 785 q 786 901 758 875 q 833 938 814 928 q 871 947 853 947 q 920 924 900 947 q 940 869 940 901 q 933 828 940 850 q 903 771 925 807 q 831 644 861 700 q 776 539 800 588 q 731 444 751 490 q 690 347 711 399 q 625 96 625 183 l 625 67 q 627 51 626 58 q 628 42 628 44 q 606 -15 628 10 q 551 -39 583 -39 q 495 -10 515 -39 q 475 67 475 18 q 481 124 475 90 q 497 196 486 157 q 522 278 507 235 q 556 363 538 321 q 629 517 589 442 q 714 664 669 593 q 688 635 700 649 q 662 603 676 622 q 627 556 647 583 q 576 488 607 529 q 556 458 565 471 q 538 431 547 446 q 515 397 528 417 q 482 347 503 378 q 441 285 454 307 q 419 249 428 264 q 391 202 401 217 q 369 179 381 188 q 321 160 346 160 q 266 188 286 160 q 246 263 246 215 q 279 438 246 336 q 369 642 313 539 q 284 527 324 583 q 211 414 244 471 q 172 342 193 383 q 129 258 150 301 q 90 174 108 215 q 60 104 72 133 l 42 54 q -7 -20 22 6 q -72 -46 -36 -46 q -110 -33 -96 -46 q -125 1 -125 -19 q -120 32 -125 15 q -100 81 -115 49 l -53 182 q -10 267 -35 221 q 42 360 14 313 q 100 457 69 408 q 161 550 131 506 q 223 638 190 593 q 289 724 256 682 q 354 801 322 765 q 413 865 386 838 q 473 918 450 904 q 521 932 496 932 q 574 911 551 932 q 597 861 597 890 q 590 830 597 847 q 564 782 583 813 q 501 672 529 724 q 452 572 474 621 q 413 474 431 522 q 379 374 394 426 l 393 392 z "},"N":{"ha":715,"x_min":-87,"x_max":897,"o":"m 410 196 q 441 279 422 233 q 494 399 460 325 q 544 501 521 454 q 589 591 567 549 q 633 673 611 633 q 681 754 656 713 q 735 840 713 807 q 776 893 758 874 q 809 919 793 913 q 842 926 825 926 q 881 912 865 926 q 897 876 897 897 q 892 847 897 861 q 867 804 886 832 q 810 718 844 772 q 735 590 776 664 q 613 362 672 485 q 507 118 554 239 q 486 67 494 88 q 472 33 478 47 q 460 11 465 19 q 449 -6 454 3 q 383 -40 422 -40 q 313 9 335 -40 q 292 167 292 58 q 294 255 292 207 q 303 351 297 303 q 316 447 308 400 q 332 532 324 493 l 350 617 q 354 633 350 618 l 346 619 l 285 524 q 209 392 244 458 q 139 251 174 326 q 116 199 126 222 q 97 153 106 176 q 79 106 88 131 q 61 51 71 82 q 25 -28 42 -8 q -22 -49 8 -49 q -69 -31 -50 -49 q -87 15 -87 -12 q -79 67 -87 36 q -53 143 -71 97 q -9 249 -32 197 q 40 351 14 300 q 94 454 65 403 q 158 563 124 506 q 215 649 183 604 q 277 735 246 694 q 336 809 308 776 q 383 858 364 842 q 471 901 435 901 q 514 886 497 901 q 531 847 531 871 q 530 833 531 840 q 527 817 529 826 q 520 793 525 808 q 508 754 515 778 q 453 525 486 688 q 435 430 442 472 q 422 349 428 388 q 414 273 417 310 q 410 196 411 236 z "},"O":{"ha":651,"x_min":-51,"x_max":703,"o":"m 432 756 q 439 735 439 744 q 433 715 439 725 q 413 689 428 706 q 380 652 399 674 q 340 606 361 631 q 298 552 319 581 q 256 497 276 524 q 176 381 207 433 q 122 267 146 328 q 101 201 108 231 q 93 151 93 172 q 108 101 93 119 q 146 83 122 83 q 242 131 182 83 q 371 267 301 179 q 513 482 463 382 q 563 651 563 582 q 536 731 563 700 q 467 763 510 763 q 451 760 458 763 q 432 756 443 758 m 282 717 q 262 711 269 713 q 247 710 254 710 q 212 724 226 710 q 197 761 197 739 q 219 811 197 788 q 276 853 240 835 q 359 883 313 872 q 456 894 406 894 q 643 826 579 894 q 687 756 671 796 q 703 674 703 717 q 683 549 703 617 q 626 410 663 482 q 538 267 589 339 q 425 129 488 194 q 258 -9 340 39 q 110 -57 176 -57 q -7 -8 38 -57 q -51 121 -51 42 q -8 307 -51 203 q 113 519 35 411 q 142 558 125 536 q 177 603 158 581 q 214 646 196 625 q 247 682 232 667 q 265 700 258 693 q 282 717 271 707 z "},"P":{"ha":617,"x_min":-60,"x_max":704,"o":"m 235 414 q 251 413 246 413 q 265 413 258 413 q 351 427 306 413 q 438 468 397 442 q 551 569 508 513 q 593 675 593 626 q 569 731 593 710 q 506 751 546 751 q 440 739 478 751 q 367 706 403 726 q 356 679 361 692 q 340 643 351 667 q 335 630 338 636 q 328 615 332 624 q 320 595 325 607 q 307 567 315 583 q 288 524 293 535 q 279 507 282 513 l 242 429 q 240 425 242 429 q 235 414 238 421 m 178 285 q 149 225 164 257 q 122 160 135 193 q 97 97 108 128 q 78 39 86 65 l 65 -6 q 7 -57 51 -57 q -40 -36 -21 -57 q -60 17 -60 -15 q -57 45 -60 31 q -48 81 -54 60 q -31 131 -42 101 q -3 201 -19 160 q 27 270 13 239 q 60 333 42 301 q 25 392 25 363 q 44 435 25 417 q 89 454 64 454 q 101 453 96 454 q 118 449 107 451 q 126 464 124 458 q 131 472 129 469 l 167 544 q 182 574 174 556 q 201 617 190 593 l 208 635 q 161 681 161 638 q 267 790 161 736 q 283 840 275 821 q 299 872 290 860 q 317 888 307 883 q 340 892 326 892 q 394 846 386 892 q 513 869 461 869 q 652 819 600 869 q 704 683 704 769 q 665 537 704 608 q 560 410 625 465 q 411 321 494 354 q 239 288 328 288 q 209 288 222 288 q 181 292 196 289 l 178 285 z "},"Q":{"ha":653,"x_min":-42,"x_max":713,"o":"m 211 128 q 183 193 200 176 q 129 210 167 210 q 118 210 124 210 q 107 207 114 210 q 103 190 104 196 q 103 175 103 183 q 117 128 103 144 q 157 111 132 111 q 183 115 171 111 q 211 128 194 118 m 311 215 q 380 290 339 239 q 468 413 421 340 q 546 561 521 496 q 571 683 571 626 q 543 763 571 733 q 467 793 515 793 q 451 792 457 793 q 435 789 444 792 q 446 761 446 776 q 440 738 446 749 q 407 699 433 728 l 343 625 q 276 542 310 586 q 215 456 243 499 q 167 375 188 414 q 138 308 147 336 q 167 318 154 315 q 194 321 179 321 q 263 296 235 321 q 311 215 292 271 m 347 79 q 402 -53 365 -7 q 492 -99 439 -99 q 519 -95 507 -99 q 549 -82 531 -92 q 582 -71 569 -71 q 614 -85 601 -71 q 626 -119 626 -99 q 612 -162 626 -142 q 573 -199 597 -183 q 517 -225 549 -215 q 453 -235 486 -235 q 322 -181 371 -235 q 244 -10 272 -128 l 240 4 q 115 -31 188 -31 q 1 17 44 -31 q -42 146 -42 65 q -11 302 -42 217 q 81 482 19 388 q 131 556 103 518 q 187 630 158 594 q 242 694 215 665 q 292 743 269 724 q 260 738 271 738 q 225 751 239 738 q 211 785 211 764 q 233 834 211 810 q 292 877 256 858 q 374 908 328 896 q 468 919 419 919 q 569 903 524 919 q 646 858 614 888 q 695 788 678 829 q 713 696 713 746 q 685 545 713 622 q 600 376 658 468 q 488 224 550 296 q 354 86 426 151 l 347 79 l 347 79 z "},"R":{"ha":603,"x_min":-93,"x_max":710,"o":"m 397 738 q 361 664 378 697 q 328 599 344 631 q 296 538 313 568 q 260 472 279 507 l 254 461 q 262 460 258 461 q 267 460 265 460 q 388 483 329 460 q 500 549 447 506 q 569 623 544 585 q 593 694 593 661 q 567 747 593 726 q 501 768 542 768 q 403 749 453 768 l 397 738 m 236 335 q 265 270 249 304 q 299 203 282 236 q 333 140 317 169 q 363 92 350 111 q 383 60 375 72 q 396 39 392 47 q 401 25 400 31 q 403 13 403 19 q 384 -28 403 -11 q 342 -44 365 -44 q 240 43 288 -44 q 187 151 214 92 q 140 260 160 211 q 136 249 138 253 q 135 244 135 246 l 96 165 q 73 113 83 138 q 56 69 63 89 l 33 8 q -33 -47 13 -47 q -76 -28 -58 -47 q -93 18 -93 -10 q -86 63 -93 39 q -62 128 -79 88 q -27 204 -49 160 q 13 281 -6 249 l 68 376 l 76 392 q 64 424 67 413 q 61 446 61 435 q 76 482 61 468 q 111 496 90 496 q 122 495 118 496 q 133 492 126 494 l 139 503 l 189 590 q 197 603 192 593 q 217 642 201 614 l 226 660 l 235 676 l 242 690 q 231 687 235 688 q 222 686 228 686 q 188 699 201 686 q 175 732 175 711 q 307 849 175 803 q 372 917 329 917 q 424 879 407 917 q 515 888 474 888 q 593 874 557 888 q 655 836 629 860 q 695 779 681 813 q 710 707 710 746 q 692 609 710 657 q 641 519 674 561 q 562 441 608 476 q 458 382 515 406 q 351 347 407 358 q 243 335 294 335 l 236 335 l 236 335 z "},"S":{"ha":522,"x_min":-107,"x_max":647,"o":"m 408 176 q 386 87 408 128 q 324 16 364 46 q 231 -31 285 -14 q 115 -49 178 -49 q 26 -36 67 -49 q -44 -1 -15 -24 q -90 54 -74 22 q -107 124 -107 86 q -92 190 -107 158 q -53 244 -78 221 q 6 282 -28 268 q 76 296 39 296 q 127 280 108 296 q 146 239 146 264 q 136 209 146 222 q 110 193 126 196 l 93 190 q 49 165 67 183 q 31 125 31 147 q 56 81 31 97 q 122 65 81 65 q 182 74 154 65 q 231 97 210 82 q 264 132 251 113 q 276 175 276 151 q 253 249 276 207 q 242 267 249 257 q 217 303 235 278 q 199 328 208 315 q 182 354 190 340 q 124 453 142 413 q 107 533 107 493 q 145 666 107 601 q 254 786 183 731 q 388 863 318 835 q 517 890 458 890 q 610 855 574 890 q 647 764 647 819 q 616 658 647 713 q 525 551 585 604 q 434 488 479 511 q 358 464 389 464 q 315 481 333 464 q 296 524 296 499 q 306 553 296 539 q 333 574 317 567 l 369 589 q 426 621 399 601 q 474 661 453 640 q 509 703 496 682 q 522 740 522 724 q 486 775 522 775 q 409 751 454 775 q 324 690 364 726 q 262 613 283 653 q 240 535 240 572 q 253 471 240 501 q 301 392 267 440 q 333 347 321 364 q 354 317 346 329 q 367 297 363 306 q 376 281 372 289 q 408 176 408 225 z "},"T":{"ha":643,"x_min":22,"x_max":842,"o":"m 483 742 q 494 715 494 729 q 492 698 494 706 q 479 676 489 690 q 470 663 476 674 q 453 635 464 651 l 385 521 q 318 401 351 464 q 257 279 285 338 q 230 217 244 250 q 203 151 215 183 q 180 90 190 118 q 164 43 169 61 l 150 -7 q 93 -62 133 -62 q 43 -39 64 -62 q 22 17 22 -15 q 31 70 22 36 q 56 148 40 104 q 94 242 72 192 q 143 344 117 293 q 247 532 188 431 q 367 722 306 633 q 274 702 326 715 q 182 676 222 689 q 162 671 171 672 q 146 669 153 669 q 113 684 126 669 q 99 719 99 699 q 127 772 99 751 q 228 811 156 792 q 301 831 267 822 q 368 845 335 839 q 437 857 401 851 q 513 868 472 863 q 634 879 576 875 q 738 883 692 883 q 842 822 842 883 q 756 763 842 767 q 681 758 722 761 q 596 753 639 756 q 535 748 558 750 q 483 742 511 746 z "},"U":{"ha":713,"x_min":-51,"x_max":857,"o":"m 513 422 q 501 408 506 414 q 496 401 497 403 l 417 293 q 385 250 403 274 q 349 201 368 226 q 310 152 329 176 q 274 108 290 128 q 209 34 238 64 q 157 -13 181 4 q 111 -38 133 -31 q 67 -46 89 -46 q -19 -8 14 -46 q -51 93 -51 31 q -22 258 -51 169 q 74 458 8 346 q 194 640 129 554 q 350 822 260 726 q 390 863 374 847 q 419 888 407 879 q 442 901 432 897 q 463 904 451 904 q 501 889 485 904 q 518 851 518 874 q 501 807 518 829 q 494 797 499 801 q 471 772 490 793 q 455 754 464 764 q 439 738 446 744 q 406 699 426 724 q 363 647 386 675 q 318 592 340 619 q 281 543 296 564 q 207 433 242 490 q 146 322 172 376 q 104 223 119 268 q 89 149 89 178 q 96 124 89 133 q 114 114 103 114 q 149 131 129 114 q 206 196 168 149 l 282 290 l 376 407 l 482 538 l 604 690 q 686 785 646 740 q 747 850 726 831 q 804 876 775 876 q 842 863 828 876 q 857 828 857 849 q 850 795 857 811 q 824 749 843 779 q 784 685 806 721 q 742 613 763 650 q 701 540 721 576 q 667 475 682 504 q 590 312 621 386 q 539 165 560 238 q 517 80 526 121 q 506 13 508 39 q 492 -40 503 -26 q 454 -54 481 -54 q 399 -30 421 -54 q 376 31 376 -6 q 381 78 376 54 q 400 146 386 103 q 513 422 447 297 z "},"V":{"ha":561,"x_min":32,"x_max":760,"o":"m 163 136 q 202 216 181 174 q 264 329 224 258 q 328 442 299 392 q 386 537 358 492 q 442 623 414 582 q 500 708 469 664 q 573 808 542 768 q 628 872 604 847 q 669 906 651 896 q 706 915 688 915 q 744 901 729 915 q 760 865 760 886 q 758 849 760 857 q 749 829 756 842 q 727 797 742 817 q 688 746 713 778 q 633 670 664 714 q 569 577 603 626 q 503 478 536 528 q 444 385 471 428 q 394 300 418 342 q 335 197 369 258 q 298 132 315 164 q 271 83 281 100 l 242 28 q 191 -43 214 -22 q 140 -64 168 -64 q 60 -12 89 -64 q 32 133 32 39 q 43 276 32 192 q 74 439 54 360 q 106 560 88 497 q 146 679 125 622 q 189 785 167 736 q 231 868 211 835 q 272 922 253 906 q 315 938 292 938 q 353 922 339 938 q 368 883 368 907 q 362 850 368 868 q 338 794 356 832 q 309 731 325 769 q 276 647 293 692 q 244 555 260 603 q 217 463 229 507 q 176 288 189 368 q 163 136 163 208 z "},"W":{"ha":789,"x_min":-18,"x_max":1007,"o":"m 364 322 q 346 294 353 307 q 321 249 339 282 q 301 213 313 233 q 276 170 289 192 q 249 126 263 149 q 225 88 236 104 q 140 -26 174 6 q 69 -58 106 -58 q 6 -27 29 -58 q -18 57 -18 4 q 106 494 -18 201 l 165 639 q 203 734 189 693 q 228 811 217 775 q 237 843 233 831 q 244 864 240 856 q 251 878 247 872 q 258 892 254 885 q 315 922 282 922 q 360 903 343 922 q 376 856 376 885 q 373 828 376 843 q 363 790 369 813 q 342 735 356 767 q 311 661 329 704 l 260 543 q 199 393 226 467 q 149 240 172 319 q 128 172 135 194 q 118 125 122 149 q 133 147 126 136 q 158 185 140 157 l 224 293 l 299 418 q 360 513 332 474 q 410 575 388 551 q 454 610 433 599 q 494 621 475 621 q 531 607 517 621 q 546 572 546 593 q 545 559 546 565 q 542 544 544 553 q 533 521 539 535 q 519 485 528 507 q 492 406 504 449 q 472 322 481 364 q 458 242 463 281 q 453 175 453 204 l 453 147 l 453 135 l 458 144 q 500 219 481 181 q 547 317 519 258 l 617 467 q 657 551 639 514 q 692 621 675 589 q 726 683 708 653 q 767 749 744 714 q 828 840 799 800 q 881 904 858 881 q 946 939 914 939 q 990 922 972 939 q 1007 878 1007 904 q 1002 849 1007 863 q 982 817 997 836 q 919 733 944 768 q 872 667 893 699 q 831 605 850 636 q 790 535 813 574 q 733 428 758 476 q 678 322 707 381 q 624 213 650 268 q 579 114 599 158 q 541 35 554 60 q 513 -7 528 11 q 438 -47 481 -47 q 359 -2 388 -47 q 331 124 331 43 q 338 222 331 176 q 364 322 346 268 z "},"X":{"ha":569,"x_min":-153,"x_max":778,"o":"m 251 376 q 176 296 211 335 q 109 218 142 257 q 44 137 76 179 q -21 47 13 94 q -55 11 -40 21 q -89 1 -69 1 q -135 19 -117 1 q -153 61 -153 36 q -151 80 -153 71 q -143 99 -149 89 q -128 124 -137 110 q -103 160 -118 139 q -18 268 -69 207 q 85 385 33 329 q 120 422 99 400 q 165 467 142 444 q 208 510 188 489 q 244 544 229 531 l 250 550 l 250 557 q 250 578 250 565 q 247 611 250 592 l 243 661 q 235 738 240 697 q 224 810 231 778 q 201 888 215 850 q 193 911 194 904 q 192 926 192 918 q 213 968 192 950 q 263 986 233 986 q 317 960 296 986 q 350 874 338 933 q 362 787 357 835 q 367 696 367 739 q 367 683 367 689 q 365 667 367 678 q 401 703 385 686 q 444 743 418 719 q 547 834 499 793 q 633 906 594 875 q 686 942 669 933 q 722 951 703 951 q 762 935 746 951 q 778 890 778 918 q 767 851 778 867 q 728 814 756 835 q 710 800 724 811 q 674 772 696 789 l 610 721 q 557 676 588 703 q 495 622 526 650 q 435 567 464 594 q 386 518 407 539 l 379 511 l 379 503 q 380 483 379 496 q 382 447 381 471 l 386 383 q 395 269 389 325 q 408 172 401 213 q 419 118 414 140 q 435 67 425 96 q 444 32 442 43 q 447 11 447 21 q 429 -34 447 -15 q 385 -53 411 -53 q 293 57 319 -53 q 282 119 288 79 q 272 205 276 158 q 265 299 268 251 q 261 386 261 347 l 251 376 z "},"Y":{"ha":628,"x_min":51,"x_max":836,"o":"m 390 415 q 263 303 326 343 q 150 264 200 264 q 78 297 106 264 q 51 382 51 331 q 69 483 51 428 q 121 594 88 538 q 201 708 154 651 q 306 818 247 765 q 403 897 365 874 q 471 921 442 921 q 512 903 494 921 q 529 861 529 885 q 526 841 529 850 q 515 822 524 832 q 491 800 507 813 q 450 769 475 788 q 324 660 382 722 q 226 528 267 597 q 197 469 207 496 q 186 426 186 442 q 214 399 186 399 q 261 417 233 399 q 339 479 289 435 q 384 522 363 500 q 433 572 406 543 q 491 637 461 603 q 542 697 521 671 l 646 824 q 694 881 674 858 q 729 917 714 904 q 756 936 744 931 q 779 942 768 942 q 819 922 803 942 q 836 876 836 903 q 811 819 836 849 l 758 760 q 714 707 739 739 q 663 640 689 675 q 613 571 638 606 q 572 510 589 536 q 530 440 553 481 q 485 358 507 400 q 444 277 464 317 q 411 208 424 238 q 399 181 406 196 q 381 133 393 165 q 368 100 375 118 q 355 64 361 82 q 343 31 349 46 q 335 10 338 17 q 300 -53 319 -35 q 253 -71 281 -71 q 206 -51 225 -71 q 188 -1 188 -31 q 201 64 188 25 q 247 167 215 103 q 274 218 261 193 q 303 270 288 243 q 336 328 318 297 q 378 397 354 358 l 390 415 l 390 415 z "},"Z":{"ha":551,"x_min":-125,"x_max":733,"o":"m 488 772 q 385 757 436 763 q 292 751 335 751 q 189 822 189 751 q 195 848 189 835 q 210 872 201 861 q 231 888 219 882 q 256 894 243 894 q 283 888 271 894 q 308 876 301 878 q 329 875 314 875 q 403 879 358 875 q 514 893 447 883 l 629 908 q 668 913 651 913 q 715 894 696 913 q 733 849 733 876 q 724 814 733 829 q 686 779 714 799 q 591 701 640 743 q 492 613 542 660 q 393 518 442 567 q 301 422 344 469 q 152 251 213 326 q 51 107 92 175 l 65 114 q 147 145 108 132 q 235 174 185 158 q 311 195 285 189 q 357 201 338 201 q 403 185 385 201 q 421 142 421 168 q 400 95 421 111 q 324 68 379 79 q 269 56 292 61 q 227 46 247 51 q 185 33 207 40 q 133 17 163 26 q 53 -10 83 0 q 3 -25 22 -19 q -25 -32 -15 -31 q -44 -33 -35 -33 q -101 -10 -78 -33 q -125 49 -125 14 q -114 97 -125 72 q -71 169 -103 121 q 83 374 -4 271 q 285 589 171 476 q 398 696 350 653 q 488 772 446 739 z "},"[":{"ha":535,"x_min":-6,"x_max":775,"o":"m 557 847 q 542 824 550 836 q 519 781 535 811 q 508 758 513 769 q 496 735 503 746 q 483 708 490 724 q 456 657 475 693 q 428 606 440 632 q 340 440 382 521 q 269 297 297 358 q 240 232 256 267 q 211 164 225 197 q 185 101 197 131 q 165 50 174 71 l 156 19 l 172 26 q 233 39 207 39 q 291 23 269 39 q 313 -21 313 7 q 297 -62 313 -46 q 256 -79 281 -79 q 250 -78 251 -79 l 244 -78 q 228 -82 240 -78 q 204 -93 215 -86 q 185 -103 199 -96 q 161 -117 172 -110 q 145 -128 151 -124 q 129 -142 139 -133 q 97 -166 111 -160 q 64 -172 83 -172 q 14 -149 33 -172 q -6 -87 -6 -125 q -2 -58 -6 -74 q 11 -14 1 -42 q 19 13 14 -3 q 40 69 25 29 q 66 138 54 108 q 89 193 78 167 q 113 249 100 219 q 143 317 125 278 q 213 466 179 397 q 281 600 247 535 q 301 638 290 619 q 324 679 311 657 q 351 729 336 701 q 389 796 367 757 l 446 896 q 498 969 476 950 q 551 989 519 989 q 565 988 558 989 q 586 979 571 986 q 632 969 610 969 q 654 972 644 969 q 685 986 664 975 q 721 996 706 996 q 759 976 743 996 q 775 931 775 957 q 765 895 775 913 q 738 868 754 878 q 682 850 718 857 q 611 843 646 843 q 585 843 594 843 q 567 846 576 843 l 557 847 l 557 847 z "},"\\":{"ha":611,"x_min":288,"x_max":417,"o":"m 357 -74 q 326 -58 338 -74 q 315 -15 315 -43 q 317 3 315 -8 q 319 28 318 14 q 327 135 325 76 q 329 274 329 194 q 328 412 329 336 q 324 546 326 488 q 317 634 321 589 q 304 750 314 679 q 299 795 301 776 q 294 825 297 814 q 290 865 292 856 q 288 885 289 876 q 288 899 288 893 q 331 942 288 942 q 362 926 351 942 q 379 864 372 910 l 389 796 q 396 733 392 775 q 406 625 400 692 q 412 540 410 579 q 415 460 414 500 q 416 373 415 419 q 417 267 417 326 q 417 201 417 231 q 416 147 417 172 q 414 99 415 122 q 411 51 413 76 q 406 -11 408 7 q 400 -40 404 -29 q 357 -74 389 -74 z "},"]":{"ha":535,"x_min":-222,"x_max":561,"o":"m 4 -14 q 13 2 7 -8 q 35 44 18 13 l 46 64 l 56 85 l 115 194 q 137 235 124 210 q 165 290 150 261 q 195 347 181 319 q 221 396 210 375 q 275 508 249 451 q 332 638 301 565 q 369 725 351 683 q 397 799 386 767 l 403 811 l 386 804 q 351 794 371 799 q 318 790 332 790 q 266 807 286 790 q 246 851 246 824 q 308 908 246 904 q 335 913 322 910 q 361 924 347 917 q 392 943 375 931 q 435 975 410 956 q 466 996 454 990 q 493 1001 478 1001 q 542 978 524 1001 q 561 918 561 954 q 548 847 561 892 q 500 718 535 803 q 433 557 467 635 q 359 398 399 479 q 273 227 319 317 q 169 32 226 138 q 115 -64 138 -26 q 74 -123 92 -101 q 40 -153 56 -144 q 8 -161 25 -161 q -6 -160 -1 -161 q -33 -150 -11 -158 q -78 -143 -51 -143 q -99 -145 -92 -143 q -125 -156 -107 -147 q -164 -165 -149 -165 q -205 -146 -187 -165 q -222 -99 -222 -126 q -175 -36 -222 -60 q -54 -12 -128 -12 q -30 -13 -46 -12 q -3 -17 -14 -14 l 1 -17 l 4 -14 z "},"^":{"ha":882,"x_min":-83,"x_max":922,"o":"m 167 211 q 165 217 165 214 q 161 231 161 226 q 168 244 161 238 l 186 265 q 215 313 201 285 q 229 356 229 340 q 207 379 229 379 q 131 325 176 379 q 94 278 111 303 q 66 229 78 253 q 47 185 54 206 q 40 150 40 164 q 47 130 40 139 q 64 121 54 121 q 88 129 74 121 q 116 150 101 138 q 144 178 131 163 q 167 211 158 194 m 344 313 q 367 322 358 318 q 392 338 376 326 q 433 367 407 349 q 481 403 460 386 q 533 440 515 431 q 568 450 551 450 q 600 437 586 450 q 614 407 614 424 q 606 378 614 392 q 575 338 599 365 q 535 285 554 314 q 501 233 515 257 q 486 202 490 214 q 482 179 482 190 q 488 165 482 171 q 500 158 493 158 q 561 200 526 158 q 608 263 586 229 q 621 283 614 271 q 646 322 628 294 q 658 341 651 332 q 669 361 664 350 q 701 406 688 389 q 724 434 714 424 q 745 449 735 444 q 767 453 756 453 q 803 438 788 453 q 818 401 818 422 q 812 372 818 386 q 783 329 806 358 q 717 224 743 274 q 690 151 690 175 q 697 136 690 143 q 711 129 703 129 q 734 136 722 129 q 761 159 746 143 q 796 201 776 175 q 842 265 815 228 q 864 291 854 283 q 886 299 874 299 q 912 288 901 299 q 922 264 922 278 q 903 208 922 244 q 857 135 885 172 q 753 29 806 67 q 658 -8 701 -8 q 599 16 622 -8 q 575 78 575 40 q 576 88 575 82 q 576 100 576 93 q 443 19 507 19 q 378 48 404 19 q 353 121 353 76 q 390 239 353 178 q 282 192 333 204 q 263 160 269 172 q 242 118 256 147 q 224 85 233 104 q 205 47 214 67 q 188 10 196 28 q 174 -18 179 -7 q 150 -70 163 -40 q 126 -131 138 -100 q 106 -190 115 -162 q 92 -236 96 -218 l 75 -294 q 21 -349 63 -349 q -19 -330 -4 -349 q -35 -281 -35 -311 q -33 -251 -35 -267 q -24 -216 -31 -236 q -8 -168 -18 -196 q 19 -100 3 -140 q 51 -28 36 -58 q 88 38 67 1 q 4 -1 49 -1 q -60 27 -36 -1 q -83 101 -83 56 q -74 169 -83 132 q -46 244 -64 206 q -3 321 -28 283 q 49 389 21 358 q 150 472 96 442 q 249 503 204 503 q 317 477 289 503 q 344 415 344 451 l 344 406 q 371 368 371 389 q 367 352 371 360 q 354 329 364 344 q 349 322 351 326 q 344 313 347 318 z "},"_":{"ha":694,"x_min":0,"x_max":694,"o":"m 694 -186 l 694 -315 l 0 -315 l 0 -186 l 694 -186 z "},"`":{"ha":363,"x_min":93,"x_max":271,"o":"m 271 628 q 257 594 271 608 q 224 581 243 581 q 135 646 182 581 q 102 695 111 678 q 93 729 93 713 q 106 767 93 753 q 140 782 119 782 q 169 772 157 782 q 200 738 182 763 q 233 692 217 710 q 263 655 256 668 q 271 628 271 642 z "},"a":{"ha":451,"x_min":-69,"x_max":490,"o":"m 154 221 q 150 236 150 233 q 157 251 150 244 l 179 275 q 209 317 196 292 q 222 356 222 342 q 200 378 222 378 q 156 358 182 378 q 107 304 131 338 q 70 238 85 272 q 56 183 56 203 q 76 160 56 160 q 107 171 92 160 q 146 211 122 182 q 154 221 147 214 m 163 117 q 21 25 96 25 q -44 56 -18 25 q -69 135 -69 86 q -44 251 -69 188 q 24 372 -19 315 q 124 472 72 438 q 225 506 176 506 q 297 478 269 506 q 325 403 325 450 q 322 373 325 386 q 311 342 318 360 q 329 324 325 331 q 333 308 333 317 q 331 294 333 301 q 317 275 328 288 q 283 222 296 247 q 271 182 271 197 q 294 160 271 160 q 342 185 315 160 q 410 265 369 210 q 457 299 435 299 q 481 289 472 299 q 490 264 490 279 q 468 203 490 240 q 407 125 446 165 q 235 31 317 31 q 183 52 204 31 q 163 104 163 74 l 163 117 l 163 117 z "},"b":{"ha":400,"x_min":-119,"x_max":358,"o":"m 33 164 q 74 128 43 128 q 179 211 121 128 q 224 292 207 251 q 240 356 240 332 q 215 388 240 388 q 171 371 194 388 q 122 324 147 354 q 74 252 97 293 q 33 164 51 211 m 174 456 q 226 487 204 478 q 271 496 249 496 q 333 468 307 496 q 358 399 358 440 q 349 331 358 368 q 324 253 340 293 q 286 176 308 214 q 238 104 264 138 q 78 0 156 0 q -11 56 18 0 q -14 46 -14 47 l -21 28 q -40 -9 -32 0 q -64 -18 -49 -18 q -103 0 -87 -18 q -119 43 -119 18 q -116 73 -119 57 q -105 112 -112 89 q -84 166 -97 135 q -51 242 -71 197 q -11 328 -33 282 q 34 420 11 374 q 80 510 57 467 q 124 590 103 554 q 151 640 136 614 q 181 690 167 665 q 209 736 196 715 q 232 772 222 757 q 263 807 250 797 q 290 817 275 817 q 326 801 311 817 q 342 764 342 785 q 335 732 342 747 q 306 686 328 717 q 287 658 296 672 q 267 627 278 644 q 244 587 257 610 q 214 533 231 564 q 190 489 199 504 q 174 456 182 474 z "},"c":{"ha":340,"x_min":-75,"x_max":349,"o":"m 349 210 q 269 97 349 168 q 161 24 217 49 q 53 -1 106 -1 q -40 35 -6 -1 q -75 133 -75 71 q -44 263 -75 197 q 44 390 -14 328 q 140 470 92 443 q 228 497 188 497 q 287 472 264 497 q 310 407 310 447 q 299 346 310 376 q 272 290 289 315 q 235 249 256 265 q 194 233 215 233 q 167 245 179 233 q 154 272 154 257 q 158 288 154 281 q 175 306 163 294 q 208 358 208 336 q 196 374 208 374 q 160 357 182 374 q 115 315 138 340 q 64 235 83 279 q 44 160 44 192 q 58 124 44 138 q 90 111 71 111 q 156 131 118 111 q 222 179 194 150 l 264 221 q 311 247 289 247 q 338 236 326 247 q 349 210 349 225 z "},"d":{"ha":465,"x_min":-74,"x_max":551,"o":"m 251 385 q 226 392 239 392 q 180 376 201 392 q 131 324 158 361 q 72 222 94 275 q 49 132 49 169 q 71 100 49 100 q 132 153 99 100 q 161 206 143 172 q 206 293 179 240 l 251 385 l 251 385 m 303 486 q 326 533 317 513 q 346 572 336 553 q 367 611 356 590 q 393 661 378 632 q 453 754 429 728 q 504 781 478 781 q 538 767 524 781 q 551 733 551 753 q 547 708 551 721 q 528 675 542 696 q 499 630 513 651 q 472 584 486 608 q 443 531 458 560 q 408 467 428 503 q 348 345 375 404 q 303 240 321 286 q 285 169 285 192 q 304 143 285 143 q 323 149 313 143 q 344 167 333 156 q 374 203 356 178 q 407 247 393 228 q 439 285 426 275 q 465 296 451 296 q 489 286 479 296 q 499 261 499 276 q 492 234 499 251 q 474 196 485 217 q 447 151 463 175 q 413 104 431 128 q 257 -6 325 -6 q 200 18 221 -6 q 176 85 179 42 q 110 8 149 36 q 31 -21 71 -21 q -45 14 -17 -21 q -74 106 -74 49 q -40 259 -74 179 q 57 408 -6 339 q 143 478 94 453 q 236 504 192 504 q 303 486 272 504 z "},"e":{"ha":350,"x_min":-65,"x_max":378,"o":"m 99 283 q 108 281 104 282 q 117 281 111 281 q 148 288 132 281 q 177 306 164 294 q 199 332 190 318 q 207 360 207 346 q 193 376 207 376 q 149 349 178 376 q 99 283 121 321 m 57 185 q 49 169 51 175 q 47 154 47 163 q 62 119 47 131 q 101 107 76 107 q 190 140 139 107 q 278 224 240 174 l 307 263 q 342 283 324 283 q 367 272 357 283 q 378 243 378 261 q 358 184 378 218 q 301 113 338 150 q 188 26 249 57 q 72 -6 126 -6 q -27 34 11 -6 q -65 136 -65 74 q -39 258 -65 196 q 29 372 -12 321 q 122 456 71 424 q 221 489 172 489 q 286 463 261 489 q 311 394 311 436 q 292 315 311 354 q 244 246 274 276 q 175 197 214 215 q 96 178 136 178 q 77 180 85 178 q 57 185 69 182 z "},"f":{"ha":417,"x_min":-183,"x_max":454,"o":"m 85 235 q 13 71 49 158 q -44 -92 -22 -17 q -65 -169 -60 -136 q -71 -228 -71 -203 q -44 -276 -71 -276 q 40 -176 -8 -276 q 110 -8 85 -89 q 135 129 135 72 q 90 246 135 217 l 85 235 m 156 351 q 242 156 242 290 q 210 -40 242 65 q 119 -246 178 -146 q 19 -377 72 -329 q -76 -425 -33 -425 q -155 -381 -126 -425 q -183 -257 -183 -336 q -147 -53 -183 -172 q -128 7 -137 -22 q -105 68 -118 36 q -75 137 -92 100 q -36 221 -58 174 l -25 242 q -47 256 -39 244 q -56 282 -56 268 q 49 403 -56 339 q 151 583 99 500 q 250 724 203 667 q 313 790 290 772 q 361 807 335 807 q 396 795 382 807 q 410 764 410 783 q 393 718 410 744 q 385 708 389 713 q 364 683 381 703 q 348 665 354 672 q 332 646 342 657 q 288 590 313 624 q 244 531 263 557 q 230 510 235 518 q 218 489 225 503 q 336 508 272 508 q 422 487 389 508 q 454 429 454 465 q 437 378 454 399 q 394 357 419 357 q 376 360 383 357 q 351 375 368 364 q 322 391 336 386 q 293 396 308 396 q 235 387 265 396 q 164 356 206 378 l 156 351 l 156 351 z "},"g":{"ha":467,"x_min":-253,"x_max":499,"o":"m 194 251 q 186 267 186 260 q 190 276 186 271 q 206 293 193 282 q 256 378 256 335 q 239 397 256 397 q 199 378 224 397 q 142 325 174 360 q 75 233 101 281 q 49 160 49 185 q 55 142 49 149 q 69 135 61 135 q 94 144 79 135 q 127 170 110 154 q 162 207 144 186 q 194 251 179 228 m 24 -135 q -12 -154 3 -146 q -38 -169 -28 -162 q -58 -181 -49 -175 q -75 -193 -67 -186 q -113 -234 -99 -212 q -128 -275 -128 -256 q -106 -299 -128 -299 q -37 -249 -78 -299 q -10 -209 -24 -231 q 26 -143 3 -187 l 33 -131 l 24 -135 m 188 -49 q 183 -57 185 -54 q 182 -60 182 -60 l 138 -164 q 80 -278 107 -233 q 21 -350 53 -322 q -125 -417 -54 -417 q -174 -407 -151 -417 q -215 -381 -197 -397 q -242 -344 -232 -365 q -253 -297 -253 -322 q -179 -149 -253 -219 q -147 -122 -164 -135 q -110 -97 -131 -110 q -62 -72 -89 -85 q 3 -42 -35 -58 q 40 -24 19 -33 q 82 -6 61 -15 l 90 -3 l 93 3 q 106 33 100 24 q 117 59 115 54 q 122 75 119 64 q 68 31 99 47 q 11 14 38 14 q -51 42 -26 14 q -76 115 -76 71 q -44 244 -76 175 q 50 381 -11 314 q 279 517 176 517 q 346 491 319 517 q 372 425 372 465 q 367 385 372 407 q 353 342 361 363 q 365 318 365 329 q 362 304 365 313 q 349 281 358 296 q 330 250 336 261 q 317 228 324 239 q 304 205 311 218 q 285 168 297 192 q 258 118 267 135 q 243 83 250 101 q 332 160 285 113 q 418 258 379 207 q 444 285 433 278 q 467 292 454 292 q 490 284 481 292 q 499 263 499 276 q 480 208 499 243 q 429 136 461 174 q 383 87 407 110 q 332 43 360 64 q 270 1 304 22 q 193 -46 236 -21 l 188 -49 l 188 -49 z "},"h":{"ha":438,"x_min":-111,"x_max":501,"o":"m 236 561 q 331 632 288 589 q 369 680 354 656 q 385 718 385 704 q 374 729 385 729 q 342 711 360 729 q 303 665 325 693 q 268 614 281 636 l 242 569 q 236 561 242 569 m 136 360 q 255 435 211 413 q 328 458 299 458 q 368 441 351 458 q 385 399 385 424 q 376 365 385 382 q 335 310 367 347 l 306 272 q 267 217 281 242 q 253 181 253 193 q 274 158 253 158 q 303 167 286 158 q 336 190 321 176 q 365 222 347 203 q 407 274 382 242 q 431 295 421 289 q 451 301 440 301 q 474 291 465 301 q 483 264 483 281 q 463 206 483 240 q 404 132 442 172 q 305 51 356 81 q 214 22 254 22 q 149 49 175 22 q 122 115 122 76 q 147 209 122 156 q 211 304 172 263 q 110 231 157 281 q 28 110 64 182 l 4 61 q -27 13 -12 26 q -61 -1 -42 -1 q -97 13 -82 -1 q -111 46 -111 26 q -100 102 -111 68 q -65 194 -89 136 q -31 274 -50 232 q 8 358 -12 315 q 47 439 28 400 q 83 508 67 478 q 176 659 129 592 q 269 773 224 726 q 354 845 314 819 q 428 871 394 871 q 481 847 460 871 q 501 788 501 824 q 470 676 501 733 q 381 567 439 619 q 277 490 336 528 q 168 429 218 451 l 163 421 q 142 383 147 393 q 128 354 136 372 l 136 360 z "},"i":{"ha":233,"x_min":-83,"x_max":351,"o":"m 351 679 q 342 641 351 660 q 319 607 333 622 q 285 583 304 592 q 249 574 267 574 q 211 588 226 574 q 196 622 196 601 q 206 661 196 642 q 230 697 215 681 q 263 722 244 713 q 301 732 282 732 q 338 717 324 732 q 351 679 351 703 m 256 233 q 251 212 256 225 q 236 183 246 199 q 215 151 226 168 q 189 119 203 133 q 98 47 144 72 q 13 21 51 21 q -56 49 -29 21 q -83 124 -83 78 q 7 347 -83 211 q 60 411 38 392 q 106 431 82 431 q 140 416 126 431 q 154 379 154 401 q 149 352 154 364 q 128 321 143 340 q 40 171 40 213 q 63 147 40 147 q 83 152 72 147 q 108 171 93 157 q 137 197 121 182 q 164 224 153 213 q 199 260 188 251 q 224 268 210 268 q 256 233 253 268 z "},"j":{"ha":247,"x_min":-486,"x_max":375,"o":"m -201 -122 q -320 -198 -276 -158 q -364 -269 -364 -237 q -337 -296 -364 -296 q -272 -253 -308 -296 q -197 -131 -236 -210 l -192 -117 l -201 -122 m 14 86 q 168 231 86 133 q 215 280 201 269 q 242 290 228 290 q 262 281 253 290 q 271 258 271 271 q 245 193 271 235 q 176 108 219 151 q 131 66 154 86 q 82 27 108 46 q 24 -11 56 8 q -46 -51 -7 -31 q -53 -67 -53 -65 l -107 -187 q -222 -357 -156 -297 q -360 -417 -287 -417 q -409 -407 -386 -417 q -449 -381 -432 -397 q -476 -343 -467 -365 q -486 -296 -486 -321 q -422 -152 -486 -221 q -239 -31 -358 -83 l -142 14 q -139 15 -142 14 q -131 19 -136 17 l -121 40 q -80 138 -103 86 q -34 238 -57 189 q 11 330 -11 286 q 50 404 33 374 q 104 479 82 458 q 156 500 126 500 q 190 488 175 500 q 204 457 204 475 q 197 429 204 444 q 171 382 190 414 q 136 322 157 358 q 92 242 115 286 q 55 173 72 207 q 21 103 38 139 l 14 86 l 14 86 m 375 710 q 365 674 375 692 q 340 640 356 656 q 305 615 324 625 q 268 606 286 606 q 231 621 246 606 q 215 657 215 636 q 225 694 215 675 q 251 727 235 713 q 286 751 267 742 q 325 761 306 761 q 361 747 347 761 q 375 710 375 733 z "},"k":{"ha":490,"x_min":-124,"x_max":522,"o":"m 144 268 q 157 265 151 265 q 171 265 163 265 q 267 283 226 265 q 307 325 307 300 q 282 342 307 342 q 217 322 254 342 q 144 268 181 303 m 249 561 q 305 598 283 581 q 350 643 326 615 q 383 688 371 667 q 396 722 396 710 q 385 735 396 735 q 314 671 364 735 q 276 616 299 650 q 236 554 253 582 l 249 561 m 113 233 q 93 213 100 221 q 72 186 86 204 q 37 137 57 167 q 1 85 17 107 q -16 58 -10 68 q -26 41 -22 47 q -33 31 -31 35 q -40 24 -36 28 q -78 7 -60 7 q -110 22 -97 7 q -124 57 -124 36 q -121 81 -124 68 q -112 112 -118 94 q -95 153 -106 129 q -69 211 -85 178 q 72 485 3 365 q 210 692 142 604 q 338 819 272 772 q 454 867 404 867 q 522 794 522 867 q 433 608 522 713 q 385 558 410 581 q 330 515 360 536 q 262 472 300 494 q 172 425 224 450 l 158 418 q 137 381 147 399 q 108 331 126 363 l 103 321 l 110 328 q 147 361 131 347 q 177 385 163 375 q 207 405 192 396 q 240 422 222 414 q 343 451 300 451 q 413 427 386 451 q 440 365 440 403 q 424 305 440 333 q 378 254 407 276 q 309 217 349 232 q 225 199 269 203 q 223 187 224 192 q 222 176 222 182 q 235 137 222 151 q 269 122 247 122 q 411 226 331 122 l 444 271 q 488 299 468 299 q 511 289 501 299 q 521 264 521 279 q 494 191 521 236 q 426 101 468 146 q 226 -15 317 -15 q 107 161 107 -15 q 108 197 107 182 q 113 233 110 213 z "},"l":{"ha":303,"x_min":-69,"x_max":458,"o":"m 97 307 q 175 386 142 349 q 242 472 208 424 q 283 535 264 503 q 317 598 303 568 q 341 651 332 628 q 350 686 350 674 q 340 699 350 699 q 299 665 326 699 q 233 568 271 631 q 204 519 218 544 q 165 447 190 494 q 140 399 150 419 q 122 364 129 379 q 108 335 114 349 q 97 307 103 321 m 56 171 q 54 164 54 168 q 54 158 54 161 q 66 131 54 143 q 93 118 78 118 q 239 242 142 118 l 263 269 q 308 300 288 300 q 331 290 322 300 q 339 265 339 281 q 331 234 339 253 q 310 193 324 215 q 277 147 296 171 q 238 100 258 122 q 47 -7 135 -7 q -37 28 -6 -7 q -69 122 -69 63 q -56 216 -69 167 q -8 339 -42 265 q 49 452 15 393 q 118 567 82 511 q 191 672 154 624 q 260 751 228 719 q 338 816 304 796 q 401 836 372 836 q 443 817 428 836 q 458 765 458 797 q 447 692 458 733 q 416 604 436 650 q 368 510 396 558 q 306 414 340 461 q 194 286 253 343 q 56 171 135 229 z "},"m":{"ha":618,"x_min":-114,"x_max":653,"o":"m 290 289 q 333 333 315 315 q 365 365 351 351 q 392 390 379 379 q 417 411 404 400 q 463 444 444 435 q 497 454 481 454 q 540 437 521 454 q 558 397 558 419 q 549 363 558 381 q 517 315 540 346 q 408 132 408 174 q 426 114 408 114 q 457 126 440 114 q 500 167 474 138 q 534 208 514 182 q 569 257 554 235 q 595 288 585 279 q 619 296 606 296 q 643 286 633 296 q 653 263 653 276 q 628 192 653 236 q 565 103 604 149 q 466 13 517 44 q 374 -19 415 -19 q 310 6 335 -19 q 285 72 285 32 q 288 112 285 93 q 299 151 292 131 q 318 194 306 171 q 350 244 331 217 q 357 256 351 247 q 285 185 321 228 q 214 76 250 143 q 174 17 188 32 q 139 3 160 3 q 102 19 117 3 q 88 58 88 35 q 91 88 88 74 q 106 128 94 103 q 124 170 113 147 q 143 206 135 193 l 169 251 q 178 265 172 254 q 124 215 150 243 q 73 156 97 186 q 30 94 49 125 q -1 33 11 63 q -31 -19 -18 -6 q -65 -32 -44 -32 q -100 -15 -86 -32 q -114 28 -114 1 q -62 210 -114 81 q 1 346 -33 283 q 68 453 35 408 q 101 488 88 478 q 132 499 115 499 q 163 486 150 499 q 176 456 176 474 q 170 426 176 442 q 140 374 164 411 q 128 352 136 367 q 107 315 119 338 l 92 285 q 165 369 133 335 q 219 425 196 404 q 262 456 243 446 q 296 465 281 465 q 329 452 315 465 q 343 419 343 439 q 338 392 343 407 q 314 344 332 376 l 285 292 l 274 271 l 290 289 z "},"n":{"ha":444,"x_min":-122,"x_max":481,"o":"m 119 303 q 197 374 160 343 q 269 429 233 404 q 321 460 301 451 q 360 468 340 468 q 400 454 383 468 q 417 419 417 440 q 407 385 417 401 q 369 340 397 369 q 326 290 346 315 q 293 241 307 264 q 271 199 279 218 q 263 168 263 181 q 281 149 263 149 q 371 225 314 149 q 401 266 390 251 q 420 288 413 281 q 433 296 428 294 q 447 297 439 297 q 472 288 463 297 q 481 264 481 279 q 457 199 481 240 q 394 113 433 157 q 308 42 353 67 q 225 17 264 17 q 159 43 185 17 q 133 111 133 69 q 147 180 133 149 q 193 258 160 211 q 135 219 164 242 q 80 169 106 196 q 34 115 54 143 q 3 60 14 86 l -21 4 q -72 -37 -40 -37 q -108 -22 -93 -37 q -122 17 -122 -7 q -112 72 -122 36 q -83 154 -101 108 q -40 251 -64 200 q 11 349 -17 301 q 87 460 56 426 q 146 494 118 494 q 176 481 164 494 q 189 450 189 468 q 186 431 189 440 q 181 415 183 422 l 142 356 l 106 296 q 101 289 103 293 q 96 279 99 285 l 119 303 z "},"o":{"ha":365,"x_min":-69,"x_max":324,"o":"m 157 219 q 146 234 149 229 q 143 246 143 239 q 146 258 143 253 q 158 271 149 263 q 199 326 182 293 q 215 382 215 360 q 201 399 215 399 q 167 380 188 399 q 121 326 146 361 q 66 234 88 281 q 44 158 44 188 q 51 137 44 146 q 68 128 57 128 q 157 219 108 128 m 276 267 q 278 254 278 261 q 262 189 278 226 q 218 114 246 151 q 129 28 176 58 q 35 -1 82 -1 q -40 33 -11 -1 q -69 124 -69 68 q -42 253 -69 183 q 32 385 -15 322 q 134 484 79 447 q 235 521 189 521 q 300 490 276 521 q 324 407 324 460 q 313 333 324 367 q 276 267 301 300 z "},"p":{"ha":399,"x_min":-290,"x_max":347,"o":"m 17 115 q 31 110 25 111 q 43 110 36 110 q 95 124 69 110 q 149 172 121 139 q 179 212 165 190 q 203 254 193 233 q 220 294 214 275 q 226 326 226 313 q 220 346 226 338 q 203 354 214 354 q 106 271 161 354 q 63 203 82 238 q 17 115 44 169 m 175 419 q 222 451 203 443 q 264 460 242 460 q 325 432 303 460 q 347 358 347 404 q 338 295 347 329 q 313 226 329 261 q 273 155 296 190 q 221 88 250 119 q 135 16 176 39 q 53 -7 94 -7 q -32 21 4 -7 l -49 -15 q -64 -51 -56 -33 q -81 -85 -72 -68 q -92 -111 -87 -101 q -101 -132 -96 -121 l -160 -268 q -178 -311 -171 -296 q -185 -329 -185 -326 q -209 -374 -199 -361 q -237 -386 -219 -386 q -274 -368 -258 -386 q -290 -326 -290 -350 q -265 -231 -290 -299 q -187 -46 -240 -164 q -127 83 -154 26 q -68 200 -100 139 q -32 266 -49 235 q 0 326 -15 297 q 31 378 19 358 q 53 417 42 397 l 85 467 q 110 505 99 490 q 129 528 121 519 q 145 539 138 536 q 163 542 153 542 q 195 528 182 542 q 208 496 208 515 q 201 464 208 481 q 175 419 194 447 z "},"q":{"ha":393,"x_min":-83,"x_max":357,"o":"m 165 207 q 157 220 158 215 q 156 232 156 225 q 164 249 156 240 q 207 303 192 274 q 222 357 222 332 q 201 383 222 383 q 110 303 169 381 q 58 219 78 263 q 38 149 38 175 q 44 128 38 136 q 63 119 51 119 q 109 143 82 119 q 165 207 136 167 m 332 371 q 357 349 357 361 q 351 331 357 342 q 331 288 343 313 q 301 233 318 264 q 271 175 289 211 q 234 99 253 139 q 198 23 215 60 q 169 -37 181 -14 q 119 -160 140 -103 q 89 -254 99 -217 q 81 -285 85 -274 q 76 -303 78 -296 q 72 -314 74 -310 q 67 -322 69 -318 q 17 -349 49 -349 q -25 -333 -8 -349 q -42 -294 -42 -318 q -37 -263 -42 -281 q -22 -212 -33 -246 q 101 58 19 -85 q 46 10 67 22 q 0 -1 25 -1 q -60 26 -37 -1 q -83 100 -83 54 q -74 167 -83 131 q -49 242 -65 204 q -8 316 -32 279 q 43 385 15 353 q 144 471 92 440 q 243 501 197 501 q 309 473 283 501 q 335 399 335 444 q 335 386 335 392 q 332 371 335 381 z "},"r":{"ha":381,"x_min":-119,"x_max":436,"o":"m 186 267 q 88 180 133 231 q 17 78 42 129 l -14 14 q -37 -17 -25 -8 q -69 -26 -50 -26 q -106 -13 -92 -26 q -119 22 -119 0 q -110 73 -119 40 q -86 145 -101 106 q -51 227 -71 185 q -8 307 -31 269 q 33 372 11 340 q 71 419 54 403 q 128 449 99 449 q 161 436 147 449 q 175 407 175 424 q 169 382 175 393 q 139 343 163 371 q 103 294 119 321 q 78 249 86 268 l 88 260 q 158 332 125 303 q 233 393 192 361 q 292 432 272 421 q 326 443 311 443 q 356 429 343 443 q 369 399 369 415 q 360 369 369 382 q 325 339 350 356 q 287 306 301 321 q 272 282 272 290 q 286 271 272 271 q 315 282 296 271 q 357 313 333 293 q 385 333 376 328 q 401 338 393 338 q 426 327 417 338 q 436 301 436 317 q 417 253 436 279 q 364 204 399 228 q 238 157 296 157 q 187 173 207 157 q 167 214 167 189 q 186 267 167 239 z "},"s":{"ha":407,"x_min":-74,"x_max":436,"o":"m 436 467 q 422 408 436 438 q 384 353 407 378 q 333 314 361 329 q 279 299 306 299 q 242 313 257 299 q 226 347 226 326 q 253 389 226 374 l 279 403 q 302 422 293 410 q 311 444 311 433 q 302 463 311 456 q 279 469 293 469 q 235 461 257 469 q 197 440 214 453 q 170 411 181 428 q 160 378 160 394 q 170 337 160 357 q 211 281 181 317 q 255 214 242 243 q 268 156 268 185 q 255 99 268 126 q 219 53 242 72 q 165 22 196 33 q 99 10 133 10 q 30 22 61 10 q -24 56 -1 35 q -60 108 -47 78 q -74 175 -74 139 q -54 249 -74 219 q -6 279 -35 279 q 21 269 8 279 q 32 247 33 258 l 29 193 q 31 187 29 192 q 35 175 32 182 q 59 136 42 150 q 100 122 76 122 q 137 134 122 122 q 151 164 151 146 q 150 176 151 171 q 144 190 149 182 q 128 212 139 199 q 101 247 118 225 q 56 315 68 288 q 44 375 44 342 q 146 531 44 468 q 304 579 226 579 q 401 549 365 579 q 436 467 436 519 z "},"t":{"ha":310,"x_min":-53,"x_max":443,"o":"m 294 572 q 308 576 307 576 l 351 588 q 393 594 379 594 q 428 580 414 594 q 443 543 443 565 q 418 496 443 514 q 397 485 410 489 q 361 479 385 482 q 310 469 344 476 q 239 453 275 463 q 220 448 226 450 q 204 443 214 446 l 193 426 q 164 381 176 401 q 141 342 151 361 q 121 304 131 324 q 101 260 111 285 q 79 201 86 224 q 72 163 72 179 q 101 126 72 126 q 169 164 125 126 q 257 263 213 201 q 279 285 269 279 q 300 292 289 292 q 326 281 315 292 q 336 256 336 271 q 311 192 336 232 q 246 108 286 153 q 57 1 146 1 q -22 33 8 1 q -53 115 -53 65 q -28 241 -53 174 q 56 406 -3 308 q 42 404 47 404 q 32 404 38 404 q -8 417 7 404 q -24 453 -24 431 q -3 494 -24 481 q 76 518 18 508 q 105 523 93 521 q 128 528 117 525 l 135 539 q 208 638 172 592 q 282 726 244 685 q 316 756 301 747 q 347 765 331 765 q 383 753 369 765 q 397 722 397 740 q 395 707 397 714 q 386 690 393 700 q 366 663 379 679 q 332 621 353 646 q 312 595 319 606 q 294 572 304 585 z "},"u":{"ha":458,"x_min":-60,"x_max":494,"o":"m 165 119 q 101 51 133 72 q 33 29 69 29 q -33 59 -7 29 q -60 138 -60 89 q -33 263 -60 193 q 38 400 -7 333 q 157 508 110 508 q 190 496 176 508 q 203 464 203 483 q 197 435 203 449 q 168 392 190 421 q 97 279 122 329 q 72 194 72 229 q 89 172 72 172 q 136 204 108 172 q 186 268 160 231 q 236 343 213 306 l 283 417 q 343 460 310 460 q 377 447 364 460 q 390 413 390 433 q 388 396 390 404 q 381 376 386 388 q 365 347 375 364 q 338 304 354 331 q 290 220 304 251 q 275 169 275 189 q 281 151 275 158 q 294 144 286 144 q 378 214 321 144 l 418 265 q 463 294 442 294 q 485 285 476 294 q 494 260 494 275 q 475 201 494 236 q 421 125 456 165 q 326 39 372 68 q 240 10 281 10 q 183 34 206 10 q 161 94 161 58 q 162 106 161 101 q 165 119 163 111 z "},"v":{"ha":371,"x_min":-69,"x_max":457,"o":"m 257 235 q 139 89 201 142 q 21 36 76 36 q -44 66 -18 36 q -69 140 -69 96 q -58 213 -69 172 q -24 301 -46 254 l 24 399 q 43 438 35 418 q 60 478 51 458 q 84 518 71 507 q 117 529 97 529 q 150 515 136 529 q 164 479 164 501 q 155 429 164 460 q 131 371 146 399 l 94 300 q 67 239 78 269 q 56 193 56 208 q 60 178 56 185 q 72 172 65 172 q 103 189 86 172 q 149 242 121 206 q 181 285 168 267 q 200 321 193 304 q 197 344 197 336 q 197 361 197 354 q 206 419 197 390 q 228 469 214 447 q 259 504 242 490 q 294 518 276 518 q 325 500 314 518 q 336 454 336 482 q 328 390 336 424 q 304 329 319 356 q 318 328 311 328 q 371 350 343 328 q 393 367 385 361 q 406 377 401 374 q 415 381 411 381 q 424 382 418 382 q 447 372 436 382 q 457 347 457 361 q 443 305 457 326 q 407 265 429 283 q 358 236 385 247 q 307 225 332 225 q 283 227 294 225 q 257 235 272 229 z "},"w":{"ha":618,"x_min":-85,"x_max":606,"o":"m 200 176 q 92 56 140 93 q -4 18 44 18 q -62 44 -40 18 q -85 110 -85 69 q -47 250 -85 172 q 54 399 -10 328 q 132 468 96 443 q 193 493 168 493 q 220 481 208 493 q 232 451 232 468 q 225 424 232 438 q 200 393 218 411 l 153 343 q 104 285 131 319 q 61 224 78 251 q 44 178 44 194 q 58 163 44 163 q 82 171 69 163 q 114 200 94 179 q 178 272 147 235 q 239 349 208 308 l 292 419 q 324 452 310 443 q 358 461 339 461 q 394 448 381 461 q 408 415 408 435 q 402 385 408 400 q 378 340 396 369 q 347 285 358 308 q 328 236 336 261 q 317 185 317 204 q 322 169 317 176 q 335 163 328 163 q 390 211 357 163 q 449 321 428 267 q 481 443 469 375 q 556 538 496 538 q 592 520 578 538 q 606 476 606 503 q 598 412 606 449 q 576 335 590 375 q 541 253 561 294 q 496 175 521 213 q 294 13 393 13 q 222 44 250 13 q 194 126 194 75 q 196 149 194 139 q 200 176 197 160 z "},"x":{"ha":481,"x_min":-46,"x_max":508,"o":"m 271 379 q 322 430 293 403 q 379 479 351 457 q 444 507 415 507 q 475 493 463 507 q 488 460 488 479 q 475 422 488 438 q 432 386 463 406 q 406 369 417 376 q 385 353 396 361 q 363 334 375 344 q 332 308 350 324 q 294 272 308 286 q 265 242 279 257 q 264 221 264 229 q 264 206 264 214 q 292 147 264 147 q 344 172 313 147 q 404 233 375 196 l 433 272 q 474 297 454 297 q 499 288 489 297 q 508 263 508 278 q 499 226 508 247 q 472 181 489 206 q 431 129 454 156 q 381 78 407 103 q 242 7 301 7 q 177 36 201 7 q 153 114 153 65 q 153 124 153 121 q 154 133 154 128 q 135 110 142 117 l 97 64 l 61 19 q 4 -14 29 -14 q -31 3 -17 -14 q -46 44 -46 21 q -3 124 -46 86 l 56 174 q 76 191 63 179 q 103 216 89 203 q 132 242 118 229 q 156 264 146 256 l 156 278 l 160 313 l 164 342 q 165 356 164 349 q 165 367 165 364 q 157 381 165 381 q 128 353 150 381 q 75 281 107 326 l 53 249 q 19 206 32 217 q -8 194 6 194 q -33 206 -24 194 q -43 233 -43 217 q -35 269 -43 250 q -8 317 -28 288 q 117 469 63 421 q 215 517 171 517 q 259 498 243 517 q 275 447 275 479 q 275 429 275 440 q 274 408 275 419 q 272 396 272 404 q 271 379 272 389 z "},"y":{"ha":472,"x_min":-258,"x_max":499,"o":"m 36 -115 q -28 -149 -1 -135 q -72 -179 -54 -164 q -122 -226 -104 -203 q -139 -269 -139 -250 q -131 -288 -139 -281 q -111 -296 -122 -296 q -48 -257 -82 -296 q 26 -135 -14 -218 q 31 -127 29 -132 q 36 -115 33 -122 m 179 -56 q 165 -90 174 -69 q 146 -131 156 -110 q 126 -174 136 -153 q 110 -208 117 -194 q -129 -411 7 -411 q -222 -378 -186 -411 q -258 -294 -258 -346 q -161 -122 -258 -203 q -119 -92 -143 -107 q -64 -61 -96 -78 q -15 -37 -44 -50 q 61 -1 15 -24 l 93 13 q 103 33 99 24 q 122 68 108 43 q 140 106 133 92 q 157 140 147 119 q 70 51 115 82 q -17 19 25 19 q -76 45 -53 19 q -99 110 -99 71 q -68 222 -99 161 q 19 347 -37 283 q 161 451 113 451 q 192 440 181 451 q 204 408 204 428 q 195 376 204 390 q 160 338 186 361 q 106 283 131 310 q 62 233 81 257 q 33 191 43 210 q 22 161 22 172 q 27 151 22 156 q 39 146 32 146 q 69 158 50 146 q 108 188 89 169 q 176 258 139 215 q 249 343 214 300 q 281 383 269 368 q 301 408 293 399 q 313 421 308 417 q 324 429 318 425 q 363 446 344 446 q 396 433 382 446 q 410 401 410 419 q 397 363 410 383 q 381 337 392 354 q 356 293 371 319 q 307 209 336 261 q 250 101 278 157 l 246 90 q 285 118 267 104 q 322 151 303 132 q 378 208 351 179 q 419 256 404 236 q 444 283 435 275 q 465 290 454 290 q 490 281 481 290 q 499 258 499 272 q 440 149 499 218 q 389 92 414 117 q 335 45 364 67 q 273 2 307 24 q 196 -42 239 -19 l 183 -49 l 179 -56 z "},"z":{"ha":410,"x_min":-37,"x_max":426,"o":"m 115 132 q 170 147 143 142 q 219 151 197 151 q 283 133 260 151 q 307 86 307 115 q 291 46 307 63 q 253 29 275 29 q 237 31 247 29 q 215 35 226 32 q 163 42 185 42 q 117 33 133 42 l 69 13 q 31 4 53 4 q -18 24 1 4 q -37 71 -37 43 q -16 138 -37 99 q 54 235 6 178 q 78 261 67 249 q 105 288 90 274 q 139 319 119 301 q 188 361 158 336 l 211 381 q 170 376 188 378 q 136 374 153 374 q 72 389 94 374 q 49 432 49 404 q 66 470 49 456 q 111 485 83 485 q 126 485 117 485 q 150 483 136 485 q 164 483 157 483 q 178 482 171 482 q 249 486 214 482 q 325 497 285 490 q 374 501 351 501 q 412 488 397 501 q 426 450 426 474 q 401 401 426 426 q 397 397 399 399 q 391 393 394 396 q 381 385 388 390 q 364 371 375 381 q 344 356 353 363 q 328 342 336 349 q 276 300 297 318 q 238 267 254 282 q 207 240 221 253 q 178 210 193 226 q 143 169 157 188 q 115 132 129 151 z "},"{":{"ha":556,"x_min":46,"x_max":510,"o":"m 500 10 l 500 917 l 56 917 l 56 10 l 500 10 m 46 926 l 510 926 l 510 0 l 46 0 l 46 926 z "},"|":{"ha":556,"x_min":46,"x_max":510,"o":"m 500 10 l 500 917 l 56 917 l 56 10 l 500 10 m 46 926 l 510 926 l 510 0 l 46 0 l 46 926 z "},"}":{"ha":556,"x_min":46,"x_max":510,"o":"m 500 10 l 500 917 l 56 917 l 56 10 l 500 10 m 46 926 l 510 926 l 510 0 l 46 0 l 46 926 z "},"~":{"ha":754,"x_min":-92,"x_max":800,"o":"m 554 461 q 567 460 561 460 q 576 460 574 460 q 592 460 583 460 q 613 463 600 460 q 632 465 622 464 q 650 465 642 465 q 687 453 672 465 q 701 425 701 442 q 700 411 701 418 q 693 394 699 404 q 678 368 688 383 q 654 329 669 353 q 574 168 574 204 q 580 151 574 158 q 596 144 586 144 q 638 170 613 144 q 703 254 663 196 q 739 301 728 290 q 764 311 750 311 q 790 301 779 311 q 800 276 800 290 q 772 203 800 250 q 704 111 744 156 q 533 11 615 11 q 465 40 493 11 q 438 111 438 68 q 452 185 438 147 q 500 276 467 222 q 531 323 515 300 q 565 371 546 346 q 537 367 549 368 q 507 365 525 365 l 501 365 l 496 357 l 457 292 q 369 156 410 213 q 294 65 329 100 q 225 15 258 31 q 158 -1 192 -1 q 88 26 114 -1 q 63 100 63 53 q 98 217 63 149 q 200 365 133 286 q 186 364 192 364 q 171 364 182 364 l 163 364 q 150 364 154 364 q 139 365 146 364 q 118 332 126 344 q 92 293 110 319 q 32 210 60 246 q -7 163 4 174 q -49 142 -26 142 q -79 153 -67 142 q -92 179 -92 164 q -83 209 -92 193 q -53 253 -75 225 q -27 287 -40 268 q 1 325 -14 306 q 22 354 14 343 q 35 372 31 365 q 44 384 40 379 q 51 394 47 389 q 40 436 40 417 q 86 540 40 483 q 137 588 113 571 q 183 604 161 604 q 219 590 206 604 q 232 553 232 576 q 224 511 232 532 q 200 461 217 490 q 231 465 219 464 q 258 468 243 465 q 300 472 283 472 q 334 460 319 472 q 349 428 349 447 q 340 395 349 413 q 306 346 331 378 q 263 284 288 322 q 219 215 238 246 q 200 177 206 193 q 194 150 194 161 q 213 131 194 131 q 243 147 225 131 q 293 204 261 164 q 357 299 322 244 q 417 399 392 353 q 406 422 408 413 q 403 444 403 432 q 415 500 403 472 q 447 551 428 528 q 491 588 467 574 q 539 601 515 601 q 576 588 563 601 q 590 554 590 575 q 554 461 590 521 z "},"":{"ha":583,"x_min":-58,"x_max":621,"o":"m 621 676 q 609 597 621 632 q 575 525 597 561 q 535 474 554 490 q 497 454 517 457 q 457 463 475 451 q 436 497 439 475 q 442 532 433 517 q 469 565 451 547 q 506 609 489 585 q 524 663 524 633 q 517 679 524 672 q 500 686 510 686 q 450 665 479 686 q 392 615 421 643 q 338 558 363 586 q 301 514 314 529 q 276 481 289 499 q 250 443 264 463 q 293 450 272 447 q 336 453 314 453 q 393 438 371 453 q 415 394 415 422 q 400 356 415 372 q 364 340 385 340 q 356 341 361 340 q 343 342 350 342 q 328 344 336 343 q 313 344 319 344 q 255 337 285 344 q 183 321 225 329 l 176 319 q 138 227 153 274 q 124 140 124 181 q 139 88 124 111 q 186 65 154 65 q 244 83 215 65 q 301 127 274 101 q 350 182 328 153 q 388 235 372 211 q 408 262 399 251 q 433 272 418 272 q 457 263 447 272 q 467 239 467 254 q 397 104 467 192 q 349 52 376 78 q 292 6 322 26 q 226 -28 261 -15 q 157 -42 192 -42 q 88 -27 118 -42 q 38 12 58 -12 q 8 69 18 36 q -3 138 -3 101 q 6 217 -3 176 q 31 297 15 257 q 20 297 25 297 q 10 296 15 296 q -58 349 -58 296 q -42 390 -58 372 q -6 408 -25 408 q 3 408 -3 408 q 17 406 8 407 q 39 404 24 404 q 86 408 63 404 q 144 497 114 456 q 204 575 175 539 q 265 642 229 606 q 343 710 301 679 q 429 763 385 742 q 518 785 474 785 q 595 755 569 785 q 621 676 621 725 z "},"":{"ha":433,"x_min":-67,"x_max":378,"o":"m 181 133 q 98 62 132 82 q 28 42 64 42 q -40 70 -14 42 q -67 144 -67 99 q -37 270 -67 197 q 42 408 -7 343 q 165 504 113 504 q 203 492 189 504 q 218 464 218 481 q 216 451 218 457 q 209 436 214 444 q 194 417 204 428 q 169 390 185 407 q 128 340 150 371 q 88 278 107 310 q 63 204 63 236 q 82 178 63 178 q 132 211 103 178 q 176 271 154 238 q 213 332 199 304 l 244 400 q 332 481 283 481 q 365 467 351 481 q 378 433 378 454 q 319 297 378 388 q 292 246 300 267 q 283 199 283 225 q 293 156 283 174 q 329 118 303 139 q 350 97 344 107 q 356 75 356 88 q 335 30 356 49 q 288 11 315 11 q 247 21 267 11 q 213 47 228 31 q 190 86 199 64 q 181 133 181 108 z "},"":{"ha":553,"x_min":-204,"x_max":664,"o":"m 376 504 q 482 519 440 519 q 531 502 510 519 q 553 461 553 485 q 533 415 553 435 q 520 407 528 411 q 508 403 513 403 l 431 407 q 426 406 431 407 q 414 406 421 406 l 378 401 q 358 398 371 400 q 321 390 344 396 l 307 363 q 292 333 300 350 q 278 301 285 317 q 265 273 271 286 q 256 253 258 260 q 128 33 193 121 q -19 -118 63 -54 q -99 -172 -64 -153 q -157 -190 -135 -190 q -190 -178 -176 -190 q -204 -146 -204 -165 q -191 -111 -204 -126 q -136 -65 -178 -96 q -78 -22 -103 -42 q -34 17 -54 -3 q 4 58 -14 36 q 43 108 22 81 q 75 156 60 132 q 105 206 90 179 q 135 263 119 232 q 171 336 151 294 l 182 361 q 140 354 154 356 q 110 353 125 353 q 63 368 81 353 q 46 407 46 383 q 63 449 46 431 q 100 468 79 468 q 110 467 104 468 q 125 465 117 467 q 140 463 133 464 q 154 463 147 463 q 184 465 169 463 q 231 474 199 467 q 267 548 250 515 q 301 607 285 581 q 333 656 317 633 q 367 697 349 678 q 459 769 407 744 q 569 793 511 793 q 638 776 613 793 q 664 728 664 758 q 647 688 664 704 q 633 678 640 682 q 624 674 626 674 l 563 678 q 546 674 558 678 q 501 659 521 668 q 465 633 482 650 q 429 592 447 617 q 390 529 411 567 l 376 504 l 376 504 z "},"":{"ha":592,"x_min":-107,"x_max":347,"o":"m 110 -57 q 118 -27 110 -40 q 149 6 126 -14 q 187 48 168 24 q 215 92 206 72 l 239 138 q 262 163 247 154 q 293 172 276 172 q 332 156 317 172 q 347 117 347 140 q 321 37 347 85 q 256 -51 294 -11 q 158 -106 201 -106 q 124 -91 139 -106 q 110 -57 110 -76 m -107 -57 q -99 -27 -107 -40 q -69 6 -92 -14 q -31 48 -50 24 q -1 92 -11 72 l 22 138 q 75 172 39 172 q 114 156 99 172 q 129 117 129 140 q 103 37 129 85 q 38 -51 78 -11 q -58 -106 -17 -106 q -92 -91 -78 -106 q -107 -57 -107 -76 z "},"":{"ha":1389,"x_min":38,"x_max":1111,"o":"m 964 60 q 972 101 964 81 q 994 138 981 122 q 1024 163 1007 153 q 1058 172 1040 172 q 1097 156 1082 172 q 1111 114 1111 139 q 1103 72 1111 93 q 1081 35 1094 51 q 1051 8 1068 18 q 1018 -1 1035 -1 q 978 15 993 -1 q 964 60 964 32 m 501 60 q 509 101 501 81 q 530 138 517 122 q 560 163 543 153 q 596 172 578 172 q 634 156 619 172 q 649 114 649 139 q 640 72 649 93 q 619 35 632 51 q 589 8 606 18 q 554 -1 572 -1 q 516 15 531 -1 q 501 60 501 32 m 38 60 q 46 101 38 81 q 67 138 54 122 q 97 163 81 153 q 132 172 114 172 q 170 156 156 172 q 185 114 185 139 q 176 72 185 93 q 155 35 168 51 q 125 8 142 18 q 92 -1 108 -1 q 53 15 68 -1 q 38 60 38 32 z "},"":{"ha":660,"x_min":-14,"x_max":753,"o":"m 379 450 q 314 442 350 447 q 258 432 278 438 q 207 353 231 393 q 167 276 183 313 q 140 208 150 239 q 131 156 131 176 q 136 137 131 144 q 151 131 142 129 q 188 153 167 131 q 215 186 199 164 q 242 226 231 208 l 303 333 q 328 373 314 350 q 363 425 343 396 l 379 450 l 379 450 m 518 458 q 501 439 510 450 q 481 412 493 428 q 454 372 469 396 q 418 315 439 349 q 374 237 388 267 q 361 185 361 207 q 372 159 361 169 q 399 149 383 149 q 458 174 424 149 q 526 246 492 200 q 563 288 550 278 q 592 299 576 299 q 613 290 604 299 q 622 265 622 281 q 615 232 622 251 q 593 190 607 213 q 560 145 579 168 q 521 101 542 122 q 357 25 438 25 q 296 41 321 25 q 251 92 271 57 q 104 -4 176 -4 q 32 28 60 -4 q 4 110 4 60 q 28 233 4 167 q 106 390 53 299 l 113 401 l 101 397 l 63 386 q 44 382 53 383 q 29 381 36 381 q -2 392 10 381 q -14 422 -14 404 q 64 494 -14 468 q 113 509 86 503 q 189 525 140 515 l 204 546 q 292 662 256 615 q 355 735 328 708 q 402 774 382 763 q 442 785 422 785 q 471 772 458 785 q 483 744 483 760 q 476 717 483 731 q 453 685 469 704 q 428 657 438 668 q 410 634 419 646 q 388 606 400 622 q 354 561 375 589 l 344 549 q 370 552 358 551 q 406 556 382 553 l 456 561 l 461 563 q 527 640 494 604 q 588 704 560 676 q 644 751 622 738 q 686 764 665 764 q 718 752 706 764 q 731 724 731 740 q 723 696 731 708 q 693 660 715 683 q 656 618 682 647 l 619 578 l 611 569 q 629 570 622 569 q 643 571 636 571 q 727 558 701 571 q 753 514 753 544 q 735 472 753 490 q 693 453 717 453 q 682 453 689 453 q 667 456 676 453 q 622 460 651 458 q 568 461 593 461 q 540 460 550 461 q 518 458 531 460 z "},"":{"ha":556,"x_min":46,"x_max":510,"o":"m 500 10 l 500 917 l 56 917 l 56 10 l 500 10 m 46 926 l 510 926 l 510 0 l 46 0 l 46 926 z "},"":{"ha":439,"x_min":92,"x_max":347,"o":"m 226 667 q 215 664 215 664 l 188 654 q 132 643 154 643 q 103 653 114 643 q 92 682 92 664 q 107 717 92 704 q 165 746 122 731 q 240 764 211 764 q 274 756 260 764 q 306 728 289 747 q 336 685 325 706 q 347 650 347 664 q 334 617 347 631 q 303 604 321 604 q 274 615 286 604 q 231 661 261 625 l 226 667 l 226 667 z "},"":{"ha":1050,"x_min":42,"x_max":917,"o":"m 749 107 q 742 126 742 119 q 746 138 742 133 q 767 153 750 142 q 792 176 782 163 q 803 197 803 190 q 793 207 803 207 q 765 195 782 207 q 729 164 749 183 q 698 125 710 143 q 686 97 686 107 q 691 85 686 90 q 703 81 696 81 q 749 107 721 81 m 435 107 q 428 126 428 119 q 431 138 428 133 q 453 153 435 142 q 478 176 468 163 q 489 197 489 190 q 479 207 489 207 q 451 195 468 207 q 415 164 435 183 q 384 125 396 143 q 372 97 372 107 q 377 85 372 90 q 389 81 382 81 q 435 107 407 81 m 317 588 q 311 603 310 599 q 318 615 311 613 l 347 635 q 364 651 357 642 q 371 667 371 660 q 361 674 371 674 q 294 638 335 674 q 256 598 269 617 q 242 565 242 579 q 258 551 242 551 q 283 560 269 551 q 317 588 297 568 m 878 151 q 881 138 881 146 q 864 93 881 118 q 772 8 826 42 q 671 -25 718 -25 q 607 1 633 -25 q 581 63 581 26 q 663 221 581 139 q 838 310 751 310 q 893 290 869 310 q 917 240 917 269 q 878 151 917 199 m 564 151 q 567 138 567 146 q 550 93 567 118 q 458 8 513 42 q 357 -25 404 -25 q 293 1 319 -25 q 267 63 267 26 q 349 221 267 139 q 522 310 438 310 q 579 290 556 310 q 603 240 603 269 q 564 151 603 199 m 478 688 q 537 719 501 699 q 607 763 572 739 q 658 794 642 786 q 689 801 674 801 q 722 788 708 801 q 736 756 736 774 q 721 708 736 738 q 677 639 706 678 q 609 555 649 600 q 519 460 569 510 l 421 363 q 345 283 382 325 q 276 199 308 240 q 217 118 243 157 q 176 49 192 79 q 135 -12 153 4 q 94 -29 118 -29 q 57 -14 72 -29 q 42 22 42 1 q 50 60 42 40 q 79 115 58 81 q 140 205 103 156 q 218 299 178 254 q 249 332 233 315 q 283 367 264 349 q 324 410 301 386 q 378 464 347 433 l 468 554 q 502 590 490 578 q 528 618 514 603 q 472 594 504 607 q 419 574 440 581 q 321 478 375 514 q 222 443 267 443 q 161 469 186 443 q 136 531 136 494 q 156 606 136 567 q 214 683 176 644 q 306 753 258 728 q 399 779 354 779 q 457 758 435 779 q 479 704 479 738 q 479 697 479 701 q 478 688 479 693 z "},"":{"ha":425,"x_min":97,"x_max":336,"o":"m 229 97 q 190 111 208 97 q 147 158 171 125 q 111 218 125 188 q 97 267 97 249 q 181 374 97 311 q 242 413 217 401 q 286 425 267 425 q 322 409 307 425 q 336 372 336 393 q 330 346 336 356 q 301 318 324 336 l 274 299 l 253 283 q 239 254 239 269 q 258 207 239 236 q 282 167 278 178 q 286 146 286 157 q 269 112 286 126 q 229 97 251 97 z "},"":{"ha":990,"x_min":-51,"x_max":1151,"o":"m 432 753 q 436 735 436 740 q 428 710 436 722 q 401 675 421 697 q 335 600 374 646 q 260 503 297 554 q 135 304 179 397 q 92 149 92 211 q 106 100 92 118 q 144 82 121 82 q 247 134 185 82 q 385 281 310 186 q 519 485 472 390 q 567 644 567 579 q 540 726 567 694 q 474 758 514 758 q 455 757 467 758 q 432 753 443 756 m 814 733 q 794 710 803 721 q 778 688 786 700 q 760 663 769 676 q 739 631 751 649 q 717 596 726 611 q 700 567 708 581 q 685 540 692 553 q 669 510 678 526 q 752 528 715 522 q 826 535 789 535 q 915 479 915 535 q 846 415 915 418 l 788 417 q 694 409 740 415 q 604 389 649 403 l 588 357 q 538 259 558 303 q 501 182 517 215 q 489 150 494 164 q 475 111 483 136 q 610 165 542 147 q 743 183 678 183 q 813 167 788 183 q 838 119 838 150 q 774 60 838 64 l 696 54 q 576 33 639 51 q 453 -15 513 14 q 415 -32 426 -28 q 392 -36 403 -36 q 344 -19 365 -36 q 324 18 324 -3 q 330 51 324 33 q 351 101 336 69 q 219 -22 278 15 q 103 -60 161 -60 q 41 -47 69 -60 q -8 -9 13 -33 q -40 48 -28 15 q -51 119 -51 81 q -37 222 -51 168 q 8 342 -24 276 q 83 476 40 410 q 174 596 126 542 l 263 697 q 275 711 263 699 q 246 707 258 707 q 210 722 225 707 q 196 760 196 738 q 240 829 196 800 q 343 876 285 860 q 460 893 401 893 q 567 872 518 893 q 642 815 615 851 q 661 776 656 797 q 667 724 667 756 l 667 715 q 719 790 694 760 q 763 833 743 821 q 795 848 775 842 q 854 861 815 854 q 960 876 906 871 q 1058 882 1014 882 q 1127 866 1103 882 q 1151 822 1151 850 q 1132 775 1151 796 q 1089 754 1113 754 q 1079 754 1085 754 q 1067 756 1074 754 q 1035 760 1050 758 q 1004 761 1019 761 q 910 753 964 761 q 814 733 857 746 z "},"":{"ha":388,"x_min":236,"x_max":485,"o":"m 485 864 q 477 833 485 846 q 446 797 469 819 q 405 752 425 778 q 374 707 385 726 l 349 658 q 293 624 331 624 q 252 640 268 624 q 236 681 236 656 q 244 719 236 697 q 264 765 251 742 q 294 813 276 789 q 332 857 311 836 q 435 915 390 915 q 470 900 456 915 q 485 864 485 885 z "},"":{"ha":388,"x_min":236,"x_max":485,"o":"m 236 674 q 244 705 236 692 q 275 740 251 718 q 315 785 294 758 q 347 831 336 811 l 371 878 q 428 915 390 915 q 469 899 453 915 q 485 857 485 882 q 477 818 485 840 q 457 772 469 796 q 426 725 444 749 q 388 681 408 701 q 286 624 332 624 q 251 638 265 624 q 236 674 236 653 z "},"":{"ha":592,"x_min":236,"x_max":690,"o":"m 472 867 q 465 837 472 850 q 435 803 457 824 q 397 761 415 786 q 367 717 378 736 l 343 672 q 290 638 325 638 q 251 653 267 638 q 236 692 236 668 q 243 729 236 708 q 263 773 250 750 q 292 818 275 796 q 328 860 308 840 q 424 915 383 915 q 458 901 443 915 q 472 867 472 886 m 690 867 q 683 837 690 850 q 651 803 675 824 q 613 761 632 786 q 585 717 594 736 l 561 672 q 507 638 543 638 q 468 653 483 638 q 453 692 453 668 q 460 729 453 708 q 479 773 467 750 q 508 818 492 796 q 544 860 525 840 q 642 915 600 915 q 676 901 661 915 q 690 867 690 886 z "},"":{"ha":592,"x_min":236,"x_max":690,"o":"m 453 685 q 460 715 453 701 q 490 749 468 729 q 529 791 510 767 q 558 835 549 815 l 582 881 q 636 915 600 915 q 675 899 660 915 q 690 860 690 883 q 683 822 690 843 q 664 779 676 801 q 634 734 651 757 q 597 692 617 711 q 501 638 544 638 q 467 651 482 638 q 453 685 453 665 m 236 685 q 244 715 236 701 q 274 749 251 729 q 312 791 293 767 q 342 835 331 815 l 364 881 q 418 915 382 915 q 457 899 442 915 q 472 860 472 883 q 465 822 472 843 q 446 779 458 801 q 417 734 433 757 q 381 692 400 711 q 285 638 326 638 q 250 651 264 638 q 236 685 236 665 z "},"":{"ha":486,"x_min":139,"x_max":403,"o":"m 139 476 q 149 528 139 504 q 177 571 160 553 q 218 599 194 589 q 269 610 242 610 q 365 572 326 610 q 403 476 403 533 q 392 425 403 449 q 364 384 382 401 q 322 356 346 367 q 271 346 297 346 q 219 356 243 346 q 178 385 196 367 q 149 426 160 403 q 139 476 139 450 z "},"":{"ha":817,"x_min":111,"x_max":668,"o":"m 668 242 q 607 189 668 189 q 591 190 600 189 q 571 192 582 190 q 393 196 504 196 q 204 192 275 196 q 185 190 194 190 q 169 190 175 190 q 111 236 111 190 q 197 307 111 290 q 421 317 242 317 q 524 314 478 317 q 590 307 569 311 q 668 242 668 292 z "},"":{"ha":1649,"x_min":111,"x_max":1500,"o":"m 1500 239 q 1424 189 1500 189 l 1403 189 l 1175 194 q 1124 194 1151 194 q 1047 196 1097 194 l 963 196 l 694 196 l 399 196 q 322 196 350 196 q 265 194 296 196 q 229 193 244 193 q 204 192 214 193 q 183 190 193 190 q 168 190 175 190 q 111 236 111 190 q 197 307 111 290 q 288 315 224 313 q 338 316 306 315 q 415 317 369 317 l 683 318 l 872 319 q 997 320 939 319 q 1086 321 1054 321 q 1213 320 1154 321 q 1304 318 1272 319 q 1398 310 1360 315 q 1458 297 1436 306 q 1490 274 1481 288 q 1500 239 1500 260 z "},"":{"ha":546,"x_min":93,"x_max":454,"o":"m 454 697 q 422 636 454 663 q 347 610 389 610 q 324 612 338 610 q 297 619 311 614 l 260 632 q 214 640 232 640 q 194 638 203 640 q 156 625 186 636 q 132 621 140 621 q 105 634 117 621 q 93 667 93 647 q 124 727 93 701 q 197 753 156 753 q 258 740 222 753 q 288 732 276 735 q 306 728 299 729 q 318 726 313 726 q 331 725 324 725 q 363 729 350 725 l 394 743 q 411 746 403 746 q 442 732 431 746 q 454 697 454 718 z "},"":{"ha":556,"x_min":46,"x_max":510,"o":"m 500 10 l 500 917 l 56 917 l 56 10 l 500 10 m 46 926 l 510 926 l 510 0 l 46 0 l 46 926 z "},"":{"ha":425,"x_min":65,"x_max":304,"o":"m 172 425 q 212 411 193 425 q 256 365 231 397 q 290 306 276 336 q 304 257 304 275 q 221 149 304 211 q 160 110 185 122 q 117 99 136 99 q 80 114 94 99 q 65 151 65 129 q 72 177 65 167 q 101 204 78 188 l 128 225 l 149 240 q 163 269 163 251 q 143 317 163 286 q 120 356 125 346 q 115 376 115 365 q 133 410 115 396 q 172 425 150 425 z "},"":{"ha":564,"x_min":-69,"x_max":592,"o":"m 44 163 q 52 133 44 144 q 71 124 60 122 q 163 211 107 126 q 198 282 185 247 q 211 338 211 317 q 183 369 211 369 q 144 347 168 369 q 97 292 121 325 q 58 219 72 254 q 44 163 44 185 m 308 282 q 321 280 315 281 q 331 279 326 279 q 399 317 365 279 q 413 340 408 328 q 418 358 418 351 q 404 376 418 376 q 360 351 385 376 q 308 282 336 326 m 268 185 q 258 153 258 164 q 272 119 258 132 q 310 106 286 106 q 358 116 332 106 q 411 145 385 126 q 463 189 438 164 q 506 242 488 214 q 531 273 521 265 q 554 281 540 281 q 581 269 569 281 q 592 242 592 258 q 563 172 592 214 q 490 89 535 131 q 387 19 443 44 q 282 -6 331 -6 q 165 71 201 -6 q 35 -4 103 -4 q -40 33 -11 -4 q -69 126 -69 69 q -35 269 -69 194 q 58 404 -1 343 q 144 470 101 447 q 224 493 186 493 q 297 417 289 493 q 367 470 333 453 q 436 488 400 488 q 499 462 474 488 q 525 397 525 436 q 506 319 525 358 q 456 249 486 281 q 387 198 425 218 q 311 178 349 178 q 292 179 301 178 q 268 185 283 181 z "},"":{"ha":628,"x_min":51,"x_max":836,"o":"m 390 415 q 263 303 326 343 q 150 264 200 264 q 78 297 106 264 q 51 382 51 331 q 69 483 51 428 q 121 594 88 538 q 201 708 154 651 q 306 818 247 765 q 403 897 365 874 q 471 921 442 921 q 512 903 494 921 q 529 861 529 885 q 526 841 529 850 q 515 822 524 832 q 491 800 507 813 q 450 769 475 788 q 324 660 382 722 q 226 528 267 597 q 197 469 207 496 q 186 426 186 442 q 214 399 186 399 q 261 417 233 399 q 339 479 289 435 q 384 522 363 500 q 433 572 406 543 q 491 637 461 603 q 542 697 521 671 l 646 824 q 694 881 674 858 q 729 917 714 904 q 756 936 744 931 q 779 942 768 942 q 819 922 803 942 q 836 876 836 903 q 811 819 836 849 l 758 760 q 714 707 739 739 q 663 640 689 675 q 613 571 638 606 q 572 510 589 536 q 530 440 553 481 q 485 358 507 400 q 444 277 464 317 q 411 208 424 238 q 399 181 406 196 q 381 133 393 165 q 368 100 375 118 q 355 64 361 82 q 343 31 349 46 q 335 10 338 17 q 300 -53 319 -35 q 253 -71 281 -71 q 206 -51 225 -71 q 188 -1 188 -31 q 201 64 188 25 q 247 167 215 103 q 274 218 261 193 q 303 270 288 243 q 336 328 318 297 q 378 397 354 358 l 390 415 l 390 415 m 596 1088 q 588 1051 596 1069 q 568 1019 581 1033 q 540 995 556 1004 q 508 986 524 986 q 478 1000 490 986 q 465 1033 465 1014 q 473 1070 465 1051 q 492 1103 481 1089 q 519 1127 504 1118 q 550 1136 535 1136 q 583 1122 569 1136 q 596 1088 596 1108 m 757 1086 q 749 1050 757 1068 q 729 1017 742 1032 q 701 994 717 1003 q 671 985 686 985 q 640 999 651 985 q 628 1032 628 1013 q 635 1069 628 1050 q 656 1102 643 1088 q 683 1126 668 1117 q 714 1135 699 1135 q 745 1121 733 1135 q 757 1086 757 1107 z "},"":{"ha":485,"x_min":18,"x_max":588,"o":"m 439 844 q 442 870 438 854 q 453 899 446 886 q 531 956 479 956 q 572 939 556 956 q 588 894 588 922 q 580 853 588 874 q 559 816 572 832 q 528 790 546 800 q 493 781 511 781 q 456 799 471 781 q 439 844 442 817 m 18 54 q 25 90 18 68 q 51 153 32 111 q 79 212 65 183 q 110 272 93 240 q 149 340 128 303 q 200 428 171 378 l 268 542 q 300 596 288 574 q 321 633 313 618 q 336 662 331 651 q 345 678 342 672 q 351 688 349 685 q 356 694 353 692 q 389 711 368 711 q 433 692 414 711 q 453 649 453 674 q 410 540 453 613 l 342 425 q 309 370 326 400 q 272 304 292 340 l 199 172 q 166 113 179 138 q 146 74 153 89 q 108 13 122 28 q 69 -1 93 -1 q 32 13 46 -1 q 18 54 18 28 z "},"":{"ha":499,"x_min":18,"x_max":443,"o":"m 290 493 q 236 461 264 485 q 186 406 208 438 q 149 341 164 375 q 135 279 135 307 q 138 258 135 267 q 149 239 140 250 l 290 493 m 140 81 q 93 29 117 29 q 74 38 82 29 q 65 58 65 47 q 81 106 65 71 l 89 124 q 38 165 57 133 q 18 240 18 197 q 49 374 18 303 q 132 500 81 444 q 326 599 224 599 q 333 599 329 599 q 346 597 339 599 l 357 617 l 364 628 q 400 653 378 653 q 422 646 413 653 q 431 628 431 639 q 428 614 431 622 l 422 604 l 401 572 q 439 490 439 538 q 424 438 439 458 q 386 417 408 417 q 362 426 369 417 q 350 460 354 436 q 349 467 350 465 q 346 472 349 469 l 211 225 q 267 247 242 232 q 319 293 292 263 l 342 317 q 407 358 382 358 q 433 349 422 358 q 443 324 443 339 q 412 256 443 296 q 331 178 381 215 q 244 128 286 144 q 153 110 201 113 l 140 81 z "},"":{"ha":531,"x_min":-101,"x_max":624,"o":"m 290 386 q 272 340 282 363 q 244 282 263 318 q 226 246 233 261 q 211 218 218 231 q 197 194 204 206 q 181 168 190 182 q 272 191 239 185 q 335 197 304 197 q 399 181 375 197 q 422 135 422 164 q 403 90 422 108 q 356 72 383 72 q 347 73 353 72 q 332 74 340 74 l 317 74 q 255 70 289 74 q 194 60 221 67 q 147 46 175 54 q 83 26 119 38 q 60 18 72 22 q 35 10 47 14 q 15 3 19 4 q 3 -1 10 1 q -26 -10 -12 -7 q -49 -14 -39 -14 q -85 2 -69 -14 q -101 40 -101 18 q -90 77 -101 61 q -50 111 -78 93 q 11 152 -12 135 q 51 188 35 169 q 82 230 68 207 q 113 289 96 253 q 135 333 128 318 q 150 363 142 347 q 132 360 139 360 q 117 360 125 360 q 49 413 49 360 q 65 455 49 436 q 101 474 82 474 q 110 473 104 474 q 124 471 115 472 q 146 469 131 469 q 174 471 161 469 q 203 476 186 472 q 267 600 239 551 q 324 681 296 649 q 529 786 413 786 q 599 769 574 786 q 624 721 624 751 q 608 684 624 700 q 571 668 592 668 q 563 669 569 668 q 544 671 556 669 l 535 671 q 433 628 482 671 q 346 507 385 586 q 407 518 388 515 q 443 521 426 521 q 500 504 478 521 q 522 460 522 488 q 507 422 522 438 q 471 406 492 406 q 463 406 468 406 q 450 407 457 407 q 435 409 443 408 q 419 410 426 410 q 361 404 392 410 q 290 386 331 399 z "},"":{"ha":292,"x_min":-171,"x_max":288,"o":"m 78 279 q 69 267 72 272 q 65 261 65 263 l 26 207 q 10 184 17 193 q -1 168 4 175 q -12 155 -7 161 q -24 142 -18 149 q 6 111 -15 111 q 56 156 36 111 q 78 279 75 201 m -100 65 q -118 53 -111 56 q -133 50 -125 50 q -160 60 -149 50 q -171 85 -171 71 q -162 114 -171 99 q -124 165 -153 129 q -94 203 -111 181 q -53 254 -76 225 q -11 310 -29 286 q 19 353 7 335 q 65 415 46 390 q 98 456 83 439 q 125 483 113 472 q 151 501 138 493 q 188 518 168 513 q 225 524 208 524 q 270 507 253 524 q 288 465 288 490 q 277 432 288 446 q 251 413 267 418 l 215 403 q 167 328 167 388 q 171 276 167 307 q 175 213 175 239 q 161 128 175 168 q 124 60 147 89 q 69 13 100 31 q 1 -4 38 -4 q -100 65 -75 -4 z "},"":{"ha":613,"x_min":28,"x_max":686,"o":"m 292 231 q 258 152 275 192 q 231 85 242 113 q 215 42 221 61 q 203 4 208 24 q 183 -41 194 -28 q 153 -54 172 -54 q 108 -32 126 -54 q 89 18 89 -10 q 100 71 89 38 q 138 164 111 104 l 161 215 l 172 240 q 158 239 165 239 q 150 238 153 239 q 106 233 125 235 q 81 231 88 231 q 42 247 57 231 q 28 286 28 263 q 45 330 28 313 q 89 347 63 347 q 96 347 92 347 q 107 346 101 347 q 125 344 117 344 q 140 344 133 344 q 160 344 149 344 q 189 347 172 344 l 217 349 q 231 381 226 369 q 242 413 235 392 q 227 410 233 411 q 218 410 221 410 l 172 403 q 158 401 165 401 q 144 401 151 401 q 88 451 88 401 q 106 497 88 478 q 147 517 124 517 q 182 513 158 517 q 199 511 190 511 q 217 511 208 511 l 238 511 l 232 535 q 222 585 226 564 q 213 622 217 606 q 204 653 208 639 q 194 683 200 668 q 183 719 186 710 q 181 739 181 729 q 199 779 181 763 q 240 796 217 796 q 284 776 267 796 q 318 710 301 757 q 350 543 342 640 l 351 522 q 388 569 372 549 q 417 606 403 589 q 447 636 432 622 q 478 665 461 650 q 615 744 567 744 q 665 726 644 744 q 686 682 686 707 q 653 633 686 647 l 622 621 q 583 600 607 614 q 540 572 560 586 q 515 552 528 563 q 476 519 501 542 q 549 501 526 517 q 572 457 572 486 q 556 413 572 431 q 514 396 539 396 q 500 397 508 396 q 482 401 492 399 q 420 416 438 413 q 385 419 403 419 l 374 419 q 358 389 363 400 q 344 356 354 378 q 369 357 361 357 q 390 357 379 357 q 485 342 457 357 q 513 293 513 328 q 495 249 513 267 q 453 232 478 232 q 438 233 446 232 q 418 238 429 235 q 367 249 386 246 q 333 253 349 253 q 319 252 328 253 q 300 250 311 251 l 292 231 z "},"":{"ha":556,"x_min":46,"x_max":510,"o":"m 500 10 l 500 917 l 56 917 l 56 10 l 500 10 m 46 926 l 510 926 l 510 0 l 46 0 l 46 926 z "},"":{"ha":478,"x_min":93,"x_max":385,"o":"m 224 708 q 216 672 224 690 q 196 640 208 654 q 167 616 183 625 q 136 607 151 607 q 106 621 118 607 q 93 654 93 635 q 101 691 93 672 q 120 724 108 710 q 147 748 132 739 q 178 757 163 757 q 210 743 197 757 q 224 708 224 729 m 385 707 q 377 671 385 689 q 357 638 369 653 q 329 615 344 624 q 299 606 314 606 q 267 619 279 606 q 256 653 256 633 q 263 690 256 671 q 283 723 271 708 q 311 747 296 738 q 342 756 326 756 q 373 742 361 756 q 385 707 385 728 z "},"":{"ha":556,"x_min":46,"x_max":510,"o":"m 500 10 l 500 917 l 56 917 l 56 10 l 500 10 m 46 926 l 510 926 l 510 0 l 46 0 l 46 926 z "},"":{"ha":865,"x_min":-74,"x_max":901,"o":"m 200 267 q 219 317 211 290 q 228 363 228 343 q 201 392 228 392 q 188 389 194 392 q 172 378 181 386 q 178 364 178 371 q 172 347 175 351 l 157 331 q 149 307 149 322 q 162 278 149 290 q 194 267 175 267 l 200 267 l 200 267 m 150 172 q 75 236 97 179 q 40 138 40 175 q 48 113 40 122 q 67 103 56 103 q 142 161 100 103 l 150 172 l 150 172 m 317 297 q 413 364 365 321 q 485 472 444 431 q 561 513 526 513 q 587 502 576 513 q 597 474 597 492 q 590 436 597 457 q 569 394 582 415 q 540 354 557 374 q 507 322 524 335 q 486 286 496 307 q 465 238 476 265 l 475 249 q 563 335 518 293 q 647 410 607 378 q 730 465 690 446 q 794 485 769 485 q 831 469 815 485 q 847 432 847 454 q 840 403 847 417 q 817 371 833 390 l 779 331 q 697 223 729 275 q 665 143 665 171 q 683 124 665 124 q 731 151 703 124 q 778 206 751 174 q 822 264 804 239 q 847 291 836 283 q 868 299 857 299 q 892 289 883 299 q 901 264 901 279 q 892 229 901 250 q 867 183 883 208 q 830 131 851 158 q 783 76 808 103 q 628 -7 703 -7 q 561 19 586 -7 q 536 88 536 44 q 555 170 536 128 q 617 274 574 213 q 458 107 517 192 l 418 49 q 385 13 400 24 q 350 3 369 3 q 311 19 325 3 q 297 63 297 35 q 308 129 297 94 q 344 217 318 164 l 335 211 q 298 191 307 196 q 276 182 289 186 q 43 -21 158 -21 q -40 15 -7 -21 q -74 103 -74 50 q -63 174 -74 136 q -33 251 -53 213 q 12 326 -14 289 q 69 392 38 363 q 133 482 89 447 q 226 517 178 517 q 306 483 275 517 q 336 396 336 449 q 332 352 336 375 q 317 297 328 329 z "},"":{"ha":640,"x_min":97,"x_max":553,"o":"m 444 97 q 406 111 425 97 q 363 158 386 125 q 326 218 340 188 q 313 267 313 249 q 397 374 313 310 q 458 413 433 401 q 501 425 482 425 q 538 409 522 425 q 553 372 553 393 q 546 346 553 356 q 517 318 539 336 l 490 299 l 468 283 q 454 254 454 269 q 474 207 454 236 q 497 167 493 178 q 501 146 501 157 q 484 112 501 126 q 444 97 467 97 m 225 97 q 135 171 181 97 q 108 226 118 199 q 97 269 97 253 q 114 313 97 290 q 169 368 131 336 q 282 425 240 425 q 319 410 303 425 q 335 375 335 394 q 326 346 335 358 q 290 314 317 333 l 263 294 q 242 276 247 283 q 236 260 236 269 q 240 242 236 250 q 260 210 244 235 q 285 149 285 168 q 267 113 285 129 q 225 97 249 97 z "},"":{"ha":236,"x_min":-69,"x_max":318,"o":"m 318 739 q 294 678 318 715 q 265 628 278 650 q 242 588 253 607 q 219 547 231 568 q 193 501 207 526 q 151 423 169 458 q 118 356 133 388 q 90 296 103 325 q 67 238 78 267 q 53 195 57 214 q 49 164 49 176 q 68 133 49 133 q 113 161 85 133 q 189 258 140 189 q 216 290 204 281 q 240 299 228 299 q 265 288 256 299 q 275 261 275 276 q 253 199 275 240 q 199 115 232 157 q 109 33 156 63 q 21 3 63 3 q -44 33 -19 3 q -69 110 -69 63 q -47 238 -69 167 q 26 415 -25 308 q 60 485 44 454 q 92 547 76 517 q 124 606 107 576 q 160 669 140 635 q 196 728 181 704 q 224 765 211 751 q 249 785 238 779 q 271 790 260 790 q 304 776 290 790 q 318 739 318 761 z "},"":{"ha":556,"x_min":46,"x_max":510,"o":"m 500 10 l 500 917 l 56 917 l 56 10 l 500 10 m 46 926 l 510 926 l 510 0 l 46 0 l 46 926 z "},"":{"ha":386,"x_min":-129,"x_max":422,"o":"m 183 375 q 219 413 203 397 q 254 447 235 428 q 313 492 290 479 q 357 506 336 506 q 390 492 376 506 q 403 457 403 478 q 367 400 403 425 l 321 369 q 252 315 289 349 q 179 240 215 281 q 177 222 178 229 q 176 208 176 215 q 208 147 176 147 q 242 157 224 147 q 276 186 260 167 q 290 202 282 192 q 308 223 299 213 q 325 243 317 233 q 339 260 333 253 q 366 288 356 281 q 390 296 376 296 q 413 285 404 296 q 422 260 422 275 q 343 126 422 214 q 160 6 235 6 q 96 38 122 6 q 69 117 69 71 l 69 136 q 58 119 63 125 q 50 111 53 114 l 10 63 l -24 21 q -79 -12 -53 -12 q -115 3 -101 -12 q -129 46 -129 19 q -117 88 -129 69 q -74 132 -106 106 q -50 151 -60 143 q -33 165 -40 158 l 13 208 l 63 253 l 69 261 l 71 285 l 75 376 q 93 478 78 447 q 140 510 108 510 q 175 495 161 510 q 189 458 189 481 q 189 446 189 453 q 188 433 189 440 q 187 421 188 432 q 185 393 186 410 q 184 386 185 390 q 183 375 183 382 z "},"":{"ha":556,"x_min":46,"x_max":510,"o":"m 500 10 l 500 917 l 56 917 l 56 10 l 500 10 m 46 926 l 510 926 l 510 0 l 46 0 l 46 926 z "},"":{"ha":465,"x_min":-65,"x_max":501,"o":"m 211 288 q 206 303 206 299 q 210 315 206 310 q 231 336 214 321 q 260 374 249 354 q 272 406 272 393 q 265 421 272 415 q 247 426 258 426 q 201 405 229 426 q 144 351 172 383 q 113 309 128 332 q 87 264 99 286 q 69 222 75 242 q 63 188 63 201 q 69 166 63 175 q 88 157 76 157 q 135 185 108 157 q 206 279 161 213 l 211 288 l 211 288 m 369 386 q 386 356 386 369 q 382 342 386 349 q 367 324 378 335 q 336 285 351 306 q 310 244 321 264 q 292 208 299 225 q 285 181 285 190 q 306 160 285 160 q 327 165 315 160 q 349 179 339 171 q 384 215 363 190 q 422 267 406 240 q 447 293 438 286 q 469 300 457 300 q 492 291 483 300 q 501 267 501 282 q 481 203 501 242 q 425 126 460 165 q 335 51 381 78 q 247 25 289 25 q 168 106 176 25 q 32 33 110 33 q -38 63 -11 33 q -65 140 -65 92 q -35 265 -65 197 q 47 396 -6 333 q 174 506 106 465 q 299 547 242 547 q 367 523 339 547 q 396 464 396 499 q 369 386 396 421 z "},"":{"ha":361,"x_min":93,"x_max":271,"o":"m 269 731 q 260 694 271 718 q 233 651 249 671 q 184 598 206 614 q 142 582 163 582 q 108 594 122 582 q 93 625 93 607 q 94 636 93 631 q 100 649 96 642 q 113 668 104 657 q 135 696 121 679 q 149 713 142 703 q 165 736 156 722 q 195 770 182 760 q 224 781 208 781 q 256 767 243 781 q 269 731 268 753 z "},"":{"ha":360,"x_min":-76,"x_max":386,"o":"m 63 231 q 94 245 79 236 q 132 269 110 254 q 192 340 192 313 q 181 350 192 350 q 152 340 168 350 q 119 313 136 329 q 88 274 103 296 q 63 231 72 253 m 54 139 q 101 107 64 107 q 193 139 142 107 q 297 229 244 171 q 326 256 315 249 q 351 263 338 263 q 376 252 367 263 q 386 226 386 242 q 360 170 386 204 q 288 96 335 136 q 76 -4 171 -4 q -35 36 6 -4 q -76 147 -76 76 q -47 262 -76 201 q 38 378 -17 322 q 131 449 82 422 q 221 475 181 475 q 285 451 261 475 q 310 389 310 428 q 290 313 310 353 q 231 236 269 274 q 158 180 194 200 q 64 142 122 160 l 54 139 l 54 139 z "},"":{"ha":556,"x_min":46,"x_max":510,"o":"m 500 10 l 500 917 l 56 917 l 56 10 l 500 10 m 46 926 l 510 926 l 510 0 l 46 0 l 46 926 z "},"":{"ha":322,"x_min":111,"x_max":258,"o":"m 111 414 q 119 456 111 435 q 140 492 126 476 q 170 517 153 507 q 206 526 188 526 q 244 510 229 526 q 258 468 258 493 q 250 426 258 447 q 228 389 242 406 q 198 363 215 372 q 164 353 181 353 q 126 369 140 353 q 111 414 111 386 z "},"":{"ha":556,"x_min":46,"x_max":510,"o":"m 500 10 l 500 917 l 56 917 l 56 10 l 500 10 m 46 926 l 510 926 l 510 0 l 46 0 l 46 926 z "},"":{"ha":683,"x_min":-69,"x_max":724,"o":"m 147 203 q 135 221 135 214 q 138 231 135 226 q 150 244 140 235 q 174 275 160 256 q 201 314 189 294 q 226 378 226 353 q 210 397 226 397 q 172 379 194 397 q 125 332 150 361 q 96 290 110 313 q 72 245 82 268 q 56 201 61 222 q 50 163 50 179 q 58 138 50 147 q 76 131 65 129 q 115 150 94 132 q 151 199 136 168 l 147 203 m 521 463 l 565 464 q 603 452 588 464 q 618 422 618 440 q 579 340 618 396 l 540 283 q 519 251 529 268 q 503 217 510 233 q 492 188 496 201 q 488 167 488 175 q 494 150 488 157 q 510 143 500 143 q 553 163 528 143 q 606 219 578 183 l 644 271 q 667 294 657 288 q 688 301 676 301 q 713 290 703 301 q 724 264 724 279 q 697 190 724 236 q 626 101 669 144 q 460 8 533 8 q 382 38 413 8 q 351 114 351 68 q 385 226 351 163 q 482 364 418 289 q 461 368 469 367 q 438 375 453 369 l 431 368 q 372 304 403 336 q 315 249 342 272 q 292 228 300 235 q 275 215 285 222 q 243 153 263 183 q 199 92 224 124 q 43 -1 119 -1 q -40 35 -10 -1 q -69 133 -69 71 q -40 267 -69 199 q 34 393 -11 336 q 134 487 79 450 q 242 524 189 524 q 308 495 282 524 q 333 422 333 467 q 332 402 333 411 q 328 375 331 393 l 339 385 q 363 408 356 400 q 382 426 371 415 q 376 448 378 440 q 374 463 374 456 q 388 518 374 489 q 423 570 401 547 q 470 608 444 593 q 521 624 496 624 q 556 611 542 624 q 569 579 569 599 q 558 540 569 563 q 515 471 547 517 l 511 463 l 521 463 z "},"":{"ha":640,"x_min":65,"x_max":521,"o":"m 172 425 q 212 411 193 425 q 256 365 231 397 q 290 306 276 336 q 304 257 304 275 q 221 149 304 211 q 160 110 185 122 q 117 99 136 99 q 80 114 94 99 q 65 151 65 129 q 72 177 65 167 q 101 204 78 188 l 128 225 l 149 240 q 163 269 163 251 q 143 317 163 286 q 120 356 125 346 q 115 376 115 365 q 133 410 115 396 q 172 425 150 425 m 393 425 q 483 351 439 425 q 510 297 499 325 q 521 254 521 269 q 503 210 521 233 q 447 156 486 186 q 335 97 376 97 q 299 113 314 97 q 283 149 283 128 q 292 178 283 165 q 328 210 301 190 l 356 229 q 376 247 371 240 q 381 263 381 254 q 377 281 381 272 q 358 314 374 289 q 333 375 333 356 q 351 410 333 394 q 393 425 369 425 z "},"":{"ha":668,"x_min":51,"x_max":765,"o":"m 617 781 q 624 822 617 801 q 644 857 632 842 q 674 882 657 872 q 707 892 690 892 q 749 875 733 892 q 765 831 765 858 q 757 790 765 810 q 735 753 749 769 q 704 728 721 738 q 669 718 688 718 q 631 735 646 718 q 617 781 617 753 m 51 167 q 64 230 51 199 q 100 286 76 261 q 130 315 114 301 q 166 341 146 328 q 213 369 186 354 q 275 403 239 385 q 363 450 326 429 q 426 489 400 471 q 472 524 453 507 q 506 563 490 542 q 549 610 533 599 q 588 621 564 621 q 626 604 611 621 q 640 563 640 588 q 578 454 640 514 q 546 425 563 439 q 507 397 529 411 q 455 367 485 383 q 383 329 425 350 q 328 301 356 314 q 278 275 301 288 q 200 221 224 246 q 176 167 176 196 q 194 128 176 143 q 239 113 211 113 q 372 161 299 113 q 417 190 400 179 q 444 206 433 201 q 461 213 454 211 q 478 214 468 214 q 513 200 499 214 q 528 167 528 186 q 503 106 528 136 q 438 52 478 76 q 349 13 399 28 q 250 -1 300 -1 q 171 11 207 -1 q 108 47 135 24 q 67 100 82 69 q 51 167 51 131 z "},"":{"ha":679,"x_min":-115,"x_max":688,"o":"m 500 707 q 438 641 469 676 q 375 568 406 606 q 317 494 344 531 q 268 426 289 458 q 410 465 335 449 l 417 467 l 419 475 l 453 578 l 493 688 q 496 695 494 690 q 500 707 497 700 m 525 364 q 508 296 515 335 q 494 216 500 257 q 484 135 488 175 q 481 64 481 96 q 481 49 481 56 q 482 35 481 42 q 483 14 483 24 q 483 1 483 6 q 467 -39 483 -24 q 425 -54 451 -54 q 367 -24 389 -54 q 346 57 346 6 q 349 119 346 85 q 357 190 351 153 q 370 266 363 228 q 386 339 378 304 q 344 329 367 335 q 282 313 322 324 q 215 293 243 301 q 169 278 186 285 q 133 224 154 257 q 92 155 113 192 q 53 83 71 118 q 24 22 35 47 q -12 -37 4 -22 q -53 -53 -28 -53 q -97 -35 -79 -53 q -115 10 -115 -17 q -103 59 -115 31 q -57 147 -92 88 q -33 189 -42 175 q -17 214 -24 203 q -24 213 -21 214 q -29 213 -26 213 q -67 226 -53 213 q -81 263 -81 239 q -74 291 -81 279 q -51 315 -68 303 q -5 338 -35 326 q 72 367 25 350 l 85 371 q 156 477 114 418 q 249 597 199 536 q 352 718 299 658 q 456 826 406 778 q 543 902 508 879 q 601 925 578 925 q 653 906 632 925 q 674 858 674 886 q 670 831 674 846 q 658 792 667 815 l 625 700 l 593 606 q 569 532 576 554 q 558 492 563 510 q 572 493 567 493 q 583 493 578 493 q 632 478 614 493 q 650 439 650 464 q 633 393 650 411 q 589 372 617 375 l 560 369 l 532 365 q 529 365 531 365 q 525 364 528 364 m 688 1004 q 674 971 688 985 q 640 957 660 957 q 551 1022 599 957 q 519 1072 528 1054 q 510 1106 510 1089 q 523 1144 510 1129 q 557 1158 536 1158 q 586 1149 574 1158 q 617 1114 599 1139 q 650 1068 633 1086 q 680 1031 672 1044 q 688 1004 688 1018 z "},"":{"ha":679,"x_min":-115,"x_max":799,"o":"m 500 707 q 438 641 469 676 q 375 568 406 606 q 317 494 344 531 q 268 426 289 458 q 410 465 335 449 l 417 467 l 419 475 l 453 578 l 493 688 q 496 695 494 690 q 500 707 497 700 m 525 364 q 508 296 515 335 q 494 216 500 257 q 484 135 488 175 q 481 64 481 96 q 481 49 481 56 q 482 35 481 42 q 483 14 483 24 q 483 1 483 6 q 467 -39 483 -24 q 425 -54 451 -54 q 367 -24 389 -54 q 346 57 346 6 q 349 119 346 85 q 357 190 351 153 q 370 266 363 228 q 386 339 378 304 q 344 329 367 335 q 282 313 322 324 q 215 293 243 301 q 169 278 186 285 q 133 224 154 257 q 92 155 113 192 q 53 83 71 118 q 24 22 35 47 q -12 -37 4 -22 q -53 -53 -28 -53 q -97 -35 -79 -53 q -115 10 -115 -17 q -103 59 -115 31 q -57 147 -92 88 q -33 189 -42 175 q -17 214 -24 203 q -24 213 -21 214 q -29 213 -26 213 q -67 226 -53 213 q -81 263 -81 239 q -74 291 -81 279 q -51 315 -68 303 q -5 338 -35 326 q 72 367 25 350 l 85 371 q 156 477 114 418 q 249 597 199 536 q 352 718 299 658 q 456 826 406 778 q 543 902 508 879 q 601 925 578 925 q 653 906 632 925 q 674 858 674 886 q 670 831 674 846 q 658 792 667 815 l 625 700 l 593 606 q 569 532 576 554 q 558 492 563 510 q 572 493 567 493 q 583 493 578 493 q 632 478 614 493 q 650 439 650 464 q 633 393 650 411 q 589 372 617 375 l 560 369 l 532 365 q 529 365 531 365 q 525 364 528 364 m 797 1108 q 788 1072 799 1096 q 761 1029 776 1049 q 712 976 733 992 q 669 960 690 960 q 635 972 650 960 q 621 1003 621 985 q 622 1014 621 1008 q 628 1027 624 1019 q 640 1046 632 1035 q 663 1074 649 1057 q 676 1090 669 1081 q 693 1114 683 1100 q 723 1148 710 1138 q 751 1158 736 1158 q 783 1144 771 1158 q 797 1108 796 1131 z "},"":{"ha":679,"x_min":-115,"x_max":790,"o":"m 500 707 q 438 641 469 676 q 375 568 406 606 q 317 494 344 531 q 268 426 289 458 q 410 465 335 449 l 417 467 l 419 475 l 453 578 l 493 688 q 496 695 494 690 q 500 707 497 700 m 525 364 q 508 296 515 335 q 494 216 500 257 q 484 135 488 175 q 481 64 481 96 q 481 49 481 56 q 482 35 481 42 q 483 14 483 24 q 483 1 483 6 q 467 -39 483 -24 q 425 -54 451 -54 q 367 -24 389 -54 q 346 57 346 6 q 349 119 346 85 q 357 190 351 153 q 370 266 363 228 q 386 339 378 304 q 344 329 367 335 q 282 313 322 324 q 215 293 243 301 q 169 278 186 285 q 133 224 154 257 q 92 155 113 192 q 53 83 71 118 q 24 22 35 47 q -12 -37 4 -22 q -53 -53 -28 -53 q -97 -35 -79 -53 q -115 10 -115 -17 q -103 59 -115 31 q -57 147 -92 88 q -33 189 -42 175 q -17 214 -24 203 q -24 213 -21 214 q -29 213 -26 213 q -67 226 -53 213 q -81 263 -81 239 q -74 291 -81 279 q -51 315 -68 303 q -5 338 -35 326 q 72 367 25 350 l 85 371 q 156 477 114 418 q 249 597 199 536 q 352 718 299 658 q 456 826 406 778 q 543 902 508 879 q 601 925 578 925 q 653 906 632 925 q 674 858 674 886 q 670 831 674 846 q 658 792 667 815 l 625 700 l 593 606 q 569 532 576 554 q 558 492 563 510 q 572 493 567 493 q 583 493 578 493 q 632 478 614 493 q 650 439 650 464 q 633 393 650 411 q 589 372 617 375 l 560 369 l 532 365 q 529 365 531 365 q 525 364 528 364 m 669 1033 q 658 1031 658 1031 l 631 1021 q 575 1010 597 1010 q 546 1020 557 1010 q 535 1049 535 1031 q 550 1084 535 1071 q 608 1113 565 1097 q 683 1131 654 1131 q 717 1122 703 1131 q 749 1094 732 1114 q 779 1051 768 1072 q 790 1017 790 1031 q 777 984 790 997 q 746 971 764 971 q 717 981 729 971 q 674 1028 704 992 l 669 1033 l 669 1033 z "},"":{"ha":679,"x_min":-115,"x_max":833,"o":"m 500 707 q 438 641 469 676 q 375 568 406 606 q 317 494 344 531 q 268 426 289 458 q 410 465 335 449 l 417 467 l 419 475 l 453 578 l 493 688 q 496 695 494 690 q 500 707 497 700 m 525 364 q 508 296 515 335 q 494 216 500 257 q 484 135 488 175 q 481 64 481 96 q 481 49 481 56 q 482 35 481 42 q 483 14 483 24 q 483 1 483 6 q 467 -39 483 -24 q 425 -54 451 -54 q 367 -24 389 -54 q 346 57 346 6 q 349 119 346 85 q 357 190 351 153 q 370 266 363 228 q 386 339 378 304 q 344 329 367 335 q 282 313 322 324 q 215 293 243 301 q 169 278 186 285 q 133 224 154 257 q 92 155 113 192 q 53 83 71 118 q 24 22 35 47 q -12 -37 4 -22 q -53 -53 -28 -53 q -97 -35 -79 -53 q -115 10 -115 -17 q -103 59 -115 31 q -57 147 -92 88 q -33 189 -42 175 q -17 214 -24 203 q -24 213 -21 214 q -29 213 -26 213 q -67 226 -53 213 q -81 263 -81 239 q -74 291 -81 279 q -51 315 -68 303 q -5 338 -35 326 q 72 367 25 350 l 85 371 q 156 477 114 418 q 249 597 199 536 q 352 718 299 658 q 456 826 406 778 q 543 902 508 879 q 601 925 578 925 q 653 906 632 925 q 674 858 674 886 q 670 831 674 846 q 658 792 667 815 l 625 700 l 593 606 q 569 532 576 554 q 558 492 563 510 q 572 493 567 493 q 583 493 578 493 q 632 478 614 493 q 650 439 650 464 q 633 393 650 411 q 589 372 617 375 l 560 369 l 532 365 q 529 365 531 365 q 525 364 528 364 m 833 1074 q 801 1013 833 1039 q 726 986 768 986 q 703 988 717 986 q 676 996 690 990 l 639 1008 q 593 1017 611 1017 q 574 1015 582 1017 q 535 1001 565 1013 q 511 997 519 997 q 484 1010 496 997 q 472 1043 472 1024 q 503 1103 472 1078 q 576 1129 535 1129 q 638 1117 601 1129 q 667 1108 656 1111 q 685 1104 678 1106 q 697 1102 692 1103 q 710 1101 703 1101 q 742 1106 729 1101 l 774 1119 q 790 1122 782 1122 q 822 1108 810 1122 q 833 1074 833 1094 z "},"":{"ha":679,"x_min":-115,"x_max":822,"o":"m 500 707 q 438 641 469 676 q 375 568 406 606 q 317 494 344 531 q 268 426 289 458 q 410 465 335 449 l 417 467 l 419 475 l 453 578 l 493 688 q 496 695 494 690 q 500 707 497 700 m 525 364 q 508 296 515 335 q 494 216 500 257 q 484 135 488 175 q 481 64 481 96 q 481 49 481 56 q 482 35 481 42 q 483 14 483 24 q 483 1 483 6 q 467 -39 483 -24 q 425 -54 451 -54 q 367 -24 389 -54 q 346 57 346 6 q 349 119 346 85 q 357 190 351 153 q 370 266 363 228 q 386 339 378 304 q 344 329 367 335 q 282 313 322 324 q 215 293 243 301 q 169 278 186 285 q 133 224 154 257 q 92 155 113 192 q 53 83 71 118 q 24 22 35 47 q -12 -37 4 -22 q -53 -53 -28 -53 q -97 -35 -79 -53 q -115 10 -115 -17 q -103 59 -115 31 q -57 147 -92 88 q -33 189 -42 175 q -17 214 -24 203 q -24 213 -21 214 q -29 213 -26 213 q -67 226 -53 213 q -81 263 -81 239 q -74 291 -81 279 q -51 315 -68 303 q -5 338 -35 326 q 72 367 25 350 l 85 371 q 156 477 114 418 q 249 597 199 536 q 352 718 299 658 q 456 826 406 778 q 543 902 508 879 q 601 925 578 925 q 653 906 632 925 q 674 858 674 886 q 670 831 674 846 q 658 792 667 815 l 625 700 l 593 606 q 569 532 576 554 q 558 492 563 510 q 572 493 567 493 q 583 493 578 493 q 632 478 614 493 q 650 439 650 464 q 633 393 650 411 q 589 372 617 375 l 560 369 l 532 365 q 529 365 531 365 q 525 364 528 364 m 661 1086 q 653 1050 661 1068 q 633 1017 646 1032 q 605 994 621 1003 q 574 985 589 985 q 543 999 556 985 q 531 1032 531 1013 q 538 1069 531 1050 q 558 1102 546 1088 q 585 1126 569 1117 q 615 1135 600 1135 q 648 1121 635 1135 q 661 1086 661 1107 m 822 1085 q 815 1049 822 1067 q 794 1016 807 1031 q 767 992 782 1001 q 736 983 751 983 q 705 997 717 983 q 693 1031 693 1011 q 701 1067 693 1049 q 721 1101 708 1086 q 749 1124 733 1115 q 779 1133 764 1133 q 810 1119 799 1133 q 822 1085 822 1106 z "},"":{"ha":679,"x_min":-115,"x_max":801,"o":"m 500 707 q 438 641 469 676 q 375 568 406 606 q 317 494 344 531 q 268 426 289 458 q 410 465 335 449 l 417 467 l 419 475 l 453 578 l 493 688 q 496 695 494 690 q 500 707 497 700 m 525 364 q 508 296 515 335 q 494 216 500 257 q 484 135 488 175 q 481 64 481 96 q 481 49 481 56 q 482 35 481 42 q 483 14 483 24 q 483 1 483 6 q 467 -39 483 -24 q 425 -54 451 -54 q 367 -24 389 -54 q 346 57 346 6 q 349 119 346 85 q 357 190 351 153 q 370 266 363 228 q 386 339 378 304 q 344 329 367 335 q 282 313 322 324 q 215 293 243 301 q 169 278 186 285 q 133 224 154 257 q 92 155 113 192 q 53 83 71 118 q 24 22 35 47 q -12 -37 4 -22 q -53 -53 -28 -53 q -97 -35 -79 -53 q -115 10 -115 -17 q -103 59 -115 31 q -57 147 -92 88 q -33 189 -42 175 q -17 214 -24 203 q -24 213 -21 214 q -29 213 -26 213 q -67 226 -53 213 q -81 263 -81 239 q -74 291 -81 279 q -51 315 -68 303 q -5 338 -35 326 q 72 367 25 350 l 85 371 q 156 477 114 418 q 249 597 199 536 q 352 718 299 658 q 456 826 406 778 q 543 902 508 879 q 601 925 578 925 q 653 906 632 925 q 674 858 674 886 q 670 831 674 846 q 658 792 667 815 l 625 700 l 593 606 q 569 532 576 554 q 558 492 563 510 q 572 493 567 493 q 583 493 578 493 q 632 478 614 493 q 650 439 650 464 q 633 393 650 411 q 589 372 617 375 l 560 369 l 532 365 q 529 365 531 365 q 525 364 528 364 m 724 1086 q 708 1104 724 1104 q 661 1075 686 1104 q 640 1031 640 1050 q 658 1011 640 1011 q 700 1038 678 1011 q 724 1086 724 1064 m 801 1097 q 788 1039 801 1068 q 754 987 775 1010 q 706 950 733 964 q 651 936 679 936 q 590 962 615 936 q 564 1024 564 988 q 577 1080 564 1051 q 612 1131 590 1108 q 660 1167 633 1153 q 714 1181 686 1181 q 776 1157 751 1181 q 801 1097 801 1133 z "},"":{"ha":963,"x_min":-135,"x_max":1125,"o":"m 632 706 q 481 585 556 651 q 346 454 406 519 l 353 456 q 366 458 357 457 q 388 463 375 460 q 421 471 414 468 l 461 479 q 483 485 476 483 q 496 489 489 486 l 500 496 q 542 569 515 525 q 594 653 569 613 q 613 678 606 668 q 632 706 619 689 m 581 385 q 460 122 503 246 q 529 145 493 135 q 599 163 565 156 q 664 175 633 171 q 717 179 694 179 q 787 162 761 179 q 813 114 813 144 q 792 73 813 85 q 722 58 772 61 q 580 37 656 56 q 440 -12 504 18 q 396 -32 408 -28 q 372 -36 383 -36 q 320 -13 343 -36 q 297 38 297 10 q 309 101 297 64 q 353 207 321 139 q 397 303 381 269 q 429 363 414 338 l 418 360 q 368 347 394 353 q 317 337 342 342 q 270 328 292 332 q 235 324 249 325 q 208 294 218 306 q 179 258 197 282 q 106 168 143 214 q 46 90 69 122 q 33 72 38 79 q 23 58 28 65 q 10 39 18 50 q -10 10 3 28 q -42 -31 -29 -21 q -75 -42 -56 -42 q -117 -24 -99 -42 q -135 21 -135 -6 q -132 47 -135 35 q -119 77 -129 60 q -90 120 -108 94 q -40 186 -72 146 q 8 248 -14 221 q 63 313 31 275 q -3 367 -3 318 q 46 421 -3 407 q 72 425 60 424 q 117 428 85 426 q 135 428 126 428 q 151 429 143 429 l 161 429 l 175 444 q 236 509 208 481 q 290 563 264 538 q 344 613 317 588 q 406 667 372 638 l 415 675 q 393 721 393 696 q 402 750 393 738 q 434 774 411 763 q 497 797 457 785 q 596 821 536 808 q 835 864 724 849 q 1017 879 946 879 q 1097 863 1069 879 q 1125 815 1125 846 q 1108 776 1125 792 q 1068 761 1092 761 q 1061 762 1065 761 q 1051 763 1057 763 l 1036 763 q 754 731 885 763 q 764 707 764 717 q 759 685 764 696 q 739 654 754 675 q 702 599 718 624 q 663 533 686 574 l 658 525 q 739 542 692 536 q 822 549 786 549 q 885 532 863 549 q 908 486 908 515 q 832 426 908 429 q 767 422 801 425 q 699 415 732 419 q 636 406 665 411 q 588 394 607 400 l 581 385 z "},"":{"ha":600,"x_min":-32,"x_max":679,"o":"m 161 -92 q 251 -179 251 -111 q 240 -223 251 -203 q 208 -258 228 -243 q 160 -283 188 -274 q 103 -292 133 -292 q 52 -286 76 -292 q 9 -272 28 -281 q -21 -251 -10 -262 q -32 -226 -32 -239 q -22 -202 -32 -212 q 0 -192 -12 -192 q 31 -199 7 -192 q 66 -207 46 -204 q 101 -210 86 -210 q 137 -201 124 -210 q 150 -178 150 -193 q 126 -154 150 -160 l 103 -150 q 79 -138 88 -147 q 71 -118 71 -129 q 81 -87 71 -103 l 97 -62 l 113 -40 q 6 28 44 -25 q -32 160 -32 81 q 30 395 -32 264 q 207 664 92 526 q 558 913 414 913 q 647 878 614 913 q 679 786 679 844 q 652 661 679 728 q 578 536 625 594 q 524 483 549 500 q 476 467 500 467 q 433 484 450 467 q 415 528 415 501 q 425 565 415 550 q 465 603 435 579 q 545 686 514 639 q 576 769 576 733 q 567 792 576 783 q 547 801 558 801 q 507 786 532 801 q 451 744 482 771 q 384 681 419 718 q 314 600 349 643 q 229 483 268 543 q 163 365 190 422 q 121 255 136 307 q 106 163 106 203 q 127 97 106 122 q 183 71 149 71 q 304 132 242 71 q 370 203 338 164 q 421 269 403 242 l 442 303 q 492 344 465 344 q 515 335 506 344 q 525 311 525 325 q 511 259 525 290 q 474 192 497 228 q 422 121 451 157 q 361 57 392 85 q 280 -4 319 18 q 197 -37 240 -26 l 161 -92 z "},"":{"ha":578,"x_min":-93,"x_max":740,"o":"m 257 726 q 235 775 235 749 q 308 835 235 815 q 484 870 390 857 q 653 883 578 883 q 740 822 740 883 q 722 777 740 796 q 676 758 703 758 q 667 759 674 758 q 654 761 661 760 q 643 761 650 761 q 628 763 636 761 l 586 763 q 531 760 561 763 q 469 752 500 757 q 409 740 438 747 q 360 726 381 733 q 372 703 372 718 q 366 679 372 692 q 333 632 360 667 q 293 570 313 601 q 260 513 274 539 q 422 536 343 536 q 483 521 461 536 q 506 478 506 506 q 433 418 506 418 l 415 418 q 294 411 344 418 q 194 389 243 404 q 160 326 178 361 q 125 253 142 290 q 94 179 108 215 q 71 117 79 143 q 218 169 156 153 q 340 185 281 185 q 406 168 382 185 q 429 121 429 151 q 354 63 429 64 q 187 40 264 60 q 22 -25 110 19 q 2 -35 10 -32 q -14 -37 -6 -37 q -69 -18 -46 -37 q -93 29 -93 1 q -64 143 -93 64 q 14 318 -35 222 q 89 458 44 381 q 189 626 133 535 q 226 684 210 660 q 257 726 243 708 m 567 1004 q 553 971 567 985 q 519 957 539 957 q 431 1022 478 957 q 398 1072 407 1054 q 389 1106 389 1089 q 402 1144 389 1129 q 436 1158 415 1158 q 465 1149 453 1158 q 496 1114 478 1139 q 529 1068 513 1086 q 559 1031 551 1044 q 567 1004 567 1018 z "},"":{"ha":578,"x_min":-93,"x_max":740,"o":"m 257 726 q 235 775 235 749 q 308 835 235 815 q 484 870 390 857 q 653 883 578 883 q 740 822 740 883 q 722 777 740 796 q 676 758 703 758 q 667 759 674 758 q 654 761 661 760 q 643 761 650 761 q 628 763 636 761 l 586 763 q 531 760 561 763 q 469 752 500 757 q 409 740 438 747 q 360 726 381 733 q 372 703 372 718 q 366 679 372 692 q 333 632 360 667 q 293 570 313 601 q 260 513 274 539 q 422 536 343 536 q 483 521 461 536 q 506 478 506 506 q 433 418 506 418 l 415 418 q 294 411 344 418 q 194 389 243 404 q 160 326 178 361 q 125 253 142 290 q 94 179 108 215 q 71 117 79 143 q 218 169 156 153 q 340 185 281 185 q 406 168 382 185 q 429 121 429 151 q 354 63 429 64 q 187 40 264 60 q 22 -25 110 19 q 2 -35 10 -32 q -14 -37 -6 -37 q -69 -18 -46 -37 q -93 29 -93 1 q -64 143 -93 64 q 14 318 -35 222 q 89 458 44 381 q 189 626 133 535 q 226 684 210 660 q 257 726 243 708 m 667 1108 q 657 1072 668 1096 q 631 1029 646 1049 q 581 976 603 992 q 539 960 560 960 q 505 972 519 960 q 490 1003 490 985 q 492 1014 490 1008 q 497 1027 493 1019 q 510 1046 501 1035 q 532 1074 518 1057 q 546 1090 539 1081 q 563 1114 553 1100 q 592 1148 579 1138 q 621 1158 606 1158 q 653 1144 640 1158 q 667 1108 665 1131 z "},"":{"ha":578,"x_min":-93,"x_max":740,"o":"m 257 726 q 235 775 235 749 q 308 835 235 815 q 484 870 390 857 q 653 883 578 883 q 740 822 740 883 q 722 777 740 796 q 676 758 703 758 q 667 759 674 758 q 654 761 661 760 q 643 761 650 761 q 628 763 636 761 l 586 763 q 531 760 561 763 q 469 752 500 757 q 409 740 438 747 q 360 726 381 733 q 372 703 372 718 q 366 679 372 692 q 333 632 360 667 q 293 570 313 601 q 260 513 274 539 q 422 536 343 536 q 483 521 461 536 q 506 478 506 506 q 433 418 506 418 l 415 418 q 294 411 344 418 q 194 389 243 404 q 160 326 178 361 q 125 253 142 290 q 94 179 108 215 q 71 117 79 143 q 218 169 156 153 q 340 185 281 185 q 406 168 382 185 q 429 121 429 151 q 354 63 429 64 q 187 40 264 60 q 22 -25 110 19 q 2 -35 10 -32 q -14 -37 -6 -37 q -69 -18 -46 -37 q -93 29 -93 1 q -64 143 -93 64 q 14 318 -35 222 q 89 458 44 381 q 189 626 133 535 q 226 684 210 660 q 257 726 243 708 m 588 1033 q 576 1031 576 1031 l 549 1021 q 493 1010 515 1010 q 464 1020 475 1010 q 453 1049 453 1031 q 468 1084 453 1071 q 526 1113 483 1097 q 601 1131 572 1131 q 635 1122 621 1131 q 667 1094 650 1114 q 697 1051 686 1072 q 708 1017 708 1031 q 695 984 708 997 q 664 971 682 971 q 635 981 647 971 q 592 1028 622 992 l 588 1033 l 588 1033 z "},"":{"ha":578,"x_min":-93,"x_max":740,"o":"m 257 726 q 235 775 235 749 q 308 835 235 815 q 484 870 390 857 q 653 883 578 883 q 740 822 740 883 q 722 777 740 796 q 676 758 703 758 q 667 759 674 758 q 654 761 661 760 q 643 761 650 761 q 628 763 636 761 l 586 763 q 531 760 561 763 q 469 752 500 757 q 409 740 438 747 q 360 726 381 733 q 372 703 372 718 q 366 679 372 692 q 333 632 360 667 q 293 570 313 601 q 260 513 274 539 q 422 536 343 536 q 483 521 461 536 q 506 478 506 506 q 433 418 506 418 l 415 418 q 294 411 344 418 q 194 389 243 404 q 160 326 178 361 q 125 253 142 290 q 94 179 108 215 q 71 117 79 143 q 218 169 156 153 q 340 185 281 185 q 406 168 382 185 q 429 121 429 151 q 354 63 429 64 q 187 40 264 60 q 22 -25 110 19 q 2 -35 10 -32 q -14 -37 -6 -37 q -69 -18 -46 -37 q -93 29 -93 1 q -64 143 -93 64 q 14 318 -35 222 q 89 458 44 381 q 189 626 133 535 q 226 684 210 660 q 257 726 243 708 m 556 1085 q 548 1049 556 1067 q 528 1016 540 1031 q 499 992 515 1001 q 468 983 483 983 q 438 997 450 983 q 425 1031 425 1011 q 433 1067 425 1049 q 452 1101 440 1086 q 479 1124 464 1115 q 510 1133 494 1133 q 542 1119 529 1133 q 556 1085 556 1106 m 717 1083 q 709 1047 717 1065 q 689 1015 701 1029 q 661 991 676 1000 q 631 982 646 982 q 599 996 611 982 q 588 1029 588 1010 q 595 1066 588 1047 q 615 1099 603 1085 q 643 1123 628 1114 q 674 1132 658 1132 q 705 1118 693 1132 q 717 1083 717 1104 z "},"":{"ha":297,"x_min":-74,"x_max":567,"o":"m 474 818 q 438 751 474 799 q 393 692 418 728 q 325 592 368 656 q 201 389 253 482 q 115 215 149 296 q 96 166 106 192 q 77 116 86 140 q 62 71 68 92 q 51 36 56 50 q 30 -12 43 1 q -7 -26 17 -26 q -54 -5 -35 -26 q -74 47 -74 17 q -62 116 -74 75 q -25 219 -50 157 q 41 362 4 290 q 135 528 78 433 q 240 692 188 615 q 332 817 292 768 q 378 863 360 850 q 418 875 397 875 q 457 858 440 875 q 474 818 474 842 m 567 1004 q 553 971 567 985 q 519 957 539 957 q 431 1022 478 957 q 398 1072 407 1054 q 389 1106 389 1089 q 402 1144 389 1129 q 436 1158 415 1158 q 465 1149 453 1158 q 496 1114 478 1139 q 529 1068 513 1086 q 559 1031 551 1044 q 567 1004 567 1018 z "},"":{"ha":297,"x_min":-74,"x_max":642,"o":"m 474 818 q 438 751 474 799 q 393 692 418 728 q 325 592 368 656 q 201 389 253 482 q 115 215 149 296 q 96 166 106 192 q 77 116 86 140 q 62 71 68 92 q 51 36 56 50 q 30 -12 43 1 q -7 -26 17 -26 q -54 -5 -35 -26 q -74 47 -74 17 q -62 116 -74 75 q -25 219 -50 157 q 41 362 4 290 q 135 528 78 433 q 240 692 188 615 q 332 817 292 768 q 378 863 360 850 q 418 875 397 875 q 457 858 440 875 q 474 818 474 842 m 640 1107 q 631 1071 642 1094 q 604 1028 619 1047 q 555 974 576 990 q 513 958 533 958 q 478 971 493 958 q 464 1001 464 983 q 465 1013 464 1007 q 471 1026 467 1018 q 483 1044 475 1033 q 506 1072 492 1056 q 519 1089 513 1079 q 536 1113 526 1099 q 566 1147 553 1136 q 594 1157 579 1157 q 626 1143 614 1157 q 640 1107 639 1129 z "},"":{"ha":297,"x_min":-74,"x_max":653,"o":"m 474 818 q 438 751 474 799 q 393 692 418 728 q 325 592 368 656 q 201 389 253 482 q 115 215 149 296 q 96 166 106 192 q 77 116 86 140 q 62 71 68 92 q 51 36 56 50 q 30 -12 43 1 q -7 -26 17 -26 q -54 -5 -35 -26 q -74 47 -74 17 q -62 116 -74 75 q -25 219 -50 157 q 41 362 4 290 q 135 528 78 433 q 240 692 188 615 q 332 817 292 768 q 378 863 360 850 q 418 875 397 875 q 457 858 440 875 q 474 818 474 842 m 532 1032 q 521 1029 521 1029 l 493 1019 q 438 1008 460 1008 q 408 1019 419 1008 q 397 1047 397 1029 q 413 1083 397 1069 q 471 1111 428 1096 q 546 1129 517 1129 q 580 1121 565 1129 q 611 1093 594 1113 q 642 1050 631 1071 q 653 1015 653 1029 q 640 983 653 996 q 608 969 626 969 q 579 980 592 969 q 536 1026 567 990 l 532 1032 l 532 1032 z "},"":{"ha":297,"x_min":-74,"x_max":663,"o":"m 474 818 q 438 751 474 799 q 393 692 418 728 q 325 592 368 656 q 201 389 253 482 q 115 215 149 296 q 96 166 106 192 q 77 116 86 140 q 62 71 68 92 q 51 36 56 50 q 30 -12 43 1 q -7 -26 17 -26 q -54 -5 -35 -26 q -74 47 -74 17 q -62 116 -74 75 q -25 219 -50 157 q 41 362 4 290 q 135 528 78 433 q 240 692 188 615 q 332 817 292 768 q 378 863 360 850 q 418 875 397 875 q 457 858 440 875 q 474 818 474 842 m 501 1085 q 494 1049 501 1067 q 474 1016 486 1031 q 445 992 461 1001 q 414 983 429 983 q 383 997 396 983 q 371 1031 371 1011 q 378 1067 371 1049 q 398 1101 386 1086 q 425 1124 410 1115 q 456 1133 440 1133 q 488 1119 475 1133 q 501 1085 501 1106 m 663 1083 q 655 1047 663 1065 q 635 1015 647 1029 q 607 991 622 1000 q 576 982 592 982 q 545 996 557 982 q 533 1029 533 1010 q 541 1066 533 1047 q 561 1099 549 1085 q 589 1123 574 1114 q 619 1132 604 1132 q 651 1118 639 1132 q 663 1083 663 1104 z "},"":{"ha":715,"x_min":-87,"x_max":897,"o":"m 410 196 q 441 279 422 233 q 494 399 460 325 q 544 501 521 454 q 589 591 567 549 q 633 673 611 633 q 681 754 656 713 q 735 840 713 807 q 776 893 758 874 q 809 919 793 913 q 842 926 825 926 q 881 912 865 926 q 897 876 897 897 q 892 847 897 861 q 867 804 886 832 q 810 718 844 772 q 735 590 776 664 q 613 362 672 485 q 507 118 554 239 q 486 67 494 88 q 472 33 478 47 q 460 11 465 19 q 449 -6 454 3 q 383 -40 422 -40 q 313 9 335 -40 q 292 167 292 58 q 294 255 292 207 q 303 351 297 303 q 316 447 308 400 q 332 532 324 493 l 350 617 q 354 633 350 618 l 346 619 l 285 524 q 209 392 244 458 q 139 251 174 326 q 116 199 126 222 q 97 153 106 176 q 79 106 88 131 q 61 51 71 82 q 25 -28 42 -8 q -22 -49 8 -49 q -69 -31 -50 -49 q -87 15 -87 -12 q -79 67 -87 36 q -53 143 -71 97 q -9 249 -32 197 q 40 351 14 300 q 94 454 65 403 q 158 563 124 506 q 215 649 183 604 q 277 735 246 694 q 336 809 308 776 q 383 858 364 842 q 471 901 435 901 q 514 886 497 901 q 531 847 531 871 q 530 833 531 840 q 527 817 529 826 q 520 793 525 808 q 508 754 515 778 q 453 525 486 688 q 435 430 442 472 q 422 349 428 388 q 414 273 417 310 q 410 196 411 236 m 881 1074 q 848 1013 881 1039 q 774 986 815 986 q 751 988 764 986 q 724 996 738 990 l 686 1008 q 640 1017 658 1017 q 621 1015 629 1017 q 582 1001 613 1013 q 558 997 567 997 q 531 1010 543 997 q 519 1043 519 1024 q 551 1103 519 1078 q 624 1129 582 1129 q 685 1117 649 1129 q 714 1108 703 1111 q 732 1104 725 1106 q 744 1102 739 1103 q 757 1101 750 1101 q 789 1106 776 1101 l 821 1119 q 838 1122 829 1122 q 869 1108 857 1122 q 881 1074 881 1094 z "},"":{"ha":651,"x_min":-51,"x_max":703,"o":"m 432 756 q 439 735 439 744 q 433 715 439 725 q 413 689 428 706 q 380 652 399 674 q 340 606 361 631 q 298 552 319 581 q 256 497 276 524 q 176 381 207 433 q 122 267 146 328 q 101 201 108 231 q 93 151 93 172 q 108 101 93 119 q 146 83 122 83 q 242 131 182 83 q 371 267 301 179 q 513 482 463 382 q 563 651 563 582 q 536 731 563 700 q 467 763 510 763 q 451 760 458 763 q 432 756 443 758 m 282 717 q 262 711 269 713 q 247 710 254 710 q 212 724 226 710 q 197 761 197 739 q 219 811 197 788 q 276 853 240 835 q 359 883 313 872 q 456 894 406 894 q 643 826 579 894 q 687 756 671 796 q 703 674 703 717 q 683 549 703 617 q 626 410 663 482 q 538 267 589 339 q 425 129 488 194 q 258 -9 340 39 q 110 -57 176 -57 q -7 -8 38 -57 q -51 121 -51 42 q -8 307 -51 203 q 113 519 35 411 q 142 558 125 536 q 177 603 158 581 q 214 646 196 625 q 247 682 232 667 q 265 700 258 693 q 282 717 271 707 m 594 1004 q 581 971 594 985 q 547 957 567 957 q 458 1022 506 957 q 426 1072 435 1054 q 417 1106 417 1089 q 430 1144 417 1129 q 464 1158 443 1158 q 493 1149 481 1158 q 524 1114 506 1139 q 557 1068 540 1086 q 587 1031 579 1044 q 594 1004 594 1018 z "},"":{"ha":651,"x_min":-51,"x_max":703,"o":"m 432 756 q 439 735 439 744 q 433 715 439 725 q 413 689 428 706 q 380 652 399 674 q 340 606 361 631 q 298 552 319 581 q 256 497 276 524 q 176 381 207 433 q 122 267 146 328 q 101 201 108 231 q 93 151 93 172 q 108 101 93 119 q 146 83 122 83 q 242 131 182 83 q 371 267 301 179 q 513 482 463 382 q 563 651 563 582 q 536 731 563 700 q 467 763 510 763 q 451 760 458 763 q 432 756 443 758 m 282 717 q 262 711 269 713 q 247 710 254 710 q 212 724 226 710 q 197 761 197 739 q 219 811 197 788 q 276 853 240 835 q 359 883 313 872 q 456 894 406 894 q 643 826 579 894 q 687 756 671 796 q 703 674 703 717 q 683 549 703 617 q 626 410 663 482 q 538 267 589 339 q 425 129 488 194 q 258 -9 340 39 q 110 -57 176 -57 q -7 -8 38 -57 q -51 121 -51 42 q -8 307 -51 203 q 113 519 35 411 q 142 558 125 536 q 177 603 158 581 q 214 646 196 625 q 247 682 232 667 q 265 700 258 693 q 282 717 271 707 m 676 1107 q 667 1071 678 1094 q 640 1028 656 1047 q 591 974 613 990 q 549 958 569 958 q 515 971 529 958 q 500 1001 500 983 q 501 1013 500 1007 q 507 1026 503 1018 q 519 1044 511 1033 q 542 1072 528 1056 q 556 1089 549 1079 q 572 1113 563 1099 q 602 1147 589 1136 q 631 1157 615 1157 q 663 1143 650 1157 q 676 1107 675 1129 z "},"":{"ha":651,"x_min":-51,"x_max":708,"o":"m 432 756 q 439 735 439 744 q 433 715 439 725 q 413 689 428 706 q 380 652 399 674 q 340 606 361 631 q 298 552 319 581 q 256 497 276 524 q 176 381 207 433 q 122 267 146 328 q 101 201 108 231 q 93 151 93 172 q 108 101 93 119 q 146 83 122 83 q 242 131 182 83 q 371 267 301 179 q 513 482 463 382 q 563 651 563 582 q 536 731 563 700 q 467 763 510 763 q 451 760 458 763 q 432 756 443 758 m 282 717 q 262 711 269 713 q 247 710 254 710 q 212 724 226 710 q 197 761 197 739 q 219 811 197 788 q 276 853 240 835 q 359 883 313 872 q 456 894 406 894 q 643 826 579 894 q 687 756 671 796 q 703 674 703 717 q 683 549 703 617 q 626 410 663 482 q 538 267 589 339 q 425 129 488 194 q 258 -9 340 39 q 110 -57 176 -57 q -7 -8 38 -57 q -51 121 -51 42 q -8 307 -51 203 q 113 519 35 411 q 142 558 125 536 q 177 603 158 581 q 214 646 196 625 q 247 682 232 667 q 265 700 258 693 q 282 717 271 707 m 588 1033 q 576 1031 576 1031 l 549 1021 q 493 1010 515 1010 q 464 1020 475 1010 q 453 1049 453 1031 q 468 1084 453 1071 q 526 1113 483 1097 q 601 1131 572 1131 q 635 1122 621 1131 q 667 1094 650 1114 q 697 1051 686 1072 q 708 1017 708 1031 q 695 984 708 997 q 664 971 682 971 q 635 981 647 971 q 592 1028 622 992 l 588 1033 l 588 1033 z "},"":{"ha":651,"x_min":-51,"x_max":767,"o":"m 432 756 q 439 735 439 744 q 433 715 439 725 q 413 689 428 706 q 380 652 399 674 q 340 606 361 631 q 298 552 319 581 q 256 497 276 524 q 176 381 207 433 q 122 267 146 328 q 101 201 108 231 q 93 151 93 172 q 108 101 93 119 q 146 83 122 83 q 242 131 182 83 q 371 267 301 179 q 513 482 463 382 q 563 651 563 582 q 536 731 563 700 q 467 763 510 763 q 451 760 458 763 q 432 756 443 758 m 282 717 q 262 711 269 713 q 247 710 254 710 q 212 724 226 710 q 197 761 197 739 q 219 811 197 788 q 276 853 240 835 q 359 883 313 872 q 456 894 406 894 q 643 826 579 894 q 687 756 671 796 q 703 674 703 717 q 683 549 703 617 q 626 410 663 482 q 538 267 589 339 q 425 129 488 194 q 258 -9 340 39 q 110 -57 176 -57 q -7 -8 38 -57 q -51 121 -51 42 q -8 307 -51 203 q 113 519 35 411 q 142 558 125 536 q 177 603 158 581 q 214 646 196 625 q 247 682 232 667 q 265 700 258 693 q 282 717 271 707 m 767 1074 q 734 1013 767 1039 q 660 986 701 986 q 637 988 650 986 q 610 996 624 990 l 572 1008 q 526 1017 544 1017 q 507 1015 515 1017 q 468 1001 499 1013 q 444 997 453 997 q 417 1010 429 997 q 406 1043 406 1024 q 437 1103 406 1078 q 510 1129 468 1129 q 571 1117 535 1129 q 600 1108 589 1111 q 618 1104 611 1106 q 631 1102 625 1103 q 643 1101 636 1101 q 675 1106 663 1101 l 707 1119 q 724 1122 715 1122 q 755 1108 743 1122 q 767 1074 767 1094 z "},"":{"ha":651,"x_min":-51,"x_max":744,"o":"m 432 756 q 439 735 439 744 q 433 715 439 725 q 413 689 428 706 q 380 652 399 674 q 340 606 361 631 q 298 552 319 581 q 256 497 276 524 q 176 381 207 433 q 122 267 146 328 q 101 201 108 231 q 93 151 93 172 q 108 101 93 119 q 146 83 122 83 q 242 131 182 83 q 371 267 301 179 q 513 482 463 382 q 563 651 563 582 q 536 731 563 700 q 467 763 510 763 q 451 760 458 763 q 432 756 443 758 m 282 717 q 262 711 269 713 q 247 710 254 710 q 212 724 226 710 q 197 761 197 739 q 219 811 197 788 q 276 853 240 835 q 359 883 313 872 q 456 894 406 894 q 643 826 579 894 q 687 756 671 796 q 703 674 703 717 q 683 549 703 617 q 626 410 663 482 q 538 267 589 339 q 425 129 488 194 q 258 -9 340 39 q 110 -57 176 -57 q -7 -8 38 -57 q -51 121 -51 42 q -8 307 -51 203 q 113 519 35 411 q 142 558 125 536 q 177 603 158 581 q 214 646 196 625 q 247 682 232 667 q 265 700 258 693 q 282 717 271 707 m 583 1085 q 576 1049 583 1067 q 556 1016 568 1031 q 527 992 543 1001 q 496 983 511 983 q 465 997 478 983 q 453 1031 453 1011 q 460 1067 453 1049 q 480 1101 468 1086 q 507 1124 492 1115 q 538 1133 522 1133 q 570 1119 557 1133 q 583 1085 583 1106 m 744 1083 q 737 1047 744 1065 q 717 1015 729 1029 q 689 991 704 1000 q 658 982 674 982 q 627 996 639 982 q 615 1029 615 1010 q 623 1066 615 1047 q 643 1099 631 1085 q 671 1123 656 1114 q 701 1132 686 1132 q 733 1118 721 1132 q 744 1083 744 1104 z "},"":{"ha":646,"x_min":-51,"x_max":697,"o":"m 497 760 q 463 767 478 767 q 447 765 456 767 q 425 760 439 764 q 432 740 432 753 q 431 727 432 732 q 424 714 429 722 q 405 692 418 706 q 369 654 392 678 q 322 601 347 631 q 272 538 297 571 q 224 471 247 504 q 183 408 201 438 q 115 267 139 332 q 92 154 92 203 q 94 129 92 139 q 103 108 96 119 q 117 137 111 124 q 131 163 124 150 q 146 191 138 176 q 165 226 154 206 q 191 272 176 247 q 220 324 206 297 q 249 375 235 350 q 275 419 264 400 q 332 510 301 461 q 407 626 363 560 q 449 689 431 661 q 481 736 467 717 l 497 760 l 497 760 m 556 696 q 528 657 539 672 q 500 613 518 642 q 465 556 485 589 q 422 486 444 522 q 377 415 399 450 q 339 351 356 379 q 269 233 300 286 q 211 131 238 179 l 199 106 q 278 168 243 136 q 356 249 314 200 q 453 377 408 311 q 525 506 497 443 q 553 583 544 550 q 563 649 563 617 q 561 673 563 664 q 556 696 560 682 m 643 826 q 685 754 672 789 q 697 672 697 719 q 677 544 697 613 q 619 406 657 476 q 528 263 582 335 q 408 122 475 190 q 258 -1 331 43 q 124 -51 185 -46 q 121 -56 122 -54 q 119 -58 119 -58 l 97 -103 q 50 -137 79 -137 q 21 -124 33 -137 q 8 -93 8 -111 q 13 -68 8 -82 q 28 -31 17 -54 q -33 39 -14 1 q -51 126 -51 76 q -22 280 -51 200 q 69 457 7 360 q 117 528 92 492 q 170 597 143 564 q 224 660 197 631 q 275 713 250 690 l 283 719 l 292 728 l 272 721 q 239 714 249 714 q 208 728 221 714 q 194 763 194 743 q 264 849 194 813 q 360 885 310 872 q 458 899 410 899 q 517 894 490 899 q 578 876 544 889 q 610 917 600 908 q 636 925 621 925 q 663 915 651 925 q 674 889 674 904 q 670 872 674 879 q 650 836 667 865 q 643 826 649 835 z "},"":{"ha":713,"x_min":-51,"x_max":857,"o":"m 513 422 q 501 408 506 414 q 496 401 497 403 l 417 293 q 385 250 403 274 q 349 201 368 226 q 310 152 329 176 q 274 108 290 128 q 209 34 238 64 q 157 -13 181 4 q 111 -38 133 -31 q 67 -46 89 -46 q -19 -8 14 -46 q -51 93 -51 31 q -22 258 -51 169 q 74 458 8 346 q 194 640 129 554 q 350 822 260 726 q 390 863 374 847 q 419 888 407 879 q 442 901 432 897 q 463 904 451 904 q 501 889 485 904 q 518 851 518 874 q 501 807 518 829 q 494 797 499 801 q 471 772 490 793 q 455 754 464 764 q 439 738 446 744 q 406 699 426 724 q 363 647 386 675 q 318 592 340 619 q 281 543 296 564 q 207 433 242 490 q 146 322 172 376 q 104 223 119 268 q 89 149 89 178 q 96 124 89 133 q 114 114 103 114 q 149 131 129 114 q 206 196 168 149 l 282 290 l 376 407 l 482 538 l 604 690 q 686 785 646 740 q 747 850 726 831 q 804 876 775 876 q 842 863 828 876 q 857 828 857 849 q 850 795 857 811 q 824 749 843 779 q 784 685 806 721 q 742 613 763 650 q 701 540 721 576 q 667 475 682 504 q 590 312 621 386 q 539 165 560 238 q 517 80 526 121 q 506 13 508 39 q 492 -40 503 -26 q 454 -54 481 -54 q 399 -30 421 -54 q 376 31 376 -6 q 381 78 376 54 q 400 146 386 103 q 513 422 447 297 m 724 1004 q 710 971 724 985 q 676 957 696 957 q 588 1022 635 957 q 555 1072 564 1054 q 546 1106 546 1089 q 559 1144 546 1129 q 593 1158 572 1158 q 622 1149 610 1158 q 653 1114 635 1139 q 686 1068 669 1086 q 716 1031 708 1044 q 724 1004 724 1018 z "},"":{"ha":713,"x_min":-51,"x_max":857,"o":"m 513 422 q 501 408 506 414 q 496 401 497 403 l 417 293 q 385 250 403 274 q 349 201 368 226 q 310 152 329 176 q 274 108 290 128 q 209 34 238 64 q 157 -13 181 4 q 111 -38 133 -31 q 67 -46 89 -46 q -19 -8 14 -46 q -51 93 -51 31 q -22 258 -51 169 q 74 458 8 346 q 194 640 129 554 q 350 822 260 726 q 390 863 374 847 q 419 888 407 879 q 442 901 432 897 q 463 904 451 904 q 501 889 485 904 q 518 851 518 874 q 501 807 518 829 q 494 797 499 801 q 471 772 490 793 q 455 754 464 764 q 439 738 446 744 q 406 699 426 724 q 363 647 386 675 q 318 592 340 619 q 281 543 296 564 q 207 433 242 490 q 146 322 172 376 q 104 223 119 268 q 89 149 89 178 q 96 124 89 133 q 114 114 103 114 q 149 131 129 114 q 206 196 168 149 l 282 290 l 376 407 l 482 538 l 604 690 q 686 785 646 740 q 747 850 726 831 q 804 876 775 876 q 842 863 828 876 q 857 828 857 849 q 850 795 857 811 q 824 749 843 779 q 784 685 806 721 q 742 613 763 650 q 701 540 721 576 q 667 475 682 504 q 590 312 621 386 q 539 165 560 238 q 517 80 526 121 q 506 13 508 39 q 492 -40 503 -26 q 454 -54 481 -54 q 399 -30 421 -54 q 376 31 376 -6 q 381 78 376 54 q 400 146 386 103 q 513 422 447 297 m 815 1108 q 806 1072 817 1096 q 779 1029 794 1049 q 730 976 751 992 q 688 960 708 960 q 653 972 668 960 q 639 1003 639 985 q 640 1014 639 1008 q 646 1027 642 1019 q 658 1046 650 1035 q 681 1074 667 1057 q 694 1090 688 1081 q 711 1114 701 1100 q 741 1148 728 1138 q 769 1158 754 1158 q 801 1144 789 1158 q 815 1108 814 1131 z "},"":{"ha":713,"x_min":-51,"x_max":857,"o":"m 513 422 q 501 408 506 414 q 496 401 497 403 l 417 293 q 385 250 403 274 q 349 201 368 226 q 310 152 329 176 q 274 108 290 128 q 209 34 238 64 q 157 -13 181 4 q 111 -38 133 -31 q 67 -46 89 -46 q -19 -8 14 -46 q -51 93 -51 31 q -22 258 -51 169 q 74 458 8 346 q 194 640 129 554 q 350 822 260 726 q 390 863 374 847 q 419 888 407 879 q 442 901 432 897 q 463 904 451 904 q 501 889 485 904 q 518 851 518 874 q 501 807 518 829 q 494 797 499 801 q 471 772 490 793 q 455 754 464 764 q 439 738 446 744 q 406 699 426 724 q 363 647 386 675 q 318 592 340 619 q 281 543 296 564 q 207 433 242 490 q 146 322 172 376 q 104 223 119 268 q 89 149 89 178 q 96 124 89 133 q 114 114 103 114 q 149 131 129 114 q 206 196 168 149 l 282 290 l 376 407 l 482 538 l 604 690 q 686 785 646 740 q 747 850 726 831 q 804 876 775 876 q 842 863 828 876 q 857 828 857 849 q 850 795 857 811 q 824 749 843 779 q 784 685 806 721 q 742 613 763 650 q 701 540 721 576 q 667 475 682 504 q 590 312 621 386 q 539 165 560 238 q 517 80 526 121 q 506 13 508 39 q 492 -40 503 -26 q 454 -54 481 -54 q 399 -30 421 -54 q 376 31 376 -6 q 381 78 376 54 q 400 146 386 103 q 513 422 447 297 m 726 1033 q 715 1031 715 1031 l 688 1021 q 632 1010 654 1010 q 603 1020 614 1010 q 592 1049 592 1031 q 607 1084 592 1071 q 665 1113 622 1097 q 740 1131 711 1131 q 774 1122 760 1131 q 806 1094 789 1114 q 836 1051 825 1072 q 847 1017 847 1031 q 834 984 847 997 q 803 971 821 971 q 774 981 786 971 q 731 1028 761 992 l 726 1033 l 726 1033 z "},"":{"ha":713,"x_min":-51,"x_max":857,"o":"m 513 422 q 501 408 506 414 q 496 401 497 403 l 417 293 q 385 250 403 274 q 349 201 368 226 q 310 152 329 176 q 274 108 290 128 q 209 34 238 64 q 157 -13 181 4 q 111 -38 133 -31 q 67 -46 89 -46 q -19 -8 14 -46 q -51 93 -51 31 q -22 258 -51 169 q 74 458 8 346 q 194 640 129 554 q 350 822 260 726 q 390 863 374 847 q 419 888 407 879 q 442 901 432 897 q 463 904 451 904 q 501 889 485 904 q 518 851 518 874 q 501 807 518 829 q 494 797 499 801 q 471 772 490 793 q 455 754 464 764 q 439 738 446 744 q 406 699 426 724 q 363 647 386 675 q 318 592 340 619 q 281 543 296 564 q 207 433 242 490 q 146 322 172 376 q 104 223 119 268 q 89 149 89 178 q 96 124 89 133 q 114 114 103 114 q 149 131 129 114 q 206 196 168 149 l 282 290 l 376 407 l 482 538 l 604 690 q 686 785 646 740 q 747 850 726 831 q 804 876 775 876 q 842 863 828 876 q 857 828 857 849 q 850 795 857 811 q 824 749 843 779 q 784 685 806 721 q 742 613 763 650 q 701 540 721 576 q 667 475 682 504 q 590 312 621 386 q 539 165 560 238 q 517 80 526 121 q 506 13 508 39 q 492 -40 503 -26 q 454 -54 481 -54 q 399 -30 421 -54 q 376 31 376 -6 q 381 78 376 54 q 400 146 386 103 q 513 422 447 297 m 686 1086 q 678 1050 686 1068 q 658 1017 671 1032 q 630 994 646 1003 q 599 985 614 985 q 568 999 581 985 q 556 1032 556 1013 q 563 1069 556 1050 q 583 1102 571 1088 q 610 1126 594 1117 q 640 1135 625 1135 q 673 1121 660 1135 q 686 1086 686 1107 m 847 1085 q 840 1049 847 1067 q 819 1016 832 1031 q 792 992 807 1001 q 761 983 776 983 q 730 997 742 983 q 718 1031 718 1011 q 726 1067 718 1049 q 746 1101 733 1086 q 774 1124 758 1115 q 804 1133 789 1133 q 835 1119 824 1133 q 847 1085 847 1106 z "},"":{"ha":501,"x_min":-119,"x_max":624,"o":"m 276 235 q 222 193 244 219 q 199 143 200 167 q 206 124 199 132 q 222 117 213 117 q 262 144 246 117 q 278 211 278 171 q 278 222 278 218 q 276 235 278 228 m 375 283 q 381 240 379 257 q 382 206 382 224 q 368 124 382 163 q 331 58 354 86 q 275 13 307 29 q 207 -4 243 -4 q 122 28 154 -4 q 90 114 90 61 q 131 237 90 179 q 251 340 172 294 l 258 344 q 250 431 250 392 q 266 507 250 476 q 321 565 282 538 l 389 614 q 460 682 433 646 q 488 744 488 718 q 463 768 488 768 q 409 744 440 768 q 343 679 378 721 q 290 607 317 647 q 233 515 263 567 q 216 485 224 499 q 200 458 208 472 q 182 425 192 443 q 160 382 172 407 q 132 328 146 356 q 104 274 118 300 l 47 164 l 22 114 q -4 65 7 85 q -26 35 -15 46 q -47 21 -36 25 q -69 17 -57 17 q -105 31 -90 17 q -119 65 -119 44 q -117 85 -119 75 q -108 112 -115 96 q -89 153 -101 128 q -56 218 -76 178 q -12 300 -31 264 q 25 369 7 336 q 63 435 43 401 q 106 510 82 468 q 176 627 144 576 q 238 717 208 678 q 294 785 267 756 q 351 836 322 814 q 506 899 432 899 q 590 866 556 899 q 624 786 624 833 q 614 731 624 761 q 587 672 604 701 q 545 615 569 643 q 493 565 521 588 l 410 501 q 365 460 376 476 q 354 415 354 443 q 355 404 354 410 q 356 390 356 399 q 363 392 360 392 q 365 392 365 392 l 392 400 q 415 404 404 404 q 452 390 438 404 q 467 353 467 375 q 453 319 467 332 q 408 296 440 306 q 393 292 397 294 l 379 286 q 375 283 379 285 z "},"":{"ha":451,"x_min":-69,"x_max":490,"o":"m 154 221 q 150 236 150 233 q 157 251 150 244 l 179 275 q 209 317 196 292 q 222 356 222 342 q 200 378 222 378 q 156 358 182 378 q 107 304 131 338 q 70 238 85 272 q 56 183 56 203 q 76 160 56 160 q 107 171 92 160 q 146 211 122 182 q 154 221 147 214 m 163 117 q 21 25 96 25 q -44 56 -18 25 q -69 135 -69 86 q -44 251 -69 188 q 24 372 -19 315 q 124 472 72 438 q 225 506 176 506 q 297 478 269 506 q 325 403 325 450 q 322 373 325 386 q 311 342 318 360 q 329 324 325 331 q 333 308 333 317 q 331 294 333 301 q 317 275 328 288 q 283 222 296 247 q 271 182 271 197 q 294 160 271 160 q 342 185 315 160 q 410 265 369 210 q 457 299 435 299 q 481 289 472 299 q 490 264 490 279 q 468 203 490 240 q 407 125 446 165 q 235 31 317 31 q 183 52 204 31 q 163 104 163 74 l 163 117 l 163 117 m 344 628 q 331 594 344 608 q 297 581 317 581 q 208 646 256 581 q 176 695 185 678 q 167 729 167 713 q 180 767 167 753 q 214 782 193 782 q 243 772 231 782 q 274 738 256 763 q 307 692 290 710 q 337 655 329 668 q 344 628 344 642 z "},"":{"ha":451,"x_min":-69,"x_max":490,"o":"m 154 221 q 150 236 150 233 q 157 251 150 244 l 179 275 q 209 317 196 292 q 222 356 222 342 q 200 378 222 378 q 156 358 182 378 q 107 304 131 338 q 70 238 85 272 q 56 183 56 203 q 76 160 56 160 q 107 171 92 160 q 146 211 122 182 q 154 221 147 214 m 163 117 q 21 25 96 25 q -44 56 -18 25 q -69 135 -69 86 q -44 251 -69 188 q 24 372 -19 315 q 124 472 72 438 q 225 506 176 506 q 297 478 269 506 q 325 403 325 450 q 322 373 325 386 q 311 342 318 360 q 329 324 325 331 q 333 308 333 317 q 331 294 333 301 q 317 275 328 288 q 283 222 296 247 q 271 182 271 197 q 294 160 271 160 q 342 185 315 160 q 410 265 369 210 q 457 299 435 299 q 481 289 472 299 q 490 264 490 279 q 468 203 490 240 q 407 125 446 165 q 235 31 317 31 q 183 52 204 31 q 163 104 163 74 l 163 117 l 163 117 m 417 731 q 407 694 418 718 q 381 651 396 671 q 331 598 353 614 q 289 582 310 582 q 255 594 269 582 q 240 625 240 607 q 242 636 240 631 q 247 649 243 642 q 260 668 251 657 q 282 696 268 679 q 296 713 289 703 q 313 736 303 722 q 342 770 329 760 q 371 781 356 781 q 403 767 390 781 q 417 731 415 753 z "},"":{"ha":451,"x_min":-69,"x_max":490,"o":"m 154 221 q 150 236 150 233 q 157 251 150 244 l 179 275 q 209 317 196 292 q 222 356 222 342 q 200 378 222 378 q 156 358 182 378 q 107 304 131 338 q 70 238 85 272 q 56 183 56 203 q 76 160 56 160 q 107 171 92 160 q 146 211 122 182 q 154 221 147 214 m 163 117 q 21 25 96 25 q -44 56 -18 25 q -69 135 -69 86 q -44 251 -69 188 q 24 372 -19 315 q 124 472 72 438 q 225 506 176 506 q 297 478 269 506 q 325 403 325 450 q 322 373 325 386 q 311 342 318 360 q 329 324 325 331 q 333 308 333 317 q 331 294 333 301 q 317 275 328 288 q 283 222 296 247 q 271 182 271 197 q 294 160 271 160 q 342 185 315 160 q 410 265 369 210 q 457 299 435 299 q 481 289 472 299 q 490 264 490 279 q 468 203 490 240 q 407 125 446 165 q 235 31 317 31 q 183 52 204 31 q 163 104 163 74 l 163 117 l 163 117 m 292 667 q 281 664 281 664 l 253 654 q 197 643 219 643 q 168 653 179 643 q 157 682 157 664 q 172 717 157 704 q 231 746 188 731 q 306 764 276 764 q 340 756 325 764 q 371 728 354 747 q 401 685 390 706 q 413 650 413 664 q 399 617 413 631 q 368 604 386 604 q 339 615 351 604 q 296 661 326 625 l 292 667 l 292 667 z "},"":{"ha":451,"x_min":-69,"x_max":490,"o":"m 154 221 q 150 236 150 233 q 157 251 150 244 l 179 275 q 209 317 196 292 q 222 356 222 342 q 200 378 222 378 q 156 358 182 378 q 107 304 131 338 q 70 238 85 272 q 56 183 56 203 q 76 160 56 160 q 107 171 92 160 q 146 211 122 182 q 154 221 147 214 m 163 117 q 21 25 96 25 q -44 56 -18 25 q -69 135 -69 86 q -44 251 -69 188 q 24 372 -19 315 q 124 472 72 438 q 225 506 176 506 q 297 478 269 506 q 325 403 325 450 q 322 373 325 386 q 311 342 318 360 q 329 324 325 331 q 333 308 333 317 q 331 294 333 301 q 317 275 328 288 q 283 222 296 247 q 271 182 271 197 q 294 160 271 160 q 342 185 315 160 q 410 265 369 210 q 457 299 435 299 q 481 289 472 299 q 490 264 490 279 q 468 203 490 240 q 407 125 446 165 q 235 31 317 31 q 183 52 204 31 q 163 104 163 74 l 163 117 l 163 117 m 481 697 q 448 636 481 663 q 374 610 415 610 q 351 612 364 610 q 324 619 338 614 l 286 632 q 240 640 258 640 q 221 638 229 640 q 182 625 213 636 q 158 621 167 621 q 131 634 143 621 q 119 667 119 647 q 151 727 119 701 q 224 753 182 753 q 285 740 249 753 q 314 732 303 735 q 332 728 325 729 q 344 726 339 726 q 357 725 350 725 q 389 729 376 725 l 421 743 q 438 746 429 746 q 469 732 457 746 q 481 697 481 718 z "},"":{"ha":451,"x_min":-69,"x_max":490,"o":"m 154 221 q 150 236 150 233 q 157 251 150 244 l 179 275 q 209 317 196 292 q 222 356 222 342 q 200 378 222 378 q 156 358 182 378 q 107 304 131 338 q 70 238 85 272 q 56 183 56 203 q 76 160 56 160 q 107 171 92 160 q 146 211 122 182 q 154 221 147 214 m 163 117 q 21 25 96 25 q -44 56 -18 25 q -69 135 -69 86 q -44 251 -69 188 q 24 372 -19 315 q 124 472 72 438 q 225 506 176 506 q 297 478 269 506 q 325 403 325 450 q 322 373 325 386 q 311 342 318 360 q 329 324 325 331 q 333 308 333 317 q 331 294 333 301 q 317 275 328 288 q 283 222 296 247 q 271 182 271 197 q 294 160 271 160 q 342 185 315 160 q 410 265 369 210 q 457 299 435 299 q 481 289 472 299 q 490 264 490 279 q 468 203 490 240 q 407 125 446 165 q 235 31 317 31 q 183 52 204 31 q 163 104 163 74 l 163 117 l 163 117 m 288 708 q 280 672 288 690 q 260 640 272 654 q 231 616 247 625 q 200 607 215 607 q 169 621 182 607 q 157 654 157 635 q 165 691 157 672 q 184 724 172 710 q 211 748 196 739 q 242 757 226 757 q 274 743 261 757 q 288 708 288 729 m 449 707 q 441 671 449 689 q 421 638 433 653 q 393 615 408 624 q 363 606 378 606 q 331 619 343 606 q 319 653 319 633 q 327 690 319 671 q 347 723 335 708 q 375 747 360 738 q 406 756 390 756 q 437 742 425 756 q 449 707 449 728 z "},"":{"ha":451,"x_min":-69,"x_max":490,"o":"m 154 221 q 150 236 150 233 q 157 251 150 244 l 179 275 q 209 317 196 292 q 222 356 222 342 q 200 378 222 378 q 156 358 182 378 q 107 304 131 338 q 70 238 85 272 q 56 183 56 203 q 76 160 56 160 q 107 171 92 160 q 146 211 122 182 q 154 221 147 214 m 163 117 q 21 25 96 25 q -44 56 -18 25 q -69 135 -69 86 q -44 251 -69 188 q 24 372 -19 315 q 124 472 72 438 q 225 506 176 506 q 297 478 269 506 q 325 403 325 450 q 322 373 325 386 q 311 342 318 360 q 329 324 325 331 q 333 308 333 317 q 331 294 333 301 q 317 275 328 288 q 283 222 296 247 q 271 182 271 197 q 294 160 271 160 q 342 185 315 160 q 410 265 369 210 q 457 299 435 299 q 481 289 472 299 q 490 264 490 279 q 468 203 490 240 q 407 125 446 165 q 235 31 317 31 q 183 52 204 31 q 163 104 163 74 l 163 117 l 163 117 m 354 732 q 339 750 354 750 q 292 721 317 750 q 271 676 271 696 q 289 657 271 657 q 331 683 308 657 q 354 732 354 710 m 432 743 q 419 685 432 714 q 385 633 406 656 q 337 596 364 610 q 282 582 310 582 q 220 608 246 582 q 194 669 194 633 q 208 726 194 697 q 242 776 221 754 q 290 813 264 799 q 344 826 317 826 q 407 803 382 826 q 432 743 432 779 z "},"":{"ha":550,"x_min":-106,"x_max":571,"o":"m 138 213 q 119 216 126 215 q 106 217 113 217 q 46 197 71 217 q 21 150 21 178 q 43 125 21 125 q 92 151 65 125 q 138 213 119 176 m 293 292 q 300 291 297 292 q 306 290 303 290 q 341 297 324 290 q 372 312 358 303 q 394 333 386 321 q 403 357 403 344 q 383 376 403 376 q 341 354 364 376 q 293 292 318 332 m 247 189 q 242 167 242 178 q 293 115 242 115 q 374 142 331 115 q 457 217 417 168 l 496 263 q 539 288 517 288 q 562 276 553 288 q 571 250 571 265 q 553 199 571 229 q 504 132 536 168 q 384 31 446 65 q 264 -3 322 -3 q 183 19 215 -3 q 139 82 150 42 q 77 19 114 42 q 3 -3 40 -3 q -76 28 -46 -3 q -106 108 -106 58 q -87 190 -106 151 q -39 259 -69 229 q 33 306 -8 289 q 118 324 74 324 q 188 315 146 324 q 197 338 194 329 q 200 356 200 346 q 191 382 200 372 q 167 392 182 392 q 148 390 158 392 q 126 382 138 388 l 83 364 q 57 357 67 357 q 30 370 42 357 q 18 399 18 383 q 78 469 18 436 q 211 508 151 508 q 304 447 282 508 q 418 496 364 496 q 483 468 458 496 q 507 397 507 440 q 488 317 507 356 q 438 250 469 279 q 367 203 407 221 q 283 186 326 186 q 267 187 275 186 q 247 189 258 188 z "},"":{"ha":335,"x_min":-129,"x_max":343,"o":"m 65 -37 q 131 -69 108 -46 q 154 -125 154 -92 q 142 -169 154 -149 q 110 -204 131 -189 q 63 -228 90 -219 q 6 -237 36 -237 q -45 -232 -21 -237 q -88 -217 -69 -226 q -118 -197 -107 -208 q -129 -172 -129 -185 q -119 -148 -129 -158 q -97 -137 -110 -137 q -84 -139 -92 -137 q -67 -144 -76 -140 q -31 -153 -50 -150 q 4 -156 -11 -156 q 40 -147 26 -156 q 54 -124 54 -139 q 29 -100 54 -107 l 6 -96 q -25 -64 -25 -89 q -17 -33 -25 -46 l 0 -8 l 8 3 q -56 49 -32 14 q -81 131 -81 83 q -50 262 -81 194 q 39 390 -19 329 q 134 470 88 443 q 221 497 181 497 q 281 472 257 497 q 304 407 304 447 q 294 346 304 376 q 267 290 283 315 q 230 249 250 265 q 189 233 210 233 q 160 245 172 233 q 149 272 149 257 q 153 288 149 281 q 168 306 157 294 q 193 335 183 321 q 203 358 203 349 q 189 374 203 374 q 153 357 176 374 q 108 315 131 340 q 58 235 76 279 q 39 160 39 192 q 51 124 39 138 q 85 111 64 111 q 149 130 113 111 q 215 179 185 149 l 258 222 q 282 240 269 233 q 306 247 294 247 q 332 236 321 247 q 343 211 343 225 q 311 146 343 186 q 231 69 279 106 q 92 3 163 17 l 65 -37 z "},"":{"ha":350,"x_min":-65,"x_max":378,"o":"m 99 283 q 108 281 104 282 q 117 281 111 281 q 148 288 132 281 q 177 306 164 294 q 199 332 190 318 q 207 360 207 346 q 193 376 207 376 q 149 349 178 376 q 99 283 121 321 m 57 185 q 49 169 51 175 q 47 154 47 163 q 62 119 47 131 q 101 107 76 107 q 190 140 139 107 q 278 224 240 174 l 307 263 q 342 283 324 283 q 367 272 357 283 q 378 243 378 261 q 358 184 378 218 q 301 113 338 150 q 188 26 249 57 q 72 -6 126 -6 q -27 34 11 -6 q -65 136 -65 74 q -39 258 -65 196 q 29 372 -12 321 q 122 456 71 424 q 221 489 172 489 q 286 463 261 489 q 311 394 311 436 q 292 315 311 354 q 244 246 274 276 q 175 197 214 215 q 96 178 136 178 q 77 180 85 178 q 57 185 69 182 m 353 628 q 339 594 353 608 q 306 581 325 581 q 217 646 264 581 q 184 695 193 678 q 175 729 175 713 q 188 767 175 753 q 222 782 201 782 q 251 772 239 782 q 282 738 264 763 q 315 692 299 710 q 345 655 338 668 q 353 628 353 642 z "},"":{"ha":350,"x_min":-65,"x_max":418,"o":"m 99 283 q 108 281 104 282 q 117 281 111 281 q 148 288 132 281 q 177 306 164 294 q 199 332 190 318 q 207 360 207 346 q 193 376 207 376 q 149 349 178 376 q 99 283 121 321 m 57 185 q 49 169 51 175 q 47 154 47 163 q 62 119 47 131 q 101 107 76 107 q 190 140 139 107 q 278 224 240 174 l 307 263 q 342 283 324 283 q 367 272 357 283 q 378 243 378 261 q 358 184 378 218 q 301 113 338 150 q 188 26 249 57 q 72 -6 126 -6 q -27 34 11 -6 q -65 136 -65 74 q -39 258 -65 196 q 29 372 -12 321 q 122 456 71 424 q 221 489 172 489 q 286 463 261 489 q 311 394 311 436 q 292 315 311 354 q 244 246 274 276 q 175 197 214 215 q 96 178 136 178 q 77 180 85 178 q 57 185 69 182 m 417 731 q 407 694 418 718 q 381 651 396 671 q 331 598 353 614 q 289 582 310 582 q 255 594 269 582 q 240 625 240 607 q 242 636 240 631 q 247 649 243 642 q 260 668 251 657 q 282 696 268 679 q 296 713 289 703 q 313 736 303 722 q 342 770 329 760 q 371 781 356 781 q 403 767 390 781 q 417 731 415 753 z "},"":{"ha":350,"x_min":-65,"x_max":411,"o":"m 99 283 q 108 281 104 282 q 117 281 111 281 q 148 288 132 281 q 177 306 164 294 q 199 332 190 318 q 207 360 207 346 q 193 376 207 376 q 149 349 178 376 q 99 283 121 321 m 57 185 q 49 169 51 175 q 47 154 47 163 q 62 119 47 131 q 101 107 76 107 q 190 140 139 107 q 278 224 240 174 l 307 263 q 342 283 324 283 q 367 272 357 283 q 378 243 378 261 q 358 184 378 218 q 301 113 338 150 q 188 26 249 57 q 72 -6 126 -6 q -27 34 11 -6 q -65 136 -65 74 q -39 258 -65 196 q 29 372 -12 321 q 122 456 71 424 q 221 489 172 489 q 286 463 261 489 q 311 394 311 436 q 292 315 311 354 q 244 246 274 276 q 175 197 214 215 q 96 178 136 178 q 77 180 85 178 q 57 185 69 182 m 290 667 q 279 664 279 664 l 251 654 q 196 643 218 643 q 167 653 178 643 q 156 682 156 664 q 171 717 156 704 q 229 746 186 731 q 304 764 275 764 q 338 756 324 764 q 369 728 353 747 q 400 685 389 706 q 411 650 411 664 q 398 617 411 631 q 367 604 385 604 q 338 615 350 604 q 294 661 325 625 l 290 667 l 290 667 z "},"":{"ha":350,"x_min":-65,"x_max":449,"o":"m 99 283 q 108 281 104 282 q 117 281 111 281 q 148 288 132 281 q 177 306 164 294 q 199 332 190 318 q 207 360 207 346 q 193 376 207 376 q 149 349 178 376 q 99 283 121 321 m 57 185 q 49 169 51 175 q 47 154 47 163 q 62 119 47 131 q 101 107 76 107 q 190 140 139 107 q 278 224 240 174 l 307 263 q 342 283 324 283 q 367 272 357 283 q 378 243 378 261 q 358 184 378 218 q 301 113 338 150 q 188 26 249 57 q 72 -6 126 -6 q -27 34 11 -6 q -65 136 -65 74 q -39 258 -65 196 q 29 372 -12 321 q 122 456 71 424 q 221 489 172 489 q 286 463 261 489 q 311 394 311 436 q 292 315 311 354 q 244 246 274 276 q 175 197 214 215 q 96 178 136 178 q 77 180 85 178 q 57 185 69 182 m 288 708 q 280 672 288 690 q 260 640 272 654 q 231 616 247 625 q 200 607 215 607 q 169 621 182 607 q 157 654 157 635 q 165 691 157 672 q 184 724 172 710 q 211 748 196 739 q 242 757 226 757 q 274 743 261 757 q 288 708 288 729 m 449 707 q 441 671 449 689 q 421 638 433 653 q 393 615 408 624 q 363 606 378 606 q 331 619 343 606 q 319 653 319 633 q 327 690 319 671 q 347 723 335 708 q 375 747 360 738 q 406 756 390 756 q 437 742 425 756 q 449 707 449 728 z "},"":{"ha":233,"x_min":-83,"x_max":289,"o":"m 256 233 q 251 212 256 225 q 236 183 246 199 q 215 151 226 168 q 189 119 203 133 q 98 47 144 72 q 13 21 51 21 q -56 49 -29 21 q -83 124 -83 78 q 7 347 -83 211 q 60 411 38 392 q 106 431 82 431 q 140 416 126 431 q 154 379 154 401 q 149 352 154 364 q 128 321 143 340 q 40 171 40 213 q 63 147 40 147 q 83 152 72 147 q 108 171 93 157 q 137 197 121 182 q 164 224 153 213 q 199 260 188 251 q 224 268 210 268 q 256 233 253 268 m 289 628 q 275 594 289 608 q 242 581 261 581 q 153 646 200 581 q 120 695 129 678 q 111 729 111 713 q 124 767 111 753 q 158 782 138 782 q 188 772 175 782 q 218 738 200 763 q 251 692 235 710 q 281 655 274 668 q 289 628 289 642 z "},"":{"ha":233,"x_min":-83,"x_max":344,"o":"m 256 233 q 251 212 256 225 q 236 183 246 199 q 215 151 226 168 q 189 119 203 133 q 98 47 144 72 q 13 21 51 21 q -56 49 -29 21 q -83 124 -83 78 q 7 347 -83 211 q 60 411 38 392 q 106 431 82 431 q 140 416 126 431 q 154 379 154 401 q 149 352 154 364 q 128 321 143 340 q 40 171 40 213 q 63 147 40 147 q 83 152 72 147 q 108 171 93 157 q 137 197 121 182 q 164 224 153 213 q 199 260 188 251 q 224 268 210 268 q 256 233 253 268 m 343 731 q 333 694 344 718 q 307 651 322 671 q 258 598 279 614 q 215 582 236 582 q 181 594 196 582 q 167 625 167 607 q 168 636 167 631 q 174 649 169 642 q 186 668 178 657 q 208 696 194 679 q 222 713 215 703 q 239 736 229 722 q 269 770 256 760 q 297 781 282 781 q 329 767 317 781 q 343 731 342 753 z "},"":{"ha":233,"x_min":-83,"x_max":357,"o":"m 256 233 q 251 212 256 225 q 236 183 246 199 q 215 151 226 168 q 189 119 203 133 q 98 47 144 72 q 13 21 51 21 q -56 49 -29 21 q -83 124 -83 78 q 7 347 -83 211 q 60 411 38 392 q 106 431 82 431 q 140 416 126 431 q 154 379 154 401 q 149 352 154 364 q 128 321 143 340 q 40 171 40 213 q 63 147 40 147 q 83 152 72 147 q 108 171 93 157 q 137 197 121 182 q 164 224 153 213 q 199 260 188 251 q 224 268 210 268 q 256 233 253 268 m 236 667 q 225 664 225 664 l 197 654 q 142 643 164 643 q 113 653 124 643 q 101 682 101 664 q 117 717 101 704 q 175 746 132 731 q 250 764 221 764 q 284 756 269 764 q 315 728 299 747 q 346 685 335 706 q 357 650 357 664 q 344 617 357 631 q 313 604 331 604 q 283 615 296 604 q 240 661 271 625 l 236 667 l 236 667 z "},"":{"ha":233,"x_min":-83,"x_max":376,"o":"m 256 233 q 251 212 256 225 q 236 183 246 199 q 215 151 226 168 q 189 119 203 133 q 98 47 144 72 q 13 21 51 21 q -56 49 -29 21 q -83 124 -83 78 q 7 347 -83 211 q 60 411 38 392 q 106 431 82 431 q 140 416 126 431 q 154 379 154 401 q 149 352 154 364 q 128 321 143 340 q 40 171 40 213 q 63 147 40 147 q 83 152 72 147 q 108 171 93 157 q 137 197 121 182 q 164 224 153 213 q 199 260 188 251 q 224 268 210 268 q 256 233 253 268 m 215 708 q 208 672 215 690 q 188 640 200 654 q 159 616 175 625 q 128 607 143 607 q 97 621 110 607 q 85 654 85 635 q 92 691 85 672 q 112 724 100 710 q 139 748 124 739 q 169 757 154 757 q 202 743 189 757 q 215 708 215 729 m 376 707 q 369 671 376 689 q 349 638 361 653 q 321 615 336 624 q 290 606 306 606 q 259 619 271 606 q 247 653 247 633 q 255 690 247 671 q 275 723 263 708 q 303 747 288 738 q 333 756 318 756 q 365 742 353 756 q 376 707 376 728 z "},"":{"ha":444,"x_min":-122,"x_max":538,"o":"m 119 303 q 197 374 160 343 q 269 429 233 404 q 321 460 301 451 q 360 468 340 468 q 400 454 383 468 q 417 419 417 440 q 407 385 417 401 q 369 340 397 369 q 326 290 346 315 q 293 241 307 264 q 271 199 279 218 q 263 168 263 181 q 281 149 263 149 q 371 225 314 149 q 401 266 390 251 q 420 288 413 281 q 433 296 428 294 q 447 297 439 297 q 472 288 463 297 q 481 264 481 279 q 457 199 481 240 q 394 113 433 157 q 308 42 353 67 q 225 17 264 17 q 159 43 185 17 q 133 111 133 69 q 147 180 133 149 q 193 258 160 211 q 135 219 164 242 q 80 169 106 196 q 34 115 54 143 q 3 60 14 86 l -21 4 q -72 -37 -40 -37 q -108 -22 -93 -37 q -122 17 -122 -7 q -112 72 -122 36 q -83 154 -101 108 q -40 251 -64 200 q 11 349 -17 301 q 87 460 56 426 q 146 494 118 494 q 176 481 164 494 q 189 450 189 468 q 186 431 189 440 q 181 415 183 422 l 142 356 l 106 296 q 101 289 103 293 q 96 279 99 285 l 119 303 m 538 697 q 505 636 538 663 q 431 610 472 610 q 408 612 421 610 q 381 619 394 614 l 343 632 q 297 640 315 640 q 278 638 286 640 q 239 625 269 636 q 215 621 224 621 q 188 634 200 621 q 176 667 176 647 q 208 727 176 701 q 281 753 239 753 q 342 740 306 753 q 371 732 360 735 q 389 728 382 729 q 401 726 396 726 q 414 725 407 725 q 446 729 433 725 l 478 743 q 494 746 486 746 q 526 732 514 746 q 538 697 538 718 z "},"":{"ha":365,"x_min":-69,"x_max":354,"o":"m 157 219 q 146 234 149 229 q 143 246 143 239 q 146 258 143 253 q 158 271 149 263 q 199 326 182 293 q 215 382 215 360 q 201 399 215 399 q 167 380 188 399 q 121 326 146 361 q 66 234 88 281 q 44 158 44 188 q 51 137 44 146 q 68 128 57 128 q 157 219 108 128 m 276 267 q 278 254 278 261 q 262 189 278 226 q 218 114 246 151 q 129 28 176 58 q 35 -1 82 -1 q -40 33 -11 -1 q -69 124 -69 68 q -42 253 -69 183 q 32 385 -15 322 q 134 484 79 447 q 235 521 189 521 q 300 490 276 521 q 324 407 324 460 q 313 333 324 367 q 276 267 301 300 m 354 628 q 340 594 354 608 q 307 581 326 581 q 218 646 265 581 q 185 695 194 678 q 176 729 176 713 q 190 767 176 753 q 224 782 203 782 q 253 772 240 782 q 283 738 265 763 q 317 692 300 710 q 347 655 339 668 q 354 628 354 642 z "},"":{"ha":365,"x_min":-69,"x_max":428,"o":"m 157 219 q 146 234 149 229 q 143 246 143 239 q 146 258 143 253 q 158 271 149 263 q 199 326 182 293 q 215 382 215 360 q 201 399 215 399 q 167 380 188 399 q 121 326 146 361 q 66 234 88 281 q 44 158 44 188 q 51 137 44 146 q 68 128 57 128 q 157 219 108 128 m 276 267 q 278 254 278 261 q 262 189 278 226 q 218 114 246 151 q 129 28 176 58 q 35 -1 82 -1 q -40 33 -11 -1 q -69 124 -69 68 q -42 253 -69 183 q 32 385 -15 322 q 134 484 79 447 q 235 521 189 521 q 300 490 276 521 q 324 407 324 460 q 313 333 324 367 q 276 267 301 300 m 426 731 q 417 694 428 718 q 390 651 406 671 q 341 598 363 614 q 299 582 319 582 q 265 594 279 582 q 250 625 250 607 q 251 636 250 631 q 257 649 253 642 q 269 668 261 657 q 292 696 278 679 q 306 713 299 703 q 322 736 313 722 q 352 770 339 760 q 381 781 365 781 q 413 767 400 781 q 426 731 425 753 z "},"":{"ha":365,"x_min":-69,"x_max":413,"o":"m 157 219 q 146 234 149 229 q 143 246 143 239 q 146 258 143 253 q 158 271 149 263 q 199 326 182 293 q 215 382 215 360 q 201 399 215 399 q 167 380 188 399 q 121 326 146 361 q 66 234 88 281 q 44 158 44 188 q 51 137 44 146 q 68 128 57 128 q 157 219 108 128 m 276 267 q 278 254 278 261 q 262 189 278 226 q 218 114 246 151 q 129 28 176 58 q 35 -1 82 -1 q -40 33 -11 -1 q -69 124 -69 68 q -42 253 -69 183 q 32 385 -15 322 q 134 484 79 447 q 235 521 189 521 q 300 490 276 521 q 324 407 324 460 q 313 333 324 367 q 276 267 301 300 m 292 667 q 281 664 281 664 l 253 654 q 197 643 219 643 q 168 653 179 643 q 157 682 157 664 q 172 717 157 704 q 231 746 188 731 q 306 764 276 764 q 340 756 325 764 q 371 728 354 747 q 401 685 390 706 q 413 650 413 664 q 399 617 413 631 q 368 604 386 604 q 339 615 351 604 q 296 661 326 625 l 292 667 l 292 667 z "},"":{"ha":365,"x_min":-69,"x_max":500,"o":"m 157 219 q 146 234 149 229 q 143 246 143 239 q 146 258 143 253 q 158 271 149 263 q 199 326 182 293 q 215 382 215 360 q 201 399 215 399 q 167 380 188 399 q 121 326 146 361 q 66 234 88 281 q 44 158 44 188 q 51 137 44 146 q 68 128 57 128 q 157 219 108 128 m 276 267 q 278 254 278 261 q 262 189 278 226 q 218 114 246 151 q 129 28 176 58 q 35 -1 82 -1 q -40 33 -11 -1 q -69 124 -69 68 q -42 253 -69 183 q 32 385 -15 322 q 134 484 79 447 q 235 521 189 521 q 300 490 276 521 q 324 407 324 460 q 313 333 324 367 q 276 267 301 300 m 500 697 q 467 636 500 663 q 393 610 435 610 q 370 612 383 610 q 343 619 357 614 l 306 632 q 260 640 278 640 q 240 638 249 640 q 201 625 232 636 q 178 621 186 621 q 151 634 163 621 q 139 667 139 647 q 170 727 139 701 q 243 753 201 753 q 304 740 268 753 q 333 732 322 735 q 351 728 344 729 q 364 726 358 726 q 376 725 369 725 q 408 729 396 725 l 440 743 q 457 746 449 746 q 488 732 476 746 q 500 697 500 718 z "},"":{"ha":365,"x_min":-69,"x_max":458,"o":"m 157 219 q 146 234 149 229 q 143 246 143 239 q 146 258 143 253 q 158 271 149 263 q 199 326 182 293 q 215 382 215 360 q 201 399 215 399 q 167 380 188 399 q 121 326 146 361 q 66 234 88 281 q 44 158 44 188 q 51 137 44 146 q 68 128 57 128 q 157 219 108 128 m 276 267 q 278 254 278 261 q 262 189 278 226 q 218 114 246 151 q 129 28 176 58 q 35 -1 82 -1 q -40 33 -11 -1 q -69 124 -69 68 q -42 253 -69 183 q 32 385 -15 322 q 134 484 79 447 q 235 521 189 521 q 300 490 276 521 q 324 407 324 460 q 313 333 324 367 q 276 267 301 300 m 297 708 q 290 672 297 690 q 269 640 282 654 q 241 616 257 625 q 210 607 225 607 q 179 621 192 607 q 167 654 167 635 q 174 691 167 672 q 194 724 182 710 q 221 748 206 739 q 251 757 236 757 q 284 743 271 757 q 297 708 297 729 m 458 707 q 451 671 458 689 q 431 638 443 653 q 403 615 418 624 q 372 606 388 606 q 341 619 353 606 q 329 653 329 633 q 337 690 329 671 q 357 723 344 708 q 385 747 369 738 q 415 756 400 756 q 447 742 435 756 q 458 707 458 728 z "},"":{"ha":556,"x_min":46,"x_max":510,"o":"m 500 10 l 500 917 l 56 917 l 56 10 l 500 10 m 46 926 l 510 926 l 510 0 l 46 0 l 46 926 z "},"":{"ha":388,"x_min":-144,"x_max":403,"o":"m 228 375 q 207 397 225 397 q 175 385 193 397 q 138 353 157 374 q 99 304 118 332 q 63 246 79 276 l 228 375 l 228 375 m 33 147 q 64 117 42 115 q 133 162 94 118 q 207 281 171 206 l 33 147 m 336 379 q 303 242 332 311 q 233 118 275 174 q 140 27 190 63 q 42 -8 89 -8 q -68 71 -37 -8 l -83 58 q -119 42 -103 42 q -137 50 -129 42 q -144 69 -144 58 q -138 90 -144 82 q -108 117 -132 97 l -79 139 q -40 269 -67 213 q 36 388 -12 326 q 138 482 85 449 q 238 515 192 515 q 290 499 265 515 q 328 451 314 482 l 342 463 q 363 478 357 475 q 376 481 368 481 q 403 450 403 481 q 383 415 403 428 l 363 400 l 336 379 l 336 379 z "},"":{"ha":458,"x_min":-60,"x_max":494,"o":"m 165 119 q 101 51 133 72 q 33 29 69 29 q -33 59 -7 29 q -60 138 -60 89 q -33 263 -60 193 q 38 400 -7 333 q 157 508 110 508 q 190 496 176 508 q 203 464 203 483 q 197 435 203 449 q 168 392 190 421 q 97 279 122 329 q 72 194 72 229 q 89 172 72 172 q 136 204 108 172 q 186 268 160 231 q 236 343 213 306 l 283 417 q 343 460 310 460 q 377 447 364 460 q 390 413 390 433 q 388 396 390 404 q 381 376 386 388 q 365 347 375 364 q 338 304 354 331 q 290 220 304 251 q 275 169 275 189 q 281 151 275 158 q 294 144 286 144 q 378 214 321 144 l 418 265 q 463 294 442 294 q 485 285 476 294 q 494 260 494 275 q 475 201 494 236 q 421 125 456 165 q 326 39 372 68 q 240 10 281 10 q 183 34 206 10 q 161 94 161 58 q 162 106 161 101 q 165 119 163 111 m 364 628 q 350 594 364 608 q 317 581 336 581 q 228 646 275 581 q 195 695 204 678 q 186 729 186 713 q 199 767 186 753 q 233 782 213 782 q 263 772 250 782 q 293 738 275 763 q 326 692 310 710 q 356 655 349 668 q 364 628 364 642 z "},"":{"ha":458,"x_min":-60,"x_max":494,"o":"m 165 119 q 101 51 133 72 q 33 29 69 29 q -33 59 -7 29 q -60 138 -60 89 q -33 263 -60 193 q 38 400 -7 333 q 157 508 110 508 q 190 496 176 508 q 203 464 203 483 q 197 435 203 449 q 168 392 190 421 q 97 279 122 329 q 72 194 72 229 q 89 172 72 172 q 136 204 108 172 q 186 268 160 231 q 236 343 213 306 l 283 417 q 343 460 310 460 q 377 447 364 460 q 390 413 390 433 q 388 396 390 404 q 381 376 386 388 q 365 347 375 364 q 338 304 354 331 q 290 220 304 251 q 275 169 275 189 q 281 151 275 158 q 294 144 286 144 q 378 214 321 144 l 418 265 q 463 294 442 294 q 485 285 476 294 q 494 260 494 275 q 475 201 494 236 q 421 125 456 165 q 326 39 372 68 q 240 10 281 10 q 183 34 206 10 q 161 94 161 58 q 162 106 161 101 q 165 119 163 111 m 446 731 q 436 694 447 718 q 410 651 425 671 q 360 598 382 614 q 318 582 339 582 q 284 594 299 582 q 269 625 269 607 q 271 636 269 631 q 276 649 272 642 q 289 668 281 657 q 311 696 297 679 q 325 713 318 703 q 342 736 332 722 q 372 770 358 760 q 400 781 385 781 q 432 767 419 781 q 446 731 444 753 z "},"":{"ha":458,"x_min":-60,"x_max":494,"o":"m 165 119 q 101 51 133 72 q 33 29 69 29 q -33 59 -7 29 q -60 138 -60 89 q -33 263 -60 193 q 38 400 -7 333 q 157 508 110 508 q 190 496 176 508 q 203 464 203 483 q 197 435 203 449 q 168 392 190 421 q 97 279 122 329 q 72 194 72 229 q 89 172 72 172 q 136 204 108 172 q 186 268 160 231 q 236 343 213 306 l 283 417 q 343 460 310 460 q 377 447 364 460 q 390 413 390 433 q 388 396 390 404 q 381 376 386 388 q 365 347 375 364 q 338 304 354 331 q 290 220 304 251 q 275 169 275 189 q 281 151 275 158 q 294 144 286 144 q 378 214 321 144 l 418 265 q 463 294 442 294 q 485 285 476 294 q 494 260 494 275 q 475 201 494 236 q 421 125 456 165 q 326 39 372 68 q 240 10 281 10 q 183 34 206 10 q 161 94 161 58 q 162 106 161 101 q 165 119 163 111 m 338 667 q 326 664 326 664 l 299 654 q 243 643 265 643 q 214 653 225 643 q 203 682 203 664 q 218 717 203 704 q 276 746 233 731 q 351 764 322 764 q 385 756 371 764 q 417 728 400 747 q 447 685 436 706 q 458 650 458 664 q 445 617 458 631 q 414 604 432 604 q 385 615 397 604 q 342 661 372 625 l 338 667 l 338 667 z "},"":{"ha":458,"x_min":-60,"x_max":494,"o":"m 165 119 q 101 51 133 72 q 33 29 69 29 q -33 59 -7 29 q -60 138 -60 89 q -33 263 -60 193 q 38 400 -7 333 q 157 508 110 508 q 190 496 176 508 q 203 464 203 483 q 197 435 203 449 q 168 392 190 421 q 97 279 122 329 q 72 194 72 229 q 89 172 72 172 q 136 204 108 172 q 186 268 160 231 q 236 343 213 306 l 283 417 q 343 460 310 460 q 377 447 364 460 q 390 413 390 433 q 388 396 390 404 q 381 376 386 388 q 365 347 375 364 q 338 304 354 331 q 290 220 304 251 q 275 169 275 189 q 281 151 275 158 q 294 144 286 144 q 378 214 321 144 l 418 265 q 463 294 442 294 q 485 285 476 294 q 494 260 494 275 q 475 201 494 236 q 421 125 456 165 q 326 39 372 68 q 240 10 281 10 q 183 34 206 10 q 161 94 161 58 q 162 106 161 101 q 165 119 163 111 m 317 708 q 309 672 317 690 q 289 640 301 654 q 260 616 276 625 q 229 607 244 607 q 199 621 211 607 q 186 654 186 635 q 194 691 186 672 q 213 724 201 710 q 240 748 225 739 q 271 757 256 757 q 303 743 290 757 q 317 708 317 729 m 478 707 q 470 671 478 689 q 450 638 463 653 q 422 615 438 624 q 392 606 407 606 q 360 619 372 606 q 349 653 349 633 q 356 690 349 671 q 376 723 364 708 q 404 747 389 738 q 435 756 419 756 q 466 742 454 756 q 478 707 478 728 z "},"":{"ha":472,"x_min":-258,"x_max":499,"o":"m 36 -115 q -28 -149 -1 -135 q -72 -179 -54 -164 q -122 -226 -104 -203 q -139 -269 -139 -250 q -131 -288 -139 -281 q -111 -296 -122 -296 q -48 -257 -82 -296 q 26 -135 -14 -218 q 31 -127 29 -132 q 36 -115 33 -122 m 179 -56 q 165 -90 174 -69 q 146 -131 156 -110 q 126 -174 136 -153 q 110 -208 117 -194 q -129 -411 7 -411 q -222 -378 -186 -411 q -258 -294 -258 -346 q -161 -122 -258 -203 q -119 -92 -143 -107 q -64 -61 -96 -78 q -15 -37 -44 -50 q 61 -1 15 -24 l 93 13 q 103 33 99 24 q 122 68 108 43 q 140 106 133 92 q 157 140 147 119 q 70 51 115 82 q -17 19 25 19 q -76 45 -53 19 q -99 110 -99 71 q -68 222 -99 161 q 19 347 -37 283 q 161 451 113 451 q 192 440 181 451 q 204 408 204 428 q 195 376 204 390 q 160 338 186 361 q 106 283 131 310 q 62 233 81 257 q 33 191 43 210 q 22 161 22 172 q 27 151 22 156 q 39 146 32 146 q 69 158 50 146 q 108 188 89 169 q 176 258 139 215 q 249 343 214 300 q 281 383 269 368 q 301 408 293 399 q 313 421 308 417 q 324 429 318 425 q 363 446 344 446 q 396 433 382 446 q 410 401 410 419 q 397 363 410 383 q 381 337 392 354 q 356 293 371 319 q 307 209 336 261 q 250 101 278 157 l 246 90 q 285 118 267 104 q 322 151 303 132 q 378 208 351 179 q 419 256 404 236 q 444 283 435 275 q 465 290 454 290 q 490 281 481 290 q 499 258 499 272 q 440 149 499 218 q 389 92 414 117 q 335 45 364 67 q 273 2 307 24 q 196 -42 239 -19 l 183 -49 l 179 -56 m 257 708 q 249 672 257 690 q 229 640 242 654 q 201 616 217 625 q 169 607 185 607 q 139 621 151 607 q 126 654 126 635 q 134 691 126 672 q 153 724 142 710 q 181 748 165 739 q 211 757 196 757 q 244 743 231 757 q 257 708 257 729 m 418 707 q 410 671 418 689 q 390 638 403 653 q 363 615 378 624 q 332 606 347 606 q 301 619 313 606 q 289 653 289 633 q 297 690 289 671 q 317 723 304 708 q 344 747 329 738 q 375 756 360 756 q 406 742 394 756 q 418 707 418 728 z "},"!":{"ha":485,"x_min":10,"x_max":579,"o":"m 160 110 q 156 84 160 100 q 144 56 151 68 q 67 -1 118 -1 q 26 15 42 -1 q 10 60 10 32 q 18 101 10 81 q 40 138 26 122 q 69 164 53 154 q 104 174 86 174 q 142 156 128 174 q 160 110 157 138 m 579 900 q 572 865 579 886 q 546 801 565 844 q 517 742 532 771 q 486 681 503 713 q 448 611 469 649 q 397 526 426 574 l 329 413 q 299 359 311 382 q 278 321 286 336 q 253 276 258 286 q 243 260 247 267 q 208 243 228 243 q 165 262 183 243 q 146 306 146 281 q 188 414 146 340 l 256 529 q 287 582 269 551 q 325 650 304 613 l 399 782 q 431 840 418 815 q 451 881 444 865 q 490 941 475 926 q 528 956 504 956 q 579 900 579 956 z "},"":{"ha":333,"x_min":-56,"x_max":290,"o":"m 226 335 l 232 193 q 221 108 233 147 q 186 39 208 68 q 133 -7 164 10 q 64 -24 101 -24 q -22 8 11 -24 q -56 92 -56 40 q -32 163 -56 132 q 22 194 -8 194 q 39 188 32 194 q 46 174 46 182 q 42 158 46 168 q 38 132 38 146 q 46 106 38 117 q 68 94 54 94 q 95 107 82 94 q 115 139 108 119 q 124 185 122 158 q 128 256 126 211 l 129 281 q 57 246 72 246 q 27 258 39 246 q 15 290 15 271 q 23 317 15 307 q 51 340 31 328 q 70 353 61 347 q 90 365 79 358 l 125 389 l 132 394 q 148 450 136 424 q 176 497 160 476 q 210 528 192 517 q 249 540 229 540 q 278 526 267 540 q 290 492 290 513 q 273 424 290 460 q 226 358 256 388 l 226 335 z "},"":{"ha":664,"x_min":-81,"x_max":750,"o":"m 393 797 q 494 865 440 840 q 597 889 549 889 q 707 845 664 889 q 750 735 750 801 q 716 597 750 669 q 625 469 682 524 q 529 403 578 424 q 419 382 481 382 q 401 382 408 382 q 383 385 394 382 q 368 251 368 328 q 378 151 368 181 q 413 122 389 122 q 451 138 433 122 q 501 193 469 153 l 524 222 q 542 242 535 238 q 558 247 549 247 q 581 238 572 247 q 589 215 589 229 q 570 152 589 190 q 518 72 551 114 q 369 -24 443 -24 q 309 -5 338 -24 q 267 42 281 14 q 249 104 254 69 q 243 190 243 139 q 246 263 243 224 q 254 340 249 303 q 267 410 260 378 q 281 461 274 442 q 319 501 294 501 q 349 497 332 501 q 403 490 379 490 q 565 575 496 490 q 602 635 589 604 q 615 694 615 667 q 598 742 615 722 q 556 761 581 761 q 499 745 531 761 q 433 701 467 729 q 365 634 399 674 q 300 549 331 594 q 225 422 263 492 q 154 282 188 353 q 94 144 121 211 q 56 28 68 78 q 28 -43 42 -25 q -12 -61 14 -61 q -60 -38 -40 -61 q -81 17 -81 -15 q -67 88 -81 43 q -31 191 -54 133 q 28 317 -7 249 q 104 458 63 385 l 183 599 q 251 733 228 678 q 285 842 275 789 q 307 905 293 886 q 346 924 321 924 q 386 903 371 924 q 401 850 401 882 q 399 824 401 835 q 393 797 397 813 z "},"":{"ha":410,"x_min":-60,"x_max":350,"o":"m 261 393 q 221 413 242 413 q 169 389 197 413 q 114 325 140 365 q 74 244 89 285 q 58 174 58 203 q 65 147 58 157 q 83 139 72 138 q 126 169 101 139 q 161 219 146 193 q 192 278 176 246 q 217 328 207 310 q 233 358 226 347 q 247 377 240 369 q 261 393 253 385 m 332 400 q 347 382 343 389 q 350 364 350 375 q 336 319 350 349 q 310 265 321 288 q 294 226 300 243 q 287 194 289 208 q 285 167 285 181 q 290 133 285 149 q 307 107 296 117 l 332 88 q 343 56 343 76 q 324 15 343 32 q 278 -3 306 -3 q 212 32 238 -3 q 183 122 186 67 q 147 67 164 89 q 114 32 131 46 q 81 13 97 18 q 43 7 64 7 q -31 40 -3 7 q -60 129 -60 74 q -27 276 -60 196 q 58 424 6 357 q 251 546 157 546 q 322 522 294 546 q 350 461 350 497 q 332 400 350 431 z "},"":{"ha":403,"x_min":-79,"x_max":528,"o":"m 218 358 q 209 362 213 361 q 199 363 206 363 q 153 348 176 363 q 110 308 129 333 q 62 227 82 274 q 42 150 42 181 q 50 122 42 133 q 71 113 58 111 q 129 169 96 114 q 218 358 163 225 m 258 451 q 297 534 278 493 q 344 628 317 575 q 376 689 363 664 q 399 731 389 714 q 417 758 410 747 q 433 775 425 768 q 481 796 456 796 q 514 782 500 796 q 528 749 528 768 q 520 720 528 738 q 489 664 513 703 q 466 624 479 647 q 433 563 453 600 q 400 499 414 526 q 375 450 386 472 q 355 407 364 428 q 336 363 346 386 q 303 281 317 317 q 281 219 289 246 q 268 172 272 192 q 264 135 264 151 q 285 85 264 106 l 300 71 q 317 33 317 57 q 299 -5 317 11 q 256 -21 281 -21 q 192 11 218 -21 q 165 89 165 43 l 165 99 q 100 14 138 44 q 25 -17 63 -17 q -49 19 -19 -17 q -79 110 -79 54 q -54 235 -79 171 q 9 351 -29 299 q 95 435 47 403 q 189 468 143 468 q 220 464 204 468 q 258 451 236 460 z "},"":{"ha":383,"x_min":-74,"x_max":406,"o":"m 122 283 q 132 283 129 283 q 138 282 135 282 q 172 289 154 282 q 203 306 189 296 q 226 331 217 317 q 235 357 235 344 q 221 375 235 375 q 172 349 200 375 q 122 283 143 322 m 81 183 q 75 156 75 167 q 128 108 75 108 q 226 148 172 108 q 332 258 279 188 q 369 285 351 285 q 395 274 385 285 q 406 247 406 263 q 385 190 406 225 q 329 117 365 154 q 216 28 276 60 q 103 -4 156 -4 q -1 35 38 -4 q -40 140 -40 75 q -37 178 -40 160 q -28 218 -35 197 q -74 290 -74 249 q -60 326 -74 311 q -28 342 -47 342 q -7 337 -17 342 q 18 319 3 332 q 127 443 67 397 q 243 489 188 489 q 313 461 285 489 q 340 393 340 433 q 322 313 340 351 q 272 245 303 275 q 200 197 240 215 q 117 179 160 179 q 99 180 106 179 q 81 183 92 181 z "},"":{"ha":453,"x_min":-106,"x_max":494,"o":"m 150 381 q 265 458 210 429 q 353 488 321 488 q 394 471 376 488 q 411 431 411 454 q 401 392 411 411 q 365 340 392 372 q 315 272 333 300 q 285 218 296 244 q 269 169 269 188 q 288 151 269 151 q 343 183 308 151 q 358 197 351 190 q 370 211 364 203 q 385 231 376 219 q 407 263 393 243 q 457 300 432 300 q 483 289 472 300 q 494 263 494 278 q 474 206 494 242 q 419 132 453 171 q 315 40 367 72 q 218 7 263 7 q 155 34 181 7 q 129 101 129 61 q 138 153 129 124 q 160 213 146 182 q 193 276 174 244 q 235 336 213 308 q 14 64 104 274 q -6 20 1 36 q -20 -3 -14 4 q -33 -13 -26 -11 q -50 -15 -40 -15 q -89 1 -72 -15 q -106 40 -106 18 q 0 324 -106 100 q 81 489 38 404 q 160 636 124 574 q 210 717 183 676 q 256 781 236 757 q 311 814 283 814 q 347 801 332 814 q 361 768 361 788 q 358 749 361 758 q 343 725 354 740 q 324 697 335 713 q 301 660 314 681 q 273 610 289 639 q 235 543 257 582 q 208 494 219 515 q 186 456 196 474 q 168 419 176 438 q 150 381 160 401 z "},"":{"ha":235,"x_min":-83,"x_max":399,"o":"m 399 711 q 389 674 399 692 q 363 640 379 656 q 328 616 347 625 q 289 607 308 607 q 255 622 269 607 q 240 657 240 636 q 250 694 240 675 q 276 728 260 713 q 310 753 292 743 q 347 763 329 763 q 384 748 369 763 q 399 711 399 733 m 258 261 q 240 208 258 242 q 190 138 221 174 q 97 55 147 86 q 7 24 47 24 q -58 52 -32 24 q -83 124 -83 81 q -75 181 -83 149 q -51 247 -67 213 q -13 316 -35 281 q 35 385 8 351 q 113 466 76 438 q 175 494 150 494 q 208 483 194 494 q 221 453 221 471 q 214 424 221 438 q 188 390 207 411 q 80 261 117 315 q 43 179 43 207 q 61 158 43 158 q 105 181 81 158 q 168 253 129 203 q 202 292 192 283 q 226 300 213 300 q 258 261 258 300 z "},"":{"ha":182,"x_min":-111,"x_max":365,"o":"m 365 656 q 356 617 365 636 q 331 581 346 597 q 298 555 317 565 q 261 544 279 544 q 224 560 239 544 q 208 599 208 575 q 218 638 208 618 q 243 673 228 657 q 277 699 258 689 q 315 708 296 708 q 351 694 336 708 q 365 656 365 679 m 197 446 q 174 393 197 425 q 116 310 142 350 q 71 233 90 271 q 36 155 51 194 q 8 72 21 115 q -20 -1 -7 17 q -57 -18 -33 -18 q -96 -1 -81 -18 q -111 44 -111 17 q -51 233 -111 107 q 13 358 -19 300 q 72 449 46 415 q 111 488 94 476 q 147 499 128 499 q 183 484 168 499 q 197 446 197 469 z "},"":{"ha":447,"x_min":-111,"x_max":535,"o":"m 246 543 q 310 583 286 565 q 357 624 335 601 q 397 673 381 647 q 413 714 413 699 q 400 728 413 728 q 375 713 392 728 q 338 675 358 699 q 294 619 317 651 q 253 553 272 588 l 246 543 l 246 543 m 104 203 q 81 181 92 192 q 60 156 71 171 q 37 121 50 142 q 6 69 24 100 q -31 18 -18 31 q -62 6 -43 6 q -97 21 -82 6 q -111 57 -111 36 q -101 104 -111 76 q -67 189 -92 132 q 64 444 -7 322 q 210 664 135 565 q 465 860 363 860 q 516 840 497 860 q 535 785 535 821 q 440 589 535 690 q 383 538 415 564 q 319 493 351 513 q 270 463 303 482 q 178 413 238 444 l 168 408 l 161 394 q 141 358 150 375 q 125 328 132 342 l 121 318 q 187 372 151 347 q 257 413 222 396 q 324 441 292 431 q 379 451 356 451 q 417 438 401 451 q 432 406 432 425 q 404 363 432 382 q 394 358 399 360 q 360 344 390 356 l 343 339 l 326 332 l 310 326 q 269 310 289 319 q 225 286 250 301 q 208 200 208 244 q 222 152 208 171 q 260 133 236 133 q 372 228 303 133 q 401 267 390 253 q 420 288 413 281 q 434 297 428 296 q 449 299 440 299 q 472 289 463 299 q 481 264 481 279 q 458 201 481 243 q 400 115 435 158 q 204 -11 297 -11 q 124 28 151 -11 q 96 138 96 67 q 98 169 96 154 q 104 203 100 183 z "},"":{"ha":292,"x_min":-74,"x_max":446,"o":"m 153 440 q 222 501 189 468 q 281 567 256 535 q 322 627 307 599 q 338 674 338 656 q 326 688 338 688 q 249 615 300 688 q 226 579 239 601 q 199 532 213 557 q 174 483 186 507 q 153 440 161 458 m 85 286 q 57 213 65 242 q 49 163 49 185 q 58 131 49 143 q 83 118 68 118 q 151 153 110 118 q 238 251 192 189 q 269 288 257 278 q 294 299 281 299 q 317 288 307 299 q 328 263 328 276 q 301 193 328 238 q 233 103 275 149 q 129 16 181 46 q 33 -14 78 -14 q -43 22 -12 -14 q -74 113 -74 57 q -58 214 -74 157 q -8 350 -43 271 q 89 547 39 460 q 189 696 139 635 q 288 790 239 757 q 378 824 336 824 q 428 801 410 824 q 446 743 446 779 q 423 639 446 697 q 361 528 400 581 q 306 465 340 500 q 229 392 271 429 q 205 372 217 381 q 178 351 193 363 q 142 326 163 340 q 93 292 122 311 l 85 286 l 85 286 z "},"":{"ha":576,"x_min":-115,"x_max":567,"o":"m 344 356 q 518 468 465 468 q 552 455 538 468 q 567 422 567 442 q 561 396 567 408 q 539 361 556 383 q 419 96 419 208 q 421 71 419 85 q 425 38 422 57 q 427 19 426 28 q 428 4 428 11 q 414 -31 428 -17 q 381 -46 400 -46 q 322 -10 344 -46 q 300 79 300 25 q 312 160 300 119 q 350 249 324 201 q 314 222 331 238 q 269 176 297 207 q 233 130 249 153 q 199 67 218 107 q 149 24 176 24 q 115 39 128 24 q 103 82 103 54 q 119 153 103 114 q 169 244 135 193 l 182 264 q 3 76 65 207 q -17 36 -12 44 q -29 21 -22 28 q -68 3 -46 3 q -102 17 -89 3 q -115 56 -115 32 q -97 128 -115 81 q -46 243 -79 176 q 17 356 -15 303 q 82 450 50 408 q 124 494 106 482 q 161 507 142 507 q 194 494 181 507 q 207 461 207 481 q 201 435 207 450 q 185 408 194 421 l 153 365 q 135 340 143 354 q 111 301 126 325 q 149 337 126 317 q 196 378 171 357 q 258 422 233 408 q 307 435 283 435 q 338 423 326 435 q 349 392 349 411 q 338 349 349 372 l 344 356 z "},"":{"ha":414,"x_min":-122,"x_max":410,"o":"m 99 268 q 108 279 108 281 l 158 329 q 226 390 188 360 q 300 442 264 421 q 358 461 331 461 q 395 447 381 461 q 410 411 410 433 q 379 351 410 383 l 326 300 q 288 253 306 279 q 258 201 271 228 q 238 147 246 174 q 231 97 231 119 q 235 60 231 79 q 247 25 239 40 l 257 3 q 264 -26 264 -14 q 245 -73 264 -54 q 200 -92 226 -92 q 135 -54 160 -92 q 110 43 110 -17 q 128 147 110 90 q 174 244 146 204 q -14 24 50 171 q -39 -15 -26 -4 q -72 -26 -51 -26 q -108 -11 -93 -26 q -122 26 -122 4 q -114 68 -122 42 q -83 146 -106 94 q -8 294 -49 222 q 71 414 33 367 q 111 454 93 442 q 149 467 129 467 q 179 456 168 467 q 190 428 190 446 q 185 403 190 415 q 165 368 181 390 l 136 325 l 107 281 l 99 268 l 99 268 z "},"":{"ha":393,"x_min":-65,"x_max":456,"o":"m 160 222 q 146 247 146 236 q 153 260 146 250 q 201 324 183 292 q 219 381 219 357 q 204 399 219 399 q 167 376 190 399 q 117 317 143 353 q 66 228 85 269 q 47 160 47 186 q 69 126 47 126 q 92 135 79 126 q 119 156 106 143 q 142 187 132 169 q 160 222 153 204 m 304 306 q 342 322 324 313 q 388 346 361 331 q 408 357 401 354 q 422 360 415 360 q 447 349 438 360 q 456 321 456 338 q 383 238 456 275 q 328 215 358 225 q 274 200 299 204 l 264 182 q 219 113 236 138 q 181 67 201 89 q 42 -1 113 -1 q -36 33 -7 -1 q -65 128 -65 68 q -39 254 -65 188 q 35 383 -12 321 q 138 483 83 446 q 240 519 193 519 q 303 488 279 519 q 326 406 326 457 q 321 357 326 381 q 304 306 315 333 z "},"":{"ha":378,"x_min":-92,"x_max":418,"o":"m 189 450 q 201 447 197 447 q 218 447 207 447 q 232 447 221 447 q 258 449 244 447 l 271 449 q 304 436 292 449 q 317 403 317 424 q 301 361 317 385 l 258 292 q 193 157 193 186 q 214 133 193 133 q 260 163 235 133 q 299 210 279 185 q 339 267 319 236 q 361 292 351 285 q 385 299 371 299 q 409 289 400 299 q 418 264 418 279 q 394 194 418 239 q 332 107 369 150 q 242 27 288 56 q 158 -1 197 -1 q 88 26 114 -1 q 63 100 63 54 q 74 172 63 135 q 114 257 86 208 q 144 308 131 288 q 176 351 157 328 q 149 352 157 351 q 129 354 142 353 l 106 318 q 47 229 71 264 q 5 174 22 194 q -26 145 -12 153 q -51 138 -39 138 q -80 149 -68 138 q -92 175 -92 160 q -83 206 -92 189 q -51 254 -75 222 l 25 361 l 46 389 q 38 410 40 401 q 36 429 36 418 q 49 484 36 456 q 81 535 61 513 q 126 572 101 557 q 174 586 150 586 q 210 572 196 586 q 225 538 225 558 q 189 450 225 506 z "},"":{"ha":268,"x_min":-268,"x_max":426,"o":"m 426 753 q 418 721 426 738 q 386 668 410 704 q 208 460 331 582 l 110 363 q 35 283 72 325 q -35 199 -3 240 q -93 118 -67 157 q -135 49 -119 79 q -174 -12 -157 4 q -217 -29 -192 -29 q -253 -14 -237 -29 q -268 22 -268 1 q -260 60 -268 40 q -232 115 -253 81 q 67 464 -144 257 q 138 535 111 507 q 185 586 165 563 q 223 637 204 610 q 271 708 242 664 q 328 781 306 761 q 376 801 350 801 q 412 788 397 801 q 426 753 426 774 z "},"":{"ha":604,"x_min":-183,"x_max":724,"o":"m 86 235 q 15 71 50 158 q -43 -92 -21 -17 q -65 -169 -58 -136 q -71 -228 -71 -203 q -43 -276 -71 -276 q 42 -176 -7 -276 q 111 -8 86 -89 q 136 129 136 72 q 92 246 136 217 l 86 235 m 724 679 q 715 641 724 660 q 691 607 706 622 q 658 583 676 592 q 621 574 639 574 q 583 588 597 574 q 568 622 568 601 q 577 661 568 642 q 601 697 586 681 q 635 722 617 713 q 674 732 654 732 q 710 717 696 732 q 724 679 724 703 m 157 351 q 243 151 243 290 q 211 -42 243 64 q 121 -246 179 -147 q 21 -377 74 -329 q -75 -425 -32 -425 q -154 -381 -125 -425 q -183 -257 -183 -336 q -174 -164 -183 -217 q -146 -53 -164 -111 q -126 7 -136 -22 q -103 68 -117 36 q -74 137 -90 100 q -35 221 -57 174 l -24 242 q -46 256 -37 244 q -54 282 -54 268 q 50 403 -54 339 q 152 583 100 500 q 251 724 204 667 q 314 790 292 772 q 363 807 336 807 q 397 795 383 807 q 411 764 411 783 q 394 718 411 744 q 386 708 390 713 q 365 683 382 703 q 349 665 356 672 q 333 646 343 657 q 289 590 314 624 q 246 531 264 557 q 231 510 236 518 q 219 489 226 503 q 285 505 251 500 q 364 510 319 510 q 450 505 408 510 q 522 490 492 500 q 563 453 563 475 q 556 426 563 442 q 533 389 549 411 l 500 340 q 467 289 485 319 q 438 240 449 258 q 418 199 424 215 q 413 172 413 183 q 433 147 413 147 q 456 153 444 147 q 485 174 467 158 q 510 199 496 185 q 535 224 524 213 q 570 260 558 251 q 594 268 582 268 q 618 258 608 268 q 628 233 628 249 q 608 182 628 215 q 560 119 588 149 q 469 47 515 72 q 385 21 424 21 q 315 49 342 21 q 289 124 289 78 q 320 245 289 176 q 411 390 351 314 q 322 399 371 399 q 246 389 281 399 q 157 351 211 379 z "},"":{"ha":665,"x_min":-207,"x_max":819,"o":"m 90 261 q 29 135 61 204 q -26 3 -3 67 q -90 -242 -90 -161 q -61 -286 -90 -286 q 3 -231 -35 -285 q 62 -135 36 -185 q 106 -34 88 -85 q 135 65 125 17 q 144 156 144 114 q 133 222 144 192 q 97 274 121 253 l 90 261 m 511 429 q 547 456 531 443 q 578 483 564 468 q 608 515 593 497 q 640 553 624 532 q 704 665 704 636 q 692 681 704 681 q 654 653 679 679 q 601 585 629 626 q 566 529 583 557 q 535 476 549 501 q 522 455 526 463 q 511 429 518 447 m 453 294 q 438 260 444 278 q 419 214 431 243 q 407 158 407 176 q 415 131 407 142 q 439 121 424 121 q 510 156 467 121 q 530 174 521 165 q 548 194 539 183 q 568 221 557 206 q 594 258 579 236 q 646 297 622 297 q 669 287 660 297 q 679 261 679 276 q 631 158 679 231 q 515 33 576 78 q 399 -11 454 -11 q 315 23 346 -11 q 283 117 283 57 q 319 265 283 185 q 292 263 303 263 q 263 263 281 263 q 238 263 247 263 q 217 265 229 263 q 242 203 235 235 q 249 132 249 172 q 237 27 249 83 q 203 -86 225 -29 q 151 -199 182 -143 q 85 -303 121 -256 q -8 -394 38 -362 q -99 -425 -54 -425 q -178 -389 -150 -425 q -207 -287 -207 -353 q -167 -59 -207 -189 q -51 218 -126 71 l -7 303 l -1 314 q -37 350 -26 333 q -49 386 -49 367 q -29 435 -49 414 q 17 456 -10 456 q 38 451 29 456 q 61 436 46 447 q 153 594 104 515 q 251 738 203 672 q 293 791 271 765 q 332 832 315 817 q 367 856 351 849 q 400 864 382 864 q 436 851 422 864 q 450 818 450 838 q 442 788 450 801 q 410 749 433 774 q 374 706 396 733 q 324 644 351 679 q 265 565 296 611 q 201 465 233 518 q 174 422 183 438 q 154 382 165 406 q 207 371 174 375 q 272 367 240 367 q 320 369 296 367 q 363 376 344 371 l 367 385 q 408 463 392 432 q 437 514 425 493 q 458 550 449 535 q 481 585 468 565 q 566 699 521 647 q 649 782 611 751 q 747 822 699 822 q 800 801 781 822 q 819 743 819 779 q 788 615 819 686 q 703 481 756 543 q 647 422 678 450 q 582 368 615 393 q 515 324 549 343 q 453 294 482 306 z "}}}
